<?xml version="1.0" encoding="UTF-8"?><svg id="Camada_2" xmlns="http://www.w3.org/2000/svg" viewBox="0 0 243.64 324.53"><defs><style>.cls-1{fill:#fc4d01;}.cls-2{fill:#fc0177;}.cls-3{fill:#016ff5;}.cls-4{fill:#f4b102;}.cls-5{fill:#5bc37a;}</style></defs><g id="Camada_1-2"><g><path d="M175.21,.97c6.15,1.22,9.08,5.14,10.64,11.13,11.63,44.9,28.49,88.09,44.01,131.69,6.38,17.91,9.75,36.28,13.35,54.73,1.91,9.8-2.56,15.19-10.82,21.03-50.09,35.46-108.19,58.71-153.81,101-8.58,7.95-19.19,3.59-23.87-9.63-10.28-29.01-20.78-57.99-29.65-87.44-8.87-29.45-15.6-59.54-23.82-89.2-3.18-11.46-.29-19.02,9.71-25.61,33.76-22.26,66.9-45.39,99.3-69.64,17.17-12.85,38.13-20.35,53.5-36.09,3.3-3.38,7.25-3.57,11.47-1.98Zm18.55,218.81c-12.76,.95-25.52,1.98-38.29,2.8-4.07,.26-6.7,2.51-9.28,5.24-10.72,11.36-21.65,22.52-30.01,35.88-1.39,2.22-4.74,4.04-1.87,6.68,2.11,1.94,5.22,1.05,7.67-.66,23.9-16.7,47.8-33.4,71.7-50.09,.49-.15,.98-.3,1.47-.45-.24-.06-.56-.25-.7-.16-.28,.17-.46,.5-.69,.77ZM147.09,40c-.78-.71-1.56-1.43-2.34-2.14-4.35,2.38-8.71,4.73-13.04,7.15-38.27,21.35-70,52.33-108.4,73.47-6.79,3.74-3.92,6.58,.17,10.02,13.03,10.99,25.79,22.3,36.26,35.84,5.09,6.59,8.33,5.23,11.67-1.45,16.11-32.2,37.85-60.81,57.63-90.69,6.78-10.24,12.08-21.45,18.06-32.21Zm32.76,10.57c-2.38,4.35-3.39,5.42-3.55,6.6-6.22,46.21-12.36,92.44-18.54,138.65-1.02,7.66,3.9,6.79,8.67,6.21,15.93-1.93,31.83-4.11,47.79-5.68,7.19-.71,9.82-3.16,7.55-10.53-2.7-8.76-4.74-17.72-6.88-26.64-8.65-36.11-20.15-71.26-35.04-108.62Zm-20.5,3.75c-2.2,2.28-3.23,3.01-3.82,4-23.03,38.9-45.98,77.85-69.08,116.71-3.63,6.1-.49,7.81,4.67,9.56,12.58,4.28,25.14,8.66,37.48,13.56,7.14,2.83,9.96,.64,11.27-6.47,2.72-14.88,6.45-29.59,8.84-44.51,4.85-30.19,9.98-60.38,10.64-92.85Zm-82.96,231.33c23.35-17.45,30.79-44.56,49.91-62.53,4.11-3.86-.04-6.08-3.48-7.91-12.21-6.46-25.13-10.93-38.34-14.88-7.09-2.12-9.1,.41-9.31,6.81-.85,25.52-1.42,51.04,1.22,78.5Zm-22.63-48.57c9.3-42.47-.26-67.81-28.32-76.88,5.81,27.31,18.17,51.67,28.32,76.88Z"/><path class="cls-5" d="M147.09,40c-5.98,10.76-11.28,21.97-18.06,32.21-19.78,29.88-41.52,58.5-57.63,90.69-3.34,6.68-6.58,8.04-11.67,1.45-10.47-13.55-23.23-24.86-36.26-35.84-4.08-3.44-6.96-6.28-.17-10.02,38.4-21.14,70.13-52.12,108.4-73.47,4.33-2.42,8.7-4.77,13.04-7.15,.78,.71,1.56,1.43,2.34,2.14Z"/><path class="cls-3" d="M179.85,50.57c14.89,37.36,26.38,72.51,35.04,108.62,2.14,8.92,4.18,17.88,6.88,26.64,2.27,7.38-.35,9.82-7.55,10.53-15.96,1.57-31.86,3.75-47.79,5.68-4.77,.58-9.7,1.45-8.67-6.21,6.18-46.22,12.32-92.44,18.54-138.65,.16-1.18,1.17-2.25,3.55-6.6Z"/><path class="cls-1" d="M159.35,54.32c-.66,32.47-5.79,62.67-10.64,92.85-2.4,14.93-6.12,29.63-8.84,44.51-1.3,7.12-4.13,9.31-11.27,6.47-12.34-4.9-24.9-9.28-37.48-13.56-5.16-1.76-8.3-3.46-4.67-9.56,23.1-38.86,46.05-77.81,69.08-116.71,.59-.99,1.61-1.72,3.82-4Z"/><path class="cls-4" d="M76.39,285.65c-2.64-27.46-2.07-52.98-1.22-78.5,.21-6.41,2.22-8.94,9.31-6.81,13.21,3.96,26.13,8.42,38.34,14.88,3.45,1.82,7.59,4.05,3.48,7.91-19.12,17.97-26.56,45.08-49.91,62.53Z"/><path class="cls-5" d="M193.68,219.62c-23.9,16.7-47.8,33.4-71.69,50.1-2.45,1.71-5.56,2.61-7.67,.66-2.87-2.64,.48-4.46,1.87-6.68,8.36-13.35,19.29-24.52,30.01-35.88,2.58-2.74,5.21-4.98,9.28-5.24,12.77-.82,25.53-1.85,38.29-2.8l-.08-.16Z"/><path class="cls-2" d="M53.76,237.08c-10.15-25.21-22.51-49.57-28.32-76.88,28.07,9.07,37.62,34.41,28.32,76.88Z"/><path class="cls-5" d="M193.76,219.78c.22-.27,.41-.6,.69-.77,.15-.09,.46,.1,.7,.16-.49,.15-.98,.3-1.47,.45,0,0,.08,.16,.08,.16Z"/></g></g></svg>