<svg xmlns="http://www.w3.org/2000/svg" fill="none" viewBox="0 0 201 240"><g filter="url(#a)"><path fill="#000" d="M94.378 8.48c3.032.602 4.477 2.535 5.246 5.488 5.733 22.136 14.046 43.43 21.697 64.926 3.146 8.83 4.807 17.886 6.582 26.983.942 4.831-1.262 7.489-5.334 10.368-24.696 17.482-53.34 28.945-75.832 49.795-4.23 3.919-9.46 1.77-11.768-4.748-5.068-14.302-10.245-28.59-14.618-43.11-4.373-14.519-7.691-29.354-11.744-43.977-1.568-5.65-.143-9.377 4.787-12.626C30.04 50.604 46.377 39.2 62.351 27.245c8.465-6.335 18.8-10.033 26.377-17.793 1.627-1.667 3.574-1.76 5.655-.976l-.005.004Zm9.145 107.878c-6.29.469-12.581.976-18.877 1.381-2.007.128-3.304 1.237-4.576 2.583-5.285 5.601-10.673 11.103-14.795 17.69-.685 1.094-2.337 1.992-.922 3.293 1.04.957 2.574.518 3.781-.325a151221.6 151221.6 0 0 1 35.35-24.696l.725-.222c-.119-.029-.276-.123-.345-.078-.138.083-.227.246-.341.379v-.005ZM80.514 27.723c-.384-.35-.769-.705-1.153-1.055-2.145 1.173-4.295 2.332-6.43 3.525-18.867 10.526-34.51 25.8-53.443 36.222-3.348 1.844-1.933 3.244.084 4.94 6.424 5.419 12.715 10.995 17.877 17.67 2.51 3.25 4.107 2.579 5.753-.715 7.943-15.875 18.661-29.98 28.413-44.712 3.343-5.048 5.956-10.575 8.904-15.88l-.005.005Zm16.151 5.211c-1.173 2.145-1.67 2.672-1.75 3.254-3.066 22.783-6.094 45.575-9.14 68.358-.503 3.776 1.922 3.347 4.274 3.061 7.854-.951 15.693-2.026 23.562-2.8 3.544-.35 4.841-1.558 3.722-5.192-1.331-4.319-2.337-8.736-3.392-13.134-4.265-17.803-9.934-35.132-17.276-53.552v.005Zm-10.106 1.85c-1.085 1.123-1.593 1.483-1.884 1.971-11.354 19.179-22.669 38.382-34.058 57.54-1.79 3.008-.241 3.851 2.303 4.714 6.202 2.11 12.394 4.269 18.478 6.685 3.52 1.396 4.91.316 5.556-3.19 1.342-7.336 3.18-14.588 4.359-21.944 2.391-14.884 4.92-29.769 5.246-45.777Zm-40.901 114.05c11.512-8.604 15.18-21.969 24.606-30.829 2.027-1.903-.02-2.998-1.715-3.9-6.02-3.185-12.39-5.389-18.903-7.336-3.495-1.045-4.486.202-4.59 3.358-.419 12.581-.7 25.163.602 38.702v.005ZM34.5 124.888c4.585-20.939-.129-33.432-13.963-37.904 2.865 13.465 8.958 25.475 13.963 37.904Z"/><path fill="#5BC37A" d="M80.514 27.723c-2.948 5.305-5.561 10.832-8.904 15.88-9.752 14.732-20.47 28.842-28.413 44.712-1.646 3.294-3.244 3.964-5.753.715-5.162-6.68-11.453-12.256-17.877-17.67-2.012-1.696-3.432-3.096-.084-4.94 18.932-10.422 34.576-25.696 53.444-36.222 2.134-1.193 4.289-2.352 6.428-3.525.385.35.77.705 1.154 1.055l.005-.005Z"/><path fill="#016FF5" d="M96.665 32.934c7.342 18.42 13.006 35.75 17.276 53.552 1.055 4.398 2.061 8.815 3.392 13.134 1.119 3.639-.173 4.842-3.722 5.192-7.869.774-15.708 1.849-23.562 2.8-2.352.286-4.782.715-4.274-3.062 3.047-22.787 6.074-45.574 9.14-68.357.08-.582.577-1.11 1.75-3.254v-.005Z"/><path fill="#FC4D01" d="M86.559 34.783c-.326 16.008-2.855 30.898-5.246 45.777-1.183 7.36-3.017 14.608-4.358 21.944-.641 3.511-2.037 4.59-5.557 3.19-6.084-2.416-12.276-4.575-18.478-6.685-2.544-.868-4.092-1.706-2.303-4.713 11.39-19.16 22.704-38.362 34.058-57.54.291-.489.794-.849 1.884-1.973Z"/><path fill="#F4B102" d="M45.657 148.834c-1.301-13.539-1.02-26.121-.6-38.703.103-3.16 1.094-4.407 4.59-3.357 6.512 1.952 12.882 4.151 18.902 7.336 1.7.897 3.741 1.997 1.715 3.9-9.426 8.86-13.094 22.225-24.606 30.829v-.005Z"/><path fill="#5BC37A" d="M103.484 116.279c-11.783 8.234-23.566 16.467-35.345 24.701-1.207.843-2.74 1.287-3.781.325-1.415-1.301.237-2.199.922-3.293 4.121-6.582 9.51-12.089 14.795-17.69 1.272-1.351 2.57-2.455 4.576-2.583 6.296-.405 12.587-.912 18.877-1.381l-.039-.079h-.005Z"/><path fill="#FC0177" d="M34.5 124.888c-5.004-12.429-11.098-24.439-13.962-37.904 13.84 4.472 18.548 16.965 13.962 37.904Z"/><path fill="#5BC37A" d="M103.523 116.358c.109-.133.202-.296.341-.379.073-.045.226.049.345.079l-.725.221.039.079Z"/></g><defs><filter id="a" width="200.119" height="240" x="0" y="0" color-interpolation-filters="sRGB" filterUnits="userSpaceOnUse"><feFlood flood-opacity="0" result="BackgroundImageFix"/><feColorMatrix in="SourceAlpha" result="hardAlpha" values="0 0 0 0 0 0 0 0 0 0 0 0 0 0 0 0 0 0 127 0"/><feOffset dx="32" dy="32"/><feGaussianBlur stdDeviation="20"/><feComposite in2="hardAlpha" operator="out"/><feColorMatrix values="0 0 0 0 0 0 0 0 0 0 0 0 0 0 0 0 0 0 0.25 0"/><feBlend in2="BackgroundImageFix" result="effect1_dropShadow_303_177"/><feBlend in="SourceGraphic" in2="effect1_dropShadow_303_177" result="shape"/></filter></defs></svg>