<svg xmlns="http://www.w3.org/2000/svg" fill="none" viewBox="0 0 264 264"><g clip-path="url(#a)"><path fill="#000" d="M1.64 66.65C1.04 55.4-.04 44.14 0 32.89c.03-8.06 1.48-15.93 12.86-15.3 30.85 1.68 61.04-5.31 91.57-7.81 39.73-3.27 79.21-9 119.2-9.77 13.56-.26 20.48 4.22 21.76 17.65 3.87 40.5 6.75 81.15 12.17 121.45 3.99 29.68-.06 59.66 5.85 89.19 2.28 11.37-8.39 17.58-19.24 12.89-24.86-10.74-45.58-28.49-69.56-40.65-44.36-22.48-35.35-23.46-73.75 8.51-19.64 16.35-37.87 34.39-58.42 49.7-4.47 3.33-8.55 7-15.19 3.68-6.54-3.27-7.71-8.25-8.27-14.73-4.04-46.6-8.42-93.17-14.87-139.53-1.9-13.69-1.79-27.66-2.61-41.5h.13l.01-.02Zm13.34-10.87c-.01-.32.16 2.7.25 5.73.79 25.84 10.67 47.13 35.87 55.96 31.08 10.89 56.05 32.54 86.14 45.03 34.87 14.47 65.95 36.23 98.86 54.49 8.44 4.68 11.15 3.49 10.48-6.83-1.05-16.07-6.57-31.56-6.85-47.45-.8-45.99-13.01-90.89-12.3-136.95.12-7.76-2.85-11.05-10.79-10.34-10.35.93-20.79.91-31.12 1.98C134.27 22.69 83.07 28.42 31.8 33.52c-17.37 1.73-17.44 1.1-16.82 22.25v.01Zm7.49 62.29c1.57 15.59 2.93 28.37 4.14 41.17 2.11 22.31 1.25 44.82 6.11 67.01 2.44 11.15 4.89 12.22 14.49 6.27 15.98-9.9 25.25-27.37 42.44-35.73 8.61-4.18 14.95-11.62 22.3-17.62 7.33-5.99 5.24-9.07-2.04-12.53-21.87-10.39-42.84-22.39-63.02-35.81-6.73-4.47-14.37-7.57-24.41-12.76h-.01Z"/><path fill="#FC4D01" d="M14.97 55.78c-.61-21.16-.55-20.52 16.82-22.25 51.27-5.1 102.47-10.83 153.72-16.12 10.33-1.07 20.77-1.05 31.12-1.98 7.94-.71 10.91 2.59 10.79 10.34-.7 46.06 11.5 90.96 12.3 136.95.28 15.89 5.8 31.38 6.85 47.45.67 10.32-2.04 11.51-10.48 6.83-32.91-18.26-63.98-40.02-98.86-54.49-30.09-12.49-55.06-34.14-86.14-45.03-25.2-8.83-35.09-30.13-35.87-55.96-.09-3.03-.27-6.06-.25-5.73v-.01Z"/><path fill="#016FF5" d="M22.47 118.07c10.04 5.18 17.69 8.28 24.41 12.76 20.19 13.42 41.15 25.42 63.02 35.81 7.28 3.46 9.38 6.54 2.04 12.53-7.35 6-13.69 13.44-22.3 17.62-17.19 8.36-26.46 25.83-42.44 35.73-9.6 5.95-12.05 4.88-14.49-6.27-4.86-22.19-3.99-44.69-6.11-67.01-1.21-12.8-2.57-25.58-4.14-41.17h.01Z"/></g><defs><clipPath id="a"><path fill="#fff" d="M0 0h263.72v263.72H0z"/></clipPath></defs></svg>