<svg xmlns="http://www.w3.org/2000/svg" fill="none" viewBox="0 0 246 246"><g filter="url(#a)"><path fill="#000" d="M.995 40.434C.63 33.61-.025 26.778 0 19.953c.018-4.89.898-9.664 7.801-9.282 18.716 1.02 37.031-3.221 55.553-4.738C87.457 3.949 111.408.473 135.669.006c8.226-.158 12.424 2.56 13.201 10.707 2.347 24.57 4.095 49.231 7.383 73.68 2.42 18.006-.037 36.194 3.549 54.109 1.383 6.898-5.09 10.665-11.673 7.82-15.081-6.516-27.651-17.284-42.199-24.661-26.912-13.638-21.446-14.233-44.742 5.162-11.915 9.919-22.974 20.864-35.441 30.152-2.712 2.02-5.187 4.246-9.216 2.232-3.967-1.984-4.677-5.005-5.017-8.936C9.064 122 6.406 93.748 2.494 65.623 1.34 57.318 1.406 48.843.91 40.446h.079l.006-.012Zm8.093-6.594c-.007-.195.097 1.638.151 3.476C9.72 52.992 15.712 65.908 31 71.265c18.855 6.606 34.004 19.74 52.259 27.318 21.154 8.779 40.009 21.98 59.975 33.057 5.12 2.84 6.764 2.118 6.358-4.143-.637-9.749-3.986-19.147-4.156-28.787-.485-27.9-7.893-55.14-7.462-83.082.073-4.708-1.729-6.704-6.546-6.273-6.279.564-12.613.552-18.88 1.2-31.091 3.21-62.153 6.686-93.256 9.78-10.538 1.05-10.58.668-10.204 13.499v.006Zm4.544 37.789c.952 9.458 1.777 17.211 2.511 24.976 1.28 13.535.758 27.191 3.707 40.653 1.48 6.764 2.966 7.414 8.79 3.804 9.695-6.006 15.319-16.605 25.747-21.676 5.224-2.536 9.07-7.05 13.529-10.69 4.447-3.634 3.179-5.502-1.238-7.601-13.267-6.304-25.99-13.584-38.232-21.725-4.083-2.712-8.718-4.593-14.809-7.741h-.005Z"/><path fill="#016FF5" d="M9.081 33.84c-.37-12.837-.333-12.45 10.205-13.499 31.103-3.094 62.165-6.57 93.256-9.78 6.267-.648 12.601-.636 18.88-1.2 4.817-.431 6.619 1.57 6.546 6.273-.425 27.943 6.976 55.182 7.462 83.082.17 9.64 3.518 19.038 4.155 28.787.407 6.261-1.237 6.983-6.357 4.143-19.966-11.077-38.815-24.278-59.976-33.057-18.254-7.577-33.402-20.712-52.258-27.318-15.288-5.357-21.288-18.279-21.76-33.95-.055-1.837-.165-3.675-.153-3.475v-.006Z"/><path fill="#E9A902" d="M13.632 71.629c6.09 3.142 10.731 5.023 14.808 7.74 12.249 8.142 24.964 15.422 38.232 21.726 4.417 2.099 5.69 3.967 1.238 7.601-4.46 3.64-8.305 8.154-13.529 10.69-10.428 5.071-16.052 15.67-25.747 21.676-5.824 3.61-7.31 2.96-8.79-3.804-2.949-13.462-2.42-27.112-3.707-40.653-.734-7.765-1.56-15.518-2.512-24.976h.007Z"/></g><defs><filter id="a" width="267.991" height="268" x="-22.001" y="-22.001" color-interpolation-filters="sRGB" filterUnits="userSpaceOnUse"><feFlood flood-opacity="0" result="BackgroundImageFix"/><feColorMatrix in="SourceAlpha" result="hardAlpha" values="0 0 0 0 0 0 0 0 0 0 0 0 0 0 0 0 0 0 127 0"/><feOffset dx="32" dy="32"/><feGaussianBlur stdDeviation="27"/><feComposite in2="hardAlpha" operator="out"/><feColorMatrix values="0 0 0 0 0 0 0 0 0 0 0 0 0 0 0 0 0 0 0.25 0"/><feBlend in2="BackgroundImageFix" result="effect1_dropShadow_303_186"/><feBlend in="SourceGraphic" in2="effect1_dropShadow_303_186" result="shape"/></filter></defs></svg>