<svg width="152" height="46" fill="none" xmlns="http://www.w3.org/2000/svg"><g style="mix-blend-mode:multiply"><path d="M150.376 23.746c.386.345.879.29 1.346.29.09.008.197.094.278.33l-.224.242a1.052 1.052 0 0 1-.463.234c-.175.04-.359.038-.533-.006-.216-.024-.341-.188-.647-.212-.305-.024-.161.33-.359.423-.439.22-.942.024-1.4.125-.242.055-.098.275-.062.322.036.047.08-.016.107.133.027.149.054.392-.143.392-.737.172-1.448.419-2.118.737a1.42 1.42 0 0 0-.745.376c-.099.14.108.43.179.658.047.206.036.418-.033.619-.069.2-.193.384-.361.533-.531.555-.792 1.27-.727 1.99 0 .048-.099.134-.099.134-.197.22-.153.321.179.392.281.077.552.18.808.306.065.026.12.069.156.123a.274.274 0 0 1-.033.349.36.36 0 0 1-.177.1 3.856 3.856 0 0 0-1.445 1.144.439.439 0 0 0-.064.505c.044.08.112.15.198.199.086.05.186.077.288.08.147.01.291.045.422.104.131.06.247.14.341.24.045.04.162.047.099.118l-.007.007c-.062.07-.14.158-.218.158-.41.069-.835.01-1.202-.165-.18-.11-.565.212-.521.392.045.18.288.305-.107.415-.395.11-.377.141-.162.368l.431.455c-.628.486.027 1.254-.512 1.748-.116.11-.233.164.072.22.305.054.601.054.898.054a.454.454 0 0 1 .279.17.354.354 0 0 1 .062.292c-.063.44-.638 1.058-1.122 1.058-.296 0-.566-.321-.898.047-.233.228-.637.306-.897.51-.55.484-1.292.765-2.073.784-.35 0-.682.368-1.077 0-.099-.087-.359.023-.413.188-.224.736-.96.815-1.624.987-.359-.345-.592-.086-.835.133-.045.04.018.047-.143.102-.162.055-.404.118-.476.055-.413-.321-.906-.204-1.364-.25a2.023 2.023 0 0 1-1.032-.165c-.323-.189-.368-.134-.7.305-.099.102-.251.126-.251 0-.099-.47-.287-.392-.682-.196a3.565 3.565 0 0 1-1.678.353c-1.921-.047-3.832 0-5.753 0a2.833 2.833 0 0 0-1.534.22c-.315-.18-.62-.275-.961 0-.045.039-.233 0-.287-.055a.84.84 0 0 0-.269-.243.97.97 0 0 0-.36-.122 1.03 1.03 0 0 0-.387.022.94.94 0 0 0-.339.162 3.718 3.718 0 0 1-3.051.118.785.785 0 0 0-.646.078c-.35.165-.35.141-.718-.274a.783.783 0 0 0-.278-.165.287.287 0 0 0-.18 0c-.152.047-.278.016-.099.22.18.204.225.384-.152.384a.893.893 0 0 1-.353-.011.818.818 0 0 1-.311-.146l-.002-.002c-.51-.429-.537-.452-.958-.115a.878.878 0 0 1-.274.2.997.997 0 0 1-.697.06.946.946 0 0 1-.313-.15c-.134-.095-.395-.15-.475-.095-.279.196-.557.118-.754 0-.198-.117-.476 0-.53.251-.054.25-.224.431-.52.25-.296-.18-.476-.085-.763 0-.574.197-.718.032-.897-.587-.063-.22-.099-.306-.324-.133-.224.172-.43.36-.655.54-.089.071-.179.18-.287.18-1.05.08-2.109.314-3.006-.47-.081-.062-.081-.195-.144-.274-.063-.078-.224-.039-.224.094a.378.378 0 0 1-.051.187.44.44 0 0 1-.139.148.551.551 0 0 1-.42.072c-.234-.015-.539.032-.691-.078-.512-.384-.853-.211-1.194.173a.93.93 0 0 1-.278.149c-.045-.141-.09-.29-.144-.431l-.161-.392c-.103.056-.2.122-.287.196-.243.243-.467.454-.835.102-.08-.055-.323-.055-.502-.055a.291.291 0 0 0-.101-.186.373.373 0 0 0-.214-.089 1.022 1.022 0 0 0-.53 0c-.298.173-.566.381-.798.62-.256.224-.39.158-.704.006l-.014-.006c-.323-.157-.475.039-.745.297-.269.26-.673.275-.897.071-.224-.204-.485-.07-.637 0-.153.07-.404.18-.476.133a.968.968 0 0 0-.632-.228.968.968 0 0 0-.633.228c-.108.055-.35 0-.53 0a1.649 1.649 0 0 1-.616-.022 1.531 1.531 0 0 1-.55-.244c-.368.172-.718.352-1.095.51-.09 0-.27.046-.332 0-.637-.471-1.373-.26-2.073-.26-.238.01-.471-.056-.655-.188-.275-.232-.585-.051-.774.059l-.007.004c-.189.11-.314-.11-.458-.11-.287.047-.233.518-.511.494-.278-.023-.485-.227-.817-.211-.332.015-.574.368-.978.258a3.384 3.384 0 0 1-.305-.125c.06-.068.129-.129.206-.18.09-.048.233-.055.305-.126a.383.383 0 0 0 .081-.282c-.018-.117-.126-.18-.224-.117a1.474 1.474 0 0 1-.835.227c-.449-.008-.305.556-.7.603-.395.047-.655-.14-.969-.227-.332.313-.79.172-1.176.259-.364.062-.739.062-1.103 0-.332 0-.691.164-1.077 0a.756.756 0 0 0-.341-.017.704.704 0 0 0-.305.134c-.45.525-.934.337-1.347.102a1.059 1.059 0 0 0-.556-.155c-.2 0-.394.054-.556.155-.402.089-.82.11-1.23.063-.53.023-1.059-.102-1.561.203-.189.11-.467-.32-.763-.156-.23.164-.52.25-.817.243-.359 0-.673-.29-1.113 0-.224.125-.69 0-1.05 0h-2.333a1.91 1.91 0 0 0-.664.172.559.559 0 0 1-.323.1.56.56 0 0 1-.323-.1.566.566 0 0 0-.183-.11.628.628 0 0 0-.433 0 .566.566 0 0 0-.183.11c-.045.031-.143.078-.143.078a1.986 1.986 0 0 0-.992-.26c-.353 0-.698.09-.992.26a4.695 4.695 0 0 1-1.418.047c-1.292.047-2.602-.203-3.858.204-.404-.368-.736-.094-1.113.055a.96.96 0 0 1-.673-.063.769.769 0 0 0-.48-.163.769.769 0 0 0-.48.163 1.009 1.009 0 0 1-.512.087h-3.949a1.906 1.906 0 0 1-1.005-.236.834.834 0 0 0-.493-.043.75.75 0 0 0-.413.24c-.129.14-.296.25-.485.32-.19.07-.396.096-.601.08-1.257-.048-2.522 0-3.778 0-.206.01-.412-.022-.602-.092a1.342 1.342 0 0 1-.493-.316c-.43-.4-.458.156-.512.227-.053.07-.224.125-.296.125a1.22 1.22 0 0 0-.538-.123 1.22 1.22 0 0 0-.539.123c-.062.032-.125.032-.314-.094-.188-.125-.206-.337-.538-.4-.332-.062-.153.306-.332.4a.867.867 0 0 1-.314.11c-.323.04-.566-.094-.898.102-.332.196-.475.125-.718-.11-.242-.235-.511-.431-.897-.133a1.189 1.189 0 0 1-1.184.102 2.795 2.795 0 0 0-1.37-.275 2.73 2.73 0 0 0-1.323.416c-.108.047-.188.164-.305.164-.287.07-.646.126-.835-.094a3.247 3.247 0 0 0-1.337-.729 1.177 1.177 0 0 0-.607-.148 1.162 1.162 0 0 0-.595.18c0 .51-.637.423-.898.682a.377.377 0 0 1-.476.047 2.065 2.065 0 0 0-.99-.284 2.094 2.094 0 0 0-1.01.221c-.126.078-.189.094-.306 0-.269-.22-.556-.125-.762.047-.207.172-.467.525-.718.376-.647-.392-1.41-.117-2.038-.392-.26-.164-.385-.094-.6 0a.823.823 0 0 1-.418.112.823.823 0 0 1-.417-.112c-.26-.18-.494-.258-.79-.062a.875.875 0 0 1-.306.16.96.96 0 0 1-.695-.06.813.813 0 0 1-.264-.21c-.264-.238-.287-.213-.59.119l-.02.022a.38.38 0 0 1-.135.084.426.426 0 0 1-.162.026.459.459 0 0 1-.16-.041.407.407 0 0 1-.127-.093.503.503 0 0 1-.063-.29c-.009-.219-.045-.462-.332-.462a.991.991 0 0 1-.56-.147.794.794 0 0 1-.337-.417c-.099-.227-.216-.314.161-.4a.905.905 0 0 0 .562-.343.702.702 0 0 0 .12-.59.482.482 0 0 0-.152 0c-.36.157-.53.651-.987.557-.315-.055-.557-.36-.844-.525a.531.531 0 0 0-.332 0c-.126.031-.126.117 0 .227.136.1.26.214.368.337.072.063.072.157.072.243-.512-.023-.826.698-1.41.196-.107-.117-.385-.055-.493-.117-.108-.063-.215-.032-.332-.063-.117-.032-.188-.33-.117-.408.169-.211.402-.377.673-.478.213-.08.4-.204.548-.36a.596.596 0 0 0 .125-.416c0-.047-.179-.14-.278-.14H7.92c-.045 0-.135-.08-.135-.08a.74.74 0 0 1 .126-.242.697.697 0 0 1 .269-.193.799.799 0 0 1 .341-.058c.265.029.534-.006.778-.102.243-.095.452-.247.604-.439a.674.674 0 0 1 .27-.11c-.036-.086-.054-.203-.126-.242-.574-.353-1.31-.345-1.912-.659-.179-.094-.44.071-.44.337 0 .102.028.235 0 .306-.026.07-.17.204-.206.165-.036-.04-.107-.07-.107-.118-.054-.196-.01-.478-.144-.572-.377-.25-.906-.141-1.274-.439-.045-.04-.17 0-.314.07-.144.071-.225.204-.45.071-.376-.22-.923-.274-.735-.87.126-.392-.197-.533-.556-.65-.108-.04-.081-.196.08-.196.485-.086.52-.392.306-.643-.216-.25.134-.345.134-.51.063-.336.162-.705-.475-.783-.216-.031-.279-.258-.054-.517.224-.259.323-.25.592.07.108.079.197.118.251 0a1.89 1.89 0 0 1 .472-.723c.215-.208.48-.373.776-.483.323-.11.34-.588.807-.714.279-.055.117-.337 0-.525-.233-.415-.215-.423.142-.595h.002l.745-.33a1.568 1.568 0 0 0 0-.29c-.045-.211-.234-.462-.476-.305a8.81 8.81 0 0 0-.69.494c-.207.164-.45.094-.683.094-.045 0-.054-.016-.143-.079-.09-.062-.063-.133.09-.203.152-.071.43-.15.43-.212-.063-.784.503-.83 1.149-.784.238.02.479.02.718 0a.382.382 0 0 0 .23-.094.296.296 0 0 0 .102-.204c.046-.088.104-.172.17-.25.449.454 1.194.172 1.678.407.485.235.862.016 1.023-.462.01-.105.01-.21 0-.314a.616.616 0 0 1 .165-.356.766.766 0 0 1 .365-.216 5.19 5.19 0 0 0 1.795-.627c.574.447.52-.337.78-.337.7-.063 1.31-.462 2.047-.368.053.008.233-.149.188-.18-.045-.032-.036-.094-.144-.094h-1.417a.715.715 0 0 1-.45-.165.711.711 0 0 1 .17-.564c-.072.036-.147.07-.222.101l-.001.048a.09.09 0 0 1 0-.047l.003-.088c-.817.087-1.512.506-2.336.628a1.636 1.636 0 0 0-.641.337c-.18.156-.314.347-.391.557-.458.07-.979-.094-.979-.447-.071-.533-.6-.972-.466-1.567a.869.869 0 0 0-.04-.53.999.999 0 0 0-.346-.434c-.386-.306-.835-.611-.709-1.168-.296-.274-.547-.658-1.023-.784a1.848 1.848 0 0 1-.7-.446c-.224-.165-.458-.44-.359-.635.099-.196.395-.196.628-.196h.17a.462.462 0 0 0 .18-.243.268.268 0 0 0-.004-.142.296.296 0 0 0-.077-.124c-.242-.142-.6-.283-.753-.369-.153-.086-.548.078-.431-.29.05-.116.11-.229.18-.337h-.162c0-.013 0-.026.002-.039h-.505a7.468 7.468 0 0 0-.978-1.2c-.197-.164-.583-.21-.386-.516a.524.524 0 0 1 .161-.134.6.6 0 0 1 .43-.055.58.58 0 0 1 .199.087c.395.274.62.149.817-.15.17-.25.316-.512.44-.783.035-.07-.1-.18-.1-.274a.99.99 0 0 0-.143.047l-.673.439c-.341-.274-.467-.15-.52.196-.019.14-.108.164-.243.086-.135-.078-.278-.133-.422-.204.243-.376.305-.846.898-1.003.242-.07.206-.29.17-.556-.036-.267-.152-.306-.502-.322-.35-.015-.727.063-1.005-.211-.09-.087-.171-.04-.288.047-.377.29-.709.008-.897-.173-.188-.18.036-.25.135-.29.098-.039.287-.078.287-.117.009-.204-.153-.204-.323-.204H2.32c-.188.008-.35.031-.413-.204-.062-.235.072-.415.36-.415.09-.016.17-.11.25-.165-.089-.06-.189-.108-.295-.14a2.756 2.756 0 0 0-.36 0 .685.685 0 0 1-.17 0 .322.322 0 0 1-.104-.07.274.274 0 0 1-.065-.1.248.248 0 0 1 .025-.223c.153-.22.279-.407 0-.642.081-.047.162-.15.234-.15.43.071.88.377 1.328.322.449-.055.96-.172 1.346.196l1.13-.29c.046-.008.171-.055.126-.094-.044-.04-.08-.11-.134-.11-.251-.094-.592-.313-.754-.243-.476.196-.79.337-.897-.258a.288.288 0 0 0-.108-.11c-.368.22-.727.337-1.095 0-.727.556-1.418.157-2.127 0-.314-.063-.592-.094-.592-.431a.708.708 0 0 1 .144-.514.896.896 0 0 1 .484-.317.928.928 0 0 1 .53 0c.134.055.197.228.287.345.215.274.493.306.673.07.078-.129.147-.262.206-.399l.494.431c.009.008-.018.031-.099.118-.08.086-.08.172-.08.25.105.038.217.062.331.07a.715.715 0 0 0 .296-.156c.422-.345.404-.501-.098-.784-.341-.188-.377-.329-.126-.595.119-.118.245-.23.377-.337.117-.094.054-.165.054-.251-.09-.69-.144-.65.493-.69.638-.039 1.32.165 1.903-.227.395.274.78.04 1.059-.117a.829.829 0 0 1 .449-.13c.161 0 .319.046.448.13a.325.325 0 0 0 .256-.016.274.274 0 0 0 .095-.08.231.231 0 0 0 .044-.108.29.29 0 0 0-.019-.223.354.354 0 0 0-.178-.161c-.153-.07-.44-.141-.44-.196.072-.784-.503-.784-1.122-.784-.116-.501.422-.791.53-1.23.05-.195.161-.374.32-.52a1.32 1.32 0 0 1 .577-.303 4.27 4.27 0 0 0 .78-.353c.243-.125.423-.023.638.07.61.244.628.244 1.086-.266.162-.18.278-.078.404 0a.5.5 0 0 0 .195.093.543.543 0 0 0 .424-.08.426.426 0 0 0 .135-.154c.242-.337.421-.713.637-1.073a.975.975 0 0 1 .31-.37c.135-.1.297-.17.47-.203.225-.039.288-.11.1-.32-.19-.213 0-.267.17-.252.17.016.314.134.484.18.584.165 1.014.063 1.212-.32.197-.385.404-.58.897-.534.236.024.474.024.71 0a.718.718 0 0 1 .5.096c.072.046.131.104.175.172.043.067.07.141.078.218.036.157.144.188.224 0 .081-.188.027-.368.404-.446.377-.079.718.227.97.195.25-.03.484-.376.771-.078.287.298.494-.204.727 0 .117.08.25.14.394.175.143.035.293.045.44.029.296.003.582-.086.808-.251a.925.925 0 0 1 .341-.07c.512-.063 1.086.148 1.508-.275.539-.023 1.068-.062 1.606-.062.11-.03.213-.075.306-.134a1.206 1.206 0 0 0-.279-.149 1.385 1.385 0 0 0-.359 0 .368.368 0 0 1-.24-.068.289.289 0 0 1-.077-.09.254.254 0 0 1-.033-.108.215.215 0 0 1 .04-.222.273.273 0 0 1 .1-.074.312.312 0 0 1 .13-.025c.484.007.807-.094.897-.549a.37.37 0 0 1 .084-.138.436.436 0 0 1 .14-.097A1.05 1.05 0 0 1 26.667 0c.18.008.27.086.278.321.01.235-.063.565.35.565.036-.157.144-.29.305-.29.404.015.907-.008 1.212.18.305.188.305-.086.305-.196.117-.345.368-.314.718-.298.35.016.35.29.35.447v.47a.256.256 0 0 0 .015.113c.013.036.035.07.063.1a.33.33 0 0 0 .102.07.37.37 0 0 0 .125.03c.297.001.588.072.844.204.26.188.368-.164.592-.164.113.018.224.044.332.078.422.149.43.149.565 0 .252-.306.35-.737.898-.846.17-.032.269-.314.395-.478.053-.04.018-.094.053-.141.036-.047.126-.118.126-.118.063.086.18.157.18.243.031.153.031.31 0 .462-.135.47-.09.627.314.784.09.031.215-.055.332-.055a.617.617 0 0 0-.063-.235c-.072-.11-.099-.235 0-.235.413-.07.942-.063 1.238-.07.297-.008.395-.244.44-.392.045-.15.233-.236.314-.04.08.196.08.424.404.424.188.015.368.086.188.282-.179.196-.367.4-.538.603a.187.187 0 0 0 0 .157c.036.102.135.18.224.102l.8-.627c.086-.048.18-.084.277-.11.036.094.117.188.117.29-.01.102-.01.204 0 .306.027.07.197.164.206.164.01 0 .108-.11.108-.11.009-.344.278-.29.574-.485.297-.196.458-.086.745 0 .406.083.825.104 1.239.062.34-.007.888.032.978-.188.09-.22.09-.525.09-.783.04-.093.094-.18.161-.259.072.078.189.141.189.227.003.077.034.15.09.21.054.059.13.1.215.12h.718c.294.049.598.028.88-.062.28-.09.529-.245.717-.448.206-.22.386-.11.62.212.233.32.394.36.681.156.144-.094.243-.227.386-.329a1.007 1.007 0 0 1 .996-.078c.135.094.207.282.431.094a.532.532 0 0 1 .179-.114.596.596 0 0 1 .432 0 .532.532 0 0 1 .179.114c.096.056.198.103.305.14.108.056.413-.007.206.236-.045.086-.215.047-.323.086a.217.217 0 0 0-.116.11c-.01.023.053.102.053.102.04.035.09.06.144.07a4.025 4.025 0 0 1 1.517.306c.471.044.946.044 1.418 0 .215.016.403.204.619.274a.47.47 0 0 0 .314-.078.37.37 0 0 0 .085-.128.33.33 0 0 0 .023-.146c-.01-.094-.1-.134-.153-.267-.054-.133-.18-.313-.126-.415a.488.488 0 0 1 .273-.188.56.56 0 0 1 .347.015c.337.08.658.203.95.369.117.062.18.266.18.407a1.78 1.78 0 0 1 0 .44c.224.02.45-.01.655-.087.504-.26 1.022-.499 1.553-.713.204-.107.439-.16.677-.151.237.008.467.077.66.198.332.258.933-.032 1.086.376.153.408.359.478.763.243.143-.088.31-.142.484-.157.52-.047 1.086.126 1.526-.274a3.45 3.45 0 0 1 1.732.172c.327.13.695.155 1.041.07a4.567 4.567 0 0 1 2.89-.046c.61-.306 1.184.22 1.794.063.225 0 .548.101.7 0 .718-.463 1.508-.243 2.262-.243.215 0 .467.164.655.196.189.03.485-.15.592-.055.108.094.189.094.296 0 .333-.298.62-.15.898.094.126.11.27.274.413.266.143-.008.278-.18.404-.29a.676.676 0 0 1 .278-.191.772.772 0 0 1 .35-.044c.326.1.659.184.996.25.242.032.458-.344.763-.054.125.102.323.063.493 0a9.523 9.523 0 0 1 1.337 0c.17.094.36.141.485 0 .305-.313.772.306 1.032-.157.17-.044.352-.05.526-.017.174.033.336.103.47.205.44-.352.951-.117 1.275 0 .323.118.583-.29.987-.25.87.086 1.785-.18 2.602.29.808-.095 1.687.282 2.432-.267.395.04.915-.102 1.203.125.287.228.511.15.798 0 .29-.129.59-.239.898-.329.422.392 1.068 0 1.516.345.162.126.377.079.61.267.234.188.387.211.584 0a.838.838 0 0 1 .272-.257 1.023 1.023 0 0 1 .773-.1.935.935 0 0 1 .346.176.457.457 0 0 0 .146.086.506.506 0 0 0 .491-.086.865.865 0 0 1 .306-.148.94.94 0 0 1 .35-.024.461.461 0 0 1 .246.051.38.38 0 0 1 .166.168c.063.134.126.384.242.298.306-.227.584.102.754 0 .186-.13.417-.2.655-.2.238 0 .469.07.655.2.306.18.539.079.629-.258a.265.265 0 0 1 .066-.145.334.334 0 0 1 .142-.094.38.38 0 0 1 .178-.016.358.358 0 0 1 .161.066c.314.173.565.353.942.063a.8.8 0 0 1 .489-.162c.181 0 .355.057.49.162a.868.868 0 0 0 .309.158.957.957 0 0 0 .695-.07.81.81 0 0 0 .261-.213.976.976 0 0 1 .398-.27 1.11 1.11 0 0 1 .499-.06c.521.063 1.086-.125 1.553.228.359-.118.736-.376 1.095 0 .736-.447 1.409.274 2.144.094.027-.008.162.023.126.094-.036.07-.099.188-.143.188a1.33 1.33 0 0 0-.611.074c-.193.072-.36.187-.484.334-.207.243-.503.243-.79.243v.29a3.856 3.856 0 0 0 2.513-.463c.192-.114.423-.166.655-.149.538 0 1.211-.039 1.615 0 .404.04.709-.313.987-.274.279.04.395.25.808.25h1.256c.575.032 1.203-.14 1.705.283a8.733 8.733 0 0 1 3.043.627c.413.055.834.055 1.247 0 .422 0 .907-.008 1.257 0 .349.008.421.157.233.548-.09.118-.278.251 0 .33a.495.495 0 0 0 .332-.047 1.01 1.01 0 0 0 .339-.248.842.842 0 0 0 .19-.348.277.277 0 0 1 .067-.14.33.33 0 0 1 .139-.092.377.377 0 0 1 .333.044c.235.156.521.244.816.25h2.334c.116 0 .269-.046.35 0 .35.212.682.47 1.086.087 1.05.462 2.198.055 3.284.274.045.008.171.055.135.094-.036.04-.072.11-.117.11-.404.117-.781.415-1.238.078-.099-.094-.44-.023-.521 0-.081.024-.108.126-.17.243-.063.118-.018.259.125.259.53.039 1.059.078 1.589.078.278.008.404-.196.574-.329.185-.135.362-.28.53-.431.161-.172.305-.11.43 0a.494.494 0 0 0 .494.047c.152-.047.296-.172.449-.133.152.039.26.211.448.039.189-.172.323-.016.44.078.242.22.485.424.844.157a.927.927 0 0 1 .417.389c.089.164.115.35.076.528l-.005.025c-.139.626-.141.636.346.868.117.055.44 0 .242.236-.394.501-.152.877.126 1.285.054.039.054.102.054.149.038.055.092.1.157.132a.478.478 0 0 0 .422 0 .418.418 0 0 0 .157-.132c.116-.118.296-.267.296-.369-.135-.587.413-.823.763-1.152.143-.133.305-.078.305.141-.063.455.395.721.467 1.121.009.04.116.086.116.086a.296.296 0 0 0 .117-.11c.051-.247.126-.491.224-.728.063-.126.26-.188.395-.282.045.094.135.188.135.274.018.257.114.506.278.72.197.314-.117.471-.359.534-.242.063-.341.462-.242.666a.346.346 0 0 0 .15.18.434.434 0 0 0 .244.063h.898c.113.012.225.036.332.07.063.008.063.095.063.095a.382.382 0 0 1-.126.101l-.413.204c.154.059.313.106.476.141.164.012.329.012.494 0 .017.298.017.58.52.635.26.031.099.235 0 .345-.099.11-.215.164.072.22.287.054.574.054.852.054v.604h.682a.374.374 0 0 1 .13.016.337.337 0 0 1 .111.06.29.29 0 0 1 .074.094.244.244 0 0 1 .026.112c.018.352.072.783-.188 1.034s.045.557.161.666c.117.11.144.259.431.055.287-.204.763-.235.826-.674.018-.078.458-.102.458 0a.298.298 0 0 1-.045.243.383.383 0 0 0-.063.549c.161.211.251.47.431.666.189.263.257.58.188.886a.315.315 0 0 1-.018.151.36.36 0 0 1-.089.132.41.41 0 0 1-.143.088.466.466 0 0 1-.172.028 6.262 6.262 0 0 0-.897.086c-.063.008-.126.142-.126.236.458.11.252.619.7.783l.013.005c.444.163.857.314.732.865-.018.118.171.243.386.243a1.1 1.1 0 0 1 .436.056.98.98 0 0 1 .363.218c.161.141.152.22-.18.353a.5.5 0 0 0-.199.115.423.423 0 0 0-.115.183 2.655 2.655 0 0 0-1.472.321.552.552 0 0 0-.251.194.45.45 0 0 0-.081.284c.009.314-.125.47-.502.47a1.34 1.34 0 0 0-.485.126c-.108.047-.072.4.045.4.162.04.327.075.494.101.242.055.565-.133.7.196l-.665.126a.378.378 0 0 0-.152.07c-.09.055-.09.15.045.227.181.124.373.234.574.33a.53.53 0 0 1 .198.12.445.445 0 0 1 .116.185c.978.196 1.355.51 1.418 1.293.027.353.099.588.548.659.188.031.179.133 0 .203l-.467.196c.156.046.302.115.431.204Z" fill="#980145" style="mix-blend-mode:multiply"/><path d="M3.613 8.676c.52 0 1.023-.416 1.57-.07h.17c.054 0 .153-.11.081-.228-.386-.604-1.122-.666-1.795-.886-.26-.094-.96.392-.978.627v.306a3.636 3.636 0 0 0 0 .627c.02.046.053.087.095.12a.37.37 0 0 0 .148.068c.236.012.472.012.709 0 .17 0 .332 0 .34-.196 0-.04-.188-.078-.287-.125-.098-.047-.17-.11-.26-.165.108-.016.162-.078.207-.078ZM145.88 8.683a.234.234 0 0 0-.02-.218.285.285 0 0 0-.086-.083.326.326 0 0 0-.119-.043 2.256 2.256 0 0 0-.691 0 .674.674 0 0 0-.233.056.596.596 0 0 0-.188.132.77.77 0 0 0 0 .415h1.184a.684.684 0 0 0 .153-.259ZM21.004.172c-.08.04-.242.07-.269.134a.696.696 0 0 0 .044.662c.063.101.15.189.256.257a.965.965 0 0 0 .355.139c.072 0 .207-.063.305-.102-.395-.282-.17-.784-.502-1.09h-.189ZM8.566 42.923a11.58 11.58 0 0 0-1.166 0 .737.737 0 0 0 .15.298.866.866 0 0 0 .275.219 1.02 1.02 0 0 0 .724.071c.08 0 .215-.133.206-.196-.01-.062-.108-.376-.189-.392ZM6.619 42.093a.271.271 0 0 0-.144-.07c-.072.062-.17.14-.17.21a4.28 4.28 0 0 0 0 .785c0 .14.134.164.242.078.219-.15.495-.22.772-.196-.036-.408-.458-.549-.7-.807ZM38.082.259a.296.296 0 0 0-.074.12.281.281 0 0 0 .055.262.334.334 0 0 0 .118.088c.224.07.79-.259.79-.439 0 0-.063-.086-.108-.094-.27-.07-.547-.141-.78.063ZM51.409.956c.029.043.073.076.125.094.07.006.138.006.207 0 .215.013.43.013.646 0 .108 0 .197-.086.296-.133-.09-.055-.161-.157-.251-.165a7.902 7.902 0 0 0-.898 0c-.053.024-.125.141-.125.204ZM10.918 44.843a.294.294 0 0 0-.12.018.261.261 0 0 0-.097.064.219.219 0 0 0-.054.095.2.2 0 0 0 .001.106c0 .172.108.25.296.266.054.006.108 0 .158-.017a.326.326 0 0 0 .13-.08.27.27 0 0 0 .069-.125.248.248 0 0 0-.007-.138.254.254 0 0 0-.053-.094.297.297 0 0 0-.09-.07.335.335 0 0 0-.233-.025ZM6.825 8.613c0-.055.081-.196.054-.212a.673.673 0 0 0-.296-.062.312.312 0 0 0-.12.024.275.275 0 0 0-.097.068.231.231 0 0 0-.053.097.213.213 0 0 0 0 .108l.126.251.144-.078c.09-.057.17-.123.242-.196ZM5.64 7.524a.795.795 0 0 0 0 .14.234.234 0 0 0 .006.106c.01.034.027.067.051.095a.295.295 0 0 0 .09.07c.035.019.074.03.114.035.27.055.395-.07.413-.29a1.883 1.883 0 0 1-.386-.188c-.18-.086-.242-.094-.287.032ZM149.712 18.637h.152a.348.348 0 0 0 .236-.047.288.288 0 0 0 .083-.08.243.243 0 0 0 .04-.1c.054-.228-.072-.354-.332-.37 0 .08-.072.15-.108.236-.035.086-.323.212-.071.36ZM146.535 10.462a.968.968 0 0 0 .125-.258c.054-.18-.08-.274-.26-.306-.179-.031-.404.063-.413.298l.404.188.144.078ZM3.514 18.488c0 .062.099.164.161.172a.357.357 0 0 0 .303-.033.285.285 0 0 0 .1-.106.244.244 0 0 0 .028-.135H3.63s-.125.094-.116.102ZM139.634 5.243a.594.594 0 0 0-.126.086c.139.052.283.094.431.126 0 0 .081-.11.116-.165-.125-.18-.278-.094-.421-.047ZM11.25 29.036c.098 0 .269 0 .296-.078.098-.22-.117-.188-.252-.204-.134-.016-.206 0-.305 0a.236.236 0 0 0 .064.188.31.31 0 0 0 .196.094ZM4.438 33.3c-.139-.055-.283-.1-.43-.134 0 0-.09.118-.135.18l.287.095.278-.142ZM97.68 42.587h.043s-.043-.017-.043 0ZM97.087 42.68c0 .071.099.165.162.18a.366.366 0 0 0 .298-.037.295.295 0 0 0 .1-.104.252.252 0 0 0 .032-.133h-.502a.287.287 0 0 0-.09.095ZM27.125 45.282l-.189-.117c-.188.117-.125.25-.063.384.028.04.06.077.1.11.062-.122.113-.248.152-.377ZM19.506 1.693c.251 0 .413-.055.44-.282a4.771 4.771 0 0 0-.476 0s-.126.078-.117.094c.01.015.09.18.153.188ZM40.254.674c.099.055.188 0 .126-.102-.063-.102-.144-.07-.234-.094-.09-.023.045.165.108.196ZM20.098 1.168c-.063 0-.08.125-.108.203-.027.079.198-.039.234-.094.036-.054-.036-.164-.126-.11Z" fill="#980145" style="mix-blend-mode:multiply"/><path d="M19.998 1.371h-.044s.044.018.044 0ZM.4 10.745l.054-.087-.1-.101-.107.086.153.102ZM151.138 18.01c.126-.055.153-.126.063-.18-.089-.056-.071 0-.107 0-.036 0-.054.07-.045.093.009.024.081.094.089.087ZM5.434 21.105c.063 0 .081-.125.108-.196.027-.07-.188 0-.233.094-.045.094.027.165.125.102ZM2.455 33.542s-.054.063-.045.087c.018.04.05.076.09.102.125-.055.143-.126.063-.189-.081-.062-.072 0-.108 0ZM144.901 38.637l.216.062v-.125s-.081-.047-.108-.047a.532.532 0 0 0-.108.11ZM12.237 44.843s-.081.047-.117.079l.162.102.053-.094s-.062-.087-.098-.087ZM8.09 36.905v.344h.395a.333.333 0 0 0-.118-.241.434.434 0 0 0-.276-.103Z" fill="#980145" style="mix-blend-mode:multiply"/></g><g clip-path="url(#a)" fill="#fff"><path d="M57.08 22.145c-3.196 0-5.795 2.651-5.795 5.928 0 3.276 2.599 5.927 5.796 5.927 3.196 0 5.795-2.65 5.795-5.927 0-3.277-2.617-5.928-5.795-5.928Zm0 10.732c-2.224 0-3.551-1.785-3.551-4.786 0-3 1.327-4.804 3.552-4.804 2.224 0 3.533 1.785 3.533 4.804-.019 2.982-1.328 4.786-3.533 4.786ZM63.362 23.434h4.244v10.419h2.13V23.434h4.245v-1.123H63.362v1.123ZM78.3 22.311h-2.15v11.542h2.15V22.31ZM89.834 30.613c-.73 1.933-2.43 2.227-3.384 2.227-2.225 0-3.57-1.785-3.57-4.767s1.327-4.768 3.57-4.768c1.608 0 2.823.829 3.346 2.246l.225.57 1.047-.515-.169-.442c-.71-1.914-2.355-3.019-4.524-3.019-3.215 0-5.72 2.614-5.72 5.946 0 3.369 2.467 5.909 5.72 5.909 2.169 0 3.833-1.086 4.562-2.982l.168-.442-1.047-.515-.224.552ZM113.638 31.754l-.617-1.748a2.962 2.962 0 0 0-1.327-1.528c1.121-.479 2.093-1.38 2.093-2.835 0-2.08-1.738-3.332-4.636-3.332h-4.374v11.542h2.149v-4.915h1.87c1.365 0 1.813.534 2.187 1.583l.598 1.675c.154.508.381.991.673 1.436l.169.22h2.897l-1.028-.92a3.136 3.136 0 0 1-.654-1.178Zm-6.712-8.32h2.076c1.813 0 2.579.663 2.579 2.227 0 1.491-.785 2.154-2.561 2.154h-2.094v-4.381ZM119.054 22.311h-2.15v11.542h2.15V22.31ZM127.205 22.145c-3.197 0-5.796 2.651-5.796 5.928 0 3.276 2.599 5.927 5.796 5.927 3.196 0 5.795-2.65 5.795-5.927 0-3.277-2.617-5.928-5.795-5.928Zm0 1.142c2.206 0 3.533 1.785 3.533 4.804s-1.327 4.786-3.533 4.786-3.552-1.785-3.552-4.786c0-3 1.327-4.804 3.552-4.804ZM28.795 22.145C25.6 22.145 23 24.796 23 28.073 23 31.349 25.599 34 28.795 34c3.197 0 5.796-2.65 5.796-5.927 0-3.277-2.599-5.928-5.796-5.928Zm0 10.732c-2.224 0-3.552-1.785-3.552-4.786 0-3 1.328-4.804 3.552-4.804 2.225 0 3.534 1.785 3.534 4.804 0 2.982-1.328 4.786-3.534 4.786ZM46.724 26.84c1.159-.59 2-1.602 2-2.946 0-2.32-1.87-3.663-5.122-3.663H37.47v13.732h6.636c3.197 0 5.179-1.49 5.179-3.884 0-1.601-1.122-2.687-2.561-3.24Zm-3.066-.534h-3.814v-4.934h3.608c2.038 0 2.898.755 2.898 2.522-.019 1.694-.804 2.412-2.692 2.412Zm-3.814 6.516v-5.375h3.795c1.197 0 3.215.35 3.215 2.669 0 1.896-.878 2.706-2.916 2.706h-4.094ZM98.845 20.47h-1.253l-5.907 13.383h1.252l1.739-3.921h4.243l1.814 3.92h2.281l-5.141-11.154.972-2.228ZM95.18 28.81l1.57-3.571 1.646 3.571H95.18ZM40.541 14.718a2.56 2.56 0 0 1-.934-.92 2.5 2.5 0 0 1 0-2.535c.224-.382.547-.7.934-.92a2.613 2.613 0 0 1 2.582 0 2.512 2.512 0 0 1 .935 3.45 2.557 2.557 0 0 1-.935.92 2.601 2.601 0 0 1-2.582 0v.005Zm1.8-1.316c.155-.09.283-.217.374-.368a.995.995 0 0 0-.373-1.377 1.003 1.003 0 0 0-.518-.136 1.031 1.031 0 0 0-.886.504.99.99 0 0 0 0 1.009 1.032 1.032 0 0 0 1.398.368h.006ZM47.109 10.098h3.094v1.52h-1.55v.156h1.215v1.521h-1.215v1.671h-1.544v-4.868ZM56.202 13.448v1.518h-2.604a.636.636 0 0 1-.483-.215.755.755 0 0 1-.187-.526v-4.133h3.093v1.519h-1.55v.17h1.142v1.529h-1.142v.06c0 .058.037.087.11.087l1.62-.01ZM58.918 10.092h2.545c.264-.009.524.061.747.2.201.127.362.307.464.52a1.587 1.587 0 0 1-.019 1.408 1.524 1.524 0 0 1-.463.552l.327.668h.6v1.526h-.705a1.38 1.38 0 0 1-.724-.203 1.351 1.351 0 0 1-.504-.551l-.574-1.167h-.142v1.921h-1.552v-4.874Zm2.068 1.817a.252.252 0 0 0 .217-.103.413.413 0 0 0 .075-.243.407.407 0 0 0-.075-.247.25.25 0 0 0-.217-.1h-.524v.693h.524ZM69.116 13.448v1.518h-2.604a.636.636 0 0 1-.482-.215.755.755 0 0 1-.197-.526v-4.133h3.093v1.519h-1.55v.17h1.142v1.529h-1.142v.06c0 .058.037.087.112.087l1.628-.01ZM72.696 14.615a2.629 2.629 0 0 1-.804-.92 2.414 2.414 0 0 1-.308-1.173 2.533 2.533 0 0 1 .297-1.21c.183-.357.453-.663.787-.89.304-.214.667-.33 1.04-.332h1.682v1.52h-1.16c-.121.003-.24.028-.352.072a.79.79 0 0 0-.342.275.918.918 0 0 0-.152.565.91.91 0 0 0 .152.552.797.797 0 0 0 .346.282.92.92 0 0 0 .347.079h1.161v1.531h-1.682a1.746 1.746 0 0 1-1.012-.351ZM79.643 14.966H78.1v-4.868h1.544v4.868ZM87.983 13.44v1.526h-.823a.934.934 0 0 1-.83-.49 1.017 1.017 0 0 1-.125-.5V12.82l-.507.797h-1.024l-.538-.852v1.211c.002.175-.041.347-.126.5a.934.934 0 0 1-.83.49h-.822v-1.52h.235v-3.348h1.683l.908 1.44.883-1.44h1.682v3.342h.234ZM93.982 13.448v1.518h-2.604a.634.634 0 0 1-.482-.215.754.754 0 0 1-.187-.526v-4.133H93.8v1.519h-1.55v.17h1.142v1.529h-1.142v.06c0 .058.037.087.11.087l1.621-.01ZM102.26 11.618h-.228v3.348h-1.58l-1.914-2.505v1.515a.973.973 0 0 1-.471.86.945.945 0 0 1-.486.13h-.82v-1.52H97v-3.348h1.665l1.829 2.381v-1.391a1.01 1.01 0 0 1 .127-.5.932.932 0 0 1 .83-.49h.82l-.011 1.52ZM109.076 11.61h-1.209v3.356h-1.544v-3.35h-1.346v-1.518h4.099v1.513ZM112.89 14.718a2.564 2.564 0 0 1-.935-.92 2.503 2.503 0 0 1 .935-3.456 2.609 2.609 0 0 1 2.58 0c.388.221.71.539.935.92a2.514 2.514 0 0 1 0 2.53 2.564 2.564 0 0 1-.935.92 2.6 2.6 0 0 1-2.58 0v.006Zm1.8-1.316c.155-.09.284-.216.374-.368a.99.99 0 0 0 .005-1.007 1.022 1.022 0 0 0-.887-.506c-.181 0-.359.046-.516.136a1.04 1.04 0 0 0-.374.368.976.976 0 0 0 0 1.009 1.034 1.034 0 0 0 1.4.368h-.002Z"/></g><defs><clipPath id="a"><path fill="#fff" transform="translate(23 10)" d="M0 0h110v24H0z"/></clipPath></defs></svg>