<?xml version="1.0" encoding="UTF-8"?><svg id="Camada_2" xmlns="http://www.w3.org/2000/svg" viewBox="0 0 301.68 184.87"><defs><style>.cls-1{fill:#fc0177;}.cls-2{fill:#016ff5;}.cls-3{fill:#f4b102;}</style></defs><g id="Camada_1-2"><g><path d="M277.52,173.09c-3.52,10.19-10.06,12.76-18.55,5.53-5.03-4.28-6.6,.72-8.57,2.66-4.19,4.13-7.49,5.04-12.43,.93-5.41-4.51-3.65-8.13-.07-12.25,1.33-1.53,2.64-3.1,3.75-4.79,1.7-2.58,5.27-4.74,3.63-8.36-1.77-3.92-5.74-2.46-8.66-1.88-7.69,1.53-12.99-.69-19.41-5.91-33.34-27.16-70.49-32.13-110.46-16.04-5.14,2.07-9,5.77-12.17,9.84-7.76,9.96-16.98,14.59-29.68,10.95-2.93-.84-7.01-2.12-9.01,1.14-2.05,3.33,1.6,5.83,3.21,8.45,1.91,3.1,4.21,5.97,6.19,9.03,2.72,4.21-.25,6.71-2.93,9.3-2.76,2.67-5.52,3.26-8.41,.22-3.43-3.6-5.82-6.59-11.3-1.01-3.01,3.07-11.19,1.66-13.91-3.12-4.4-7.74-7.45-4.25-10.2,.25-5.22,8.53-10.29,5.33-15.64,.5-7.11-6.41,.75-8.96,3.56-12.3,4.43-5.28,12.71-8.94-.45-14.85-5.31-2.39-7.74-10.92-2.1-18.11,13.76-17.54,26.15-36.13,43.5-50.67,12.61-10.57,19.18-26.06,29.6-38.44C93.91,24.08,112.87,7.05,139.74,1.1c12.35-2.73,23.86-.12,34.31,4.89,21.25,10.2,40.51,22.78,55.02,42.74,21.16,29.13,40.94,59.61,67.72,84.21,6.73,6.18,6.37,11.78-.26,15.46-11.91,6.61-7.39,12.52-.84,19.1,5.53,5.55,7.16,10.49-.99,15.35-5.7,3.4-8,.02-10.49-4.1-1.46-2.42-3.18-4.75-6.69-5.67ZM25.73,135.84c16.07-2.31,30.52-2.4,44.71,1.7,4.46,1.29,7.87-.58,10.58-4.11,11.98-15.58,29.45-20.47,47.44-24.68,28.19-6.59,55.6-1.58,77.56,14.97,22.14,16.68,43.79,17.94,68.39,12.22-6.88-21.2-8.06-21.99-28.87-19.41-3.62,.45-7.33,.54-10.87,1.34-12.01,2.73-16.41-3.82-17.29-14.2-1.14-13.33-1.83-26.7-2.76-40.05-.75-10.81-5.87-18.57-14.71-25.17-14.27-10.65-30.48-14.92-47.5-16.98-41.27-4.99-64.69,18.19-63.12,59.09,1.16,30.22,7.28,36.3-32.58,34.06-16.5-.93-24.64,5.5-30.99,21.22Zm207.4-57.41c-2.8,4.87-2.51,10.13-2.96,15.17-.31,3.45-1.03,8.01,4.04,8.54,3.85,.4,8.85,.62,11.55-1.43,4.14-3.15-1.1-6.12-2.64-8.81-2.73-4.76-4.94-10.07-9.99-13.47Zm-163.24-1.75c-7.23,7.15-12.67,13.21-16.72,20.73,17.26,3.81,17.82,3.18,16.72-20.73Z"/><path class="cls-3" d="M25.73,135.84c6.35-15.72,14.48-22.15,30.99-21.22,39.86,2.24,33.74-3.84,32.58-34.06-1.57-40.9,21.85-64.08,63.12-59.09,17.02,2.06,33.22,6.32,47.5,16.98,8.85,6.6,13.97,14.36,14.71,25.17,.92,13.35,1.62,26.72,2.76,40.05,.88,10.38,5.28,16.93,17.29,14.2,3.54-.81,7.24-.89,10.87-1.34,20.8-2.57,21.99-1.79,28.87,19.41-24.6,5.72-46.25,4.47-68.39-12.22-21.96-16.54-49.37-21.55-77.56-14.97-17.99,4.2-35.46,9.1-47.44,24.68-2.71,3.53-6.13,5.4-10.58,4.11-14.19-4.1-28.64-4.01-44.71-1.7ZM182.73,60.98c1.56-7.34-4.27-6.87-9.2-6.53-7.73,.54-12.21-1.93-13.28-10.25-.51-3.94-.13-9.8-6.61-9.95-5.64-.13-10.74,1.72-12.22,7.87-2.81,11.68-11.59,12.76-20.47,10.34-5.76-1.57-6.83,.22-8.74,4.49-3.83,8.56-1.15,13.72,7.27,16.85,7.25,2.69,10.27,6.86,5.74,14.67-2.42,4.17-5.8,8.75,.46,13.79,6.77,5.44,11.22,2.28,15.51-2.42,6.38-6.98,11.2-5.43,16.35,1.53,2.81,3.8,5.3,8.77,12.3,3.72,6.2-4.48,8.37-9.81,4.6-15.03-6.69-9.28-2.92-14.86,4.79-19.57,3.75-2.3,5.16-4.67,3.5-9.52Z"/><path class="cls-2" d="M233.13,78.43c5.05,3.4,7.27,8.7,9.99,13.47,1.54,2.69,6.78,5.66,2.64,8.81-2.7,2.05-7.7,1.83-11.55,1.43-5.07-.52-4.35-5.08-4.04-8.54,.45-5.04,.16-10.3,2.96-15.17Z"/><path class="cls-2" d="M69.9,76.68c1.1,23.91,.54,24.54-16.72,20.73,4.05-7.52,9.49-13.58,16.72-20.73Z"/><path d="M182.73,60.98c1.66,4.85,.25,7.22-3.5,9.52-7.7,4.71-11.48,10.29-4.79,19.57,3.77,5.22,1.6,10.55-4.6,15.03-7,5.05-9.48,.09-12.3-3.72-5.15-6.95-9.97-8.51-16.35-1.53-4.29,4.7-8.75,7.86-15.51,2.42-6.26-5.04-2.88-9.62-.46-13.79,4.53-7.81,1.51-11.98-5.74-14.67-8.41-3.13-11.1-8.29-7.27-16.85,1.91-4.27,2.98-6.06,8.74-4.49,8.88,2.42,17.66,1.34,20.47-10.34,1.48-6.15,6.58-8,12.22-7.87,6.48,.15,6.11,6.01,6.61,9.95,1.07,8.32,5.55,10.78,13.28,10.25,4.93-.34,10.76-.82,9.2,6.53Zm-31.59,18.81c5.21,1.03,7.84-1.91,7.4-7.36-.56-7.02-6.35-7.66-11.47-7.8-4.47-.12-7.81,2.36-6.69,7.6,1.13,5.31,2.65,10.59,10.76,7.55Z"/><path class="cls-1" d="M151.14,79.78c-8.11,3.04-9.63-2.24-10.76-7.55-1.12-5.25,2.21-7.73,6.69-7.6,5.12,.14,10.91,.78,11.47,7.8,.44,5.44-2.19,8.38-7.4,7.36Z"/></g></g></svg>