<svg xmlns="http://www.w3.org/2000/svg" fill="none" viewBox="0 0 342 241"><g filter="url(#a)"><path fill="#000" d="M248.295 158.797c-3.047 8.819-8.71 11.043-16.061 4.786-4.355-3.704-5.715.623-7.421 2.302-3.627 3.574-6.485 4.362-10.762.805-4.684-3.903-3.16-7.036-.061-10.602 1.152-1.324 2.286-2.683 3.247-4.145 1.472-2.233 4.563-4.103 3.143-7.236-1.532-3.392-4.97-2.129-7.498-1.627-6.658 1.325-11.247-.597-16.806-5.114-28.868-23.506-61.034-27.807-95.642-13.882-4.45 1.791-7.793 4.993-10.538 8.516-6.719 8.62-14.702 12.627-25.698 9.476-2.537-.727-6.07-1.834-7.802.987-1.775 2.882 1.386 5.046 2.78 7.313 1.653 2.683 3.645 5.167 5.36 7.815 2.354 3.644-.217 5.807-2.538 8.049-2.39 2.311-4.78 2.821-7.281.19-2.97-3.115-5.04-5.703-9.785-.874-2.606 2.657-9.689 1.437-12.044-2.7-3.81-6.699-6.45-3.678-8.831.216-4.52 7.383-8.91 4.613-13.542.433-6.157-5.548.65-7.754 3.082-10.645 3.836-4.57 11.005-7.737-.39-12.852-4.597-2.068-6.701-9.451-1.818-15.673 11.914-15.18 22.642-31.269 37.665-43.852 10.918-9.148 16.607-22.554 25.63-33.268 14.632-17.379 31.049-32.117 54.314-37.267 10.693-2.362 20.659-.103 29.708 4.232 18.399 8.828 35.075 19.715 47.639 36.99 18.321 25.21 35.448 51.589 58.635 72.879 5.828 5.349 5.516 10.195-.225 13.38-10.312 5.721-6.398 10.835-.727 16.53 4.788 4.803 6.2 9.079-.857 13.285-4.936 2.942-6.927.017-9.083-3.549-1.264-2.094-2.753-4.11-5.793-4.907v.009ZM30.282 126.559c13.914-1.999 26.426-2.077 38.712 1.471 3.862 1.117 6.815-.502 9.161-3.557 10.373-13.483 25.5-17.715 41.076-21.359 24.409-5.703 48.142-1.367 67.156 12.956 19.17 14.435 37.916 15.526 59.216 10.576-5.957-18.348-6.979-19.032-24.998-16.799-3.134.39-6.346.467-9.411 1.16-10.399 2.363-14.209-3.306-14.971-12.29-.987-11.536-1.585-23.107-2.39-34.66-.649-9.356-5.082-16.072-12.736-21.784-12.356-9.217-26.392-12.913-41.129-14.695-35.733-4.319-56.012 15.742-54.652 51.139 1.004 26.154 6.303 31.416-28.21 29.477-14.286-.805-21.334 4.76-26.833 18.365h.01ZM209.86 76.874c-2.424 4.214-2.173 8.767-2.563 13.128-.268 2.986-.892 6.933 3.498 7.391 3.334.347 7.663.537 10.001-1.237 3.585-2.726-.953-5.297-2.286-7.625-2.364-4.12-4.277-8.715-8.65-11.657ZM68.518 75.359c-6.26 6.188-10.97 11.433-14.477 17.94 14.945 3.298 15.43 2.753 14.477-17.94Z"/><path fill="#F4B102" d="M30.282 126.559c5.498-13.605 12.538-19.17 26.833-18.365 34.513 1.939 29.214-3.323 28.21-29.477-1.36-35.397 18.918-55.458 54.652-51.14 14.737 1.783 28.764 5.47 41.128 14.696 7.663 5.712 12.096 12.428 12.737 21.783.796 11.554 1.403 23.125 2.39 34.662.762 8.983 4.571 14.652 14.97 12.289 3.065-.701 6.269-.77 9.412-1.16 18.01-2.224 19.04-1.549 24.997 16.799-21.3 4.95-40.045 3.868-59.215-10.576-19.015-14.315-42.748-18.65-67.156-12.956-15.577 3.635-30.703 7.876-41.076 21.359-2.347 3.055-5.308 4.674-9.16 3.557-12.287-3.548-24.799-3.47-38.713-1.471h-.009Zm135.939-64.787c1.351-6.353-3.697-5.946-7.966-5.652-6.693.467-10.572-1.67-11.498-8.87-.442-3.41-.113-8.482-5.724-8.612-4.883-.112-9.299 1.489-10.58 6.811-2.433 10.108-10.036 11.043-17.724 8.949-4.988-1.359-5.914.19-7.568 3.886-3.316 7.408-.996 11.874 6.295 14.583 6.277 2.328 8.892 5.936 4.97 12.696-2.095 3.609-5.022 7.572.398 11.934 5.862 4.708 9.715 1.973 13.43-2.094 5.524-6.041 9.697-4.7 14.156 1.324 2.433 3.289 4.589 7.59 10.65 3.22 5.369-3.878 7.248-8.49 3.983-13.008-5.792-8.032-2.528-12.86 4.148-16.937 3.247-1.99 4.467-4.042 3.03-8.24v.01Z"/><path fill="#016FF5" d="M209.86 76.874c4.373 2.942 6.295 7.529 8.65 11.657 1.333 2.328 5.871 4.899 2.286 7.625-2.338 1.774-6.667 1.584-10.001 1.237-4.39-.45-3.766-4.396-3.498-7.39.39-4.362.139-8.915 2.563-13.13ZM68.527 75.359c.952 20.693.467 21.238-14.477 17.94 3.506-6.507 8.217-11.752 14.477-17.94Z"/><path fill="#000" d="M166.221 61.772c1.437 4.197.217 6.248-3.03 8.238-6.667 4.077-9.94 8.906-4.148 16.937 3.264 4.518 1.386 9.13-3.983 13.008-6.061 4.371-8.208.078-10.65-3.22-4.459-6.014-8.632-7.364-14.156-1.324-3.715 4.068-7.577 6.803-13.43 2.095-5.42-4.362-2.494-8.326-.398-11.935 3.922-6.759 1.307-10.368-4.97-12.696-7.282-2.709-9.611-7.174-6.295-14.583 1.654-3.695 2.58-5.244 7.568-3.886 7.688 2.095 15.291 1.16 17.724-8.948 1.281-5.323 5.697-6.924 10.58-6.811 5.611.13 5.291 5.201 5.724 8.61.926 7.201 4.805 9.33 11.498 8.872 4.269-.294 9.317-.71 7.966 5.651v-.008ZM138.869 78.05c4.511.891 6.788-1.654 6.407-6.37-.485-6.076-5.498-6.63-9.931-6.75-3.871-.105-6.763 2.042-5.793 6.577.979 4.595 2.295 9.165 9.317 6.534v.008Z"/><path fill="#FC0177" d="M138.869 78.042c-7.022 2.63-8.338-1.939-9.317-6.534-.97-4.544 1.914-6.69 5.793-6.578 4.433.121 9.446.675 9.931 6.75.381 4.709-1.896 7.253-6.407 6.37v-.008Z"/></g><defs><filter id="a" width="341.203" height="240" x=".005" y=".995" color-interpolation-filters="sRGB" filterUnits="userSpaceOnUse"><feFlood flood-opacity="0" result="BackgroundImageFix"/><feColorMatrix in="SourceAlpha" result="hardAlpha" values="0 0 0 0 0 0 0 0 0 0 0 0 0 0 0 0 0 0 127 0"/><feOffset dx="32" dy="32"/><feGaussianBlur stdDeviation="20"/><feComposite in2="hardAlpha" operator="out"/><feColorMatrix values="0 0 0 0 0 0 0 0 0 0 0 0 0 0 0 0 0 0 0.25 0"/><feBlend in2="BackgroundImageFix" result="effect1_dropShadow_303_187"/><feBlend in="SourceGraphic" in2="effect1_dropShadow_303_187" result="shape"/></filter></defs></svg>