<svg xmlns="http://www.w3.org/2000/svg" fill="none" viewBox="0 0 48 48"><path fill="#000" d="M32.169 1.138c.883.173 1.304.729 1.528 1.578 1.67 6.364 4.093 12.486 6.322 18.666.917 2.539 1.4 5.142 1.918 7.758.275 1.389-.368 2.153-1.554 2.98-7.196 5.027-15.542 8.322-22.096 14.317-1.232 1.126-2.757.508-3.429-1.365-1.477-4.113-2.985-8.22-4.26-12.395-1.273-4.174-2.24-8.439-3.421-12.643-.457-1.624-.042-2.696 1.395-3.63 4.85-3.155 9.61-6.434 14.265-9.871 2.466-1.822 5.477-2.885 7.685-5.116.474-.479 1.042-.506 1.648-.28l-.002.001Zm2.664 31.015c-1.833.135-3.666.28-5.5.397-.585.037-.963.356-1.333.743-1.54 1.61-3.11 3.192-4.311 5.085-.2.315-.681.573-.269.947.303.275.75.15 1.102-.093 3.433-2.367 6.867-4.735 10.3-7.1l.211-.064c-.035-.008-.08-.035-.1-.023-.04.024-.067.071-.1.11v-.002ZM28.13 6.67l-.336-.303c-.625.337-1.251.67-1.873 1.014-5.498 3.026-10.056 7.417-15.573 10.413-.975.53-.563.933.025 1.42 1.872 1.558 3.705 3.162 5.209 5.08.73.935 1.196.742 1.676-.205 2.314-4.564 5.438-8.62 8.279-12.854.974-1.452 1.735-3.04 2.594-4.566l-.001.001Zm4.706 1.499c-.342.616-.487.768-.51.935-.893 6.55-1.775 13.103-2.663 19.653-.147 1.086.56.962 1.245.88 2.289-.274 4.573-.582 6.866-.805 1.032-.1 1.41-.448 1.084-1.493-.388-1.241-.68-2.511-.988-3.776-1.243-5.118-2.895-10.1-5.034-15.396v.002ZM29.89 8.7c-.316.323-.464.427-.549.567-3.308 5.514-6.605 11.035-9.923 16.543-.522.865-.07 1.107.67 1.355 1.808.607 3.612 1.228 5.385 1.922 1.026.401 1.43.09 1.619-.917.39-2.11.926-4.194 1.27-6.309.696-4.28 1.433-8.558 1.528-13.16ZM17.973 41.49c3.354-2.474 4.423-6.316 7.17-8.864.59-.547-.006-.861-.5-1.12-1.755-.916-3.61-1.55-5.508-2.11-1.019-.3-1.308.058-1.338.965-.122 3.618-.204 7.235.176 11.127v.002Zm-3.251-6.885c1.336-6.02-.038-9.611-4.069-10.897.835 3.87 2.61 7.324 4.069 10.897Z"/><path fill="#5BC37A" d="M28.129 6.67c-.859 1.526-1.62 3.114-2.594 4.566-2.842 4.235-5.965 8.292-8.28 12.855-.479.947-.944 1.14-1.676.205-1.504-1.92-3.337-3.524-5.209-5.08-.586-.488-1-.89-.024-1.42 5.516-2.997 10.075-7.388 15.572-10.414.622-.343 1.25-.676 1.873-1.014l.337.304.001-.002Z"/><path fill="#016FF5" d="M32.835 8.169c2.14 5.295 3.79 10.277 5.034 15.396.307 1.264.6 2.534.988 3.776.326 1.046-.05 1.392-1.084 1.492-2.293.223-4.577.532-6.866.806-.685.082-1.393.205-1.245-.88.887-6.552 1.77-13.104 2.663-19.653.023-.168.168-.32.51-.936v-.001Z"/><path fill="#FC4D01" d="M29.89 8.7c-.095 4.603-.832 8.883-1.528 13.161-.345 2.116-.88 4.2-1.27 6.309-.187 1.01-.593 1.32-1.62.917-1.772-.695-3.576-1.315-5.383-1.922-.742-.25-1.193-.49-.671-1.355 3.318-5.508 6.615-11.03 9.924-16.543.084-.14.23-.244.548-.567Z"/><path fill="#F4B102" d="M17.973 41.49c-.38-3.893-.298-7.51-.176-11.127.03-.909.32-1.267 1.338-.965 1.897.56 3.753 1.193 5.507 2.109.496.258 1.09.574.5 1.12-2.746 2.548-3.815 6.39-7.17 8.864v-.001Z"/><path fill="#5BC37A" d="m34.822 32.13-10.299 7.102c-.352.242-.799.37-1.102.093-.412-.374.07-.632.269-.947 1.201-1.892 2.771-3.475 4.311-5.085.37-.389.748-.706 1.333-.743 1.835-.116 3.668-.262 5.5-.397l-.01-.023h-.002Z"/><path fill="#FC0177" d="M14.722 34.605c-1.458-3.573-3.234-7.026-4.069-10.897 4.033 1.286 5.405 4.877 4.069 10.897Z"/><path fill="#5BC37A" d="M34.833 32.153c.032-.038.06-.085.1-.11.021-.012.066.015.1.023l-.211.064.011.023Z"/></svg>