<svg xmlns="http://www.w3.org/2000/svg" fill="none" viewBox="0 0 208 60"><path fill="#fff" d="M86.274 32.15 101.05 18.13h-9.439L75.455 33.742V5.474h-6.997v50.772h6.997V42.25l5.792-5.417 12.194 19.413h8.167L86.274 32.15ZM150.786 18.129l-5.355 17.087-.011.037c-1.113 3.635-2.26 7.372-3.313 11.087-1.102-3.735-2.252-7.483-3.368-11.127l-5.28-17.084h-6.945l-5.277 17.079a309.876 309.876 0 0 0-3.328 11.226c-1.161-4.03-2.214-7.594-3.367-11.224l-5.351-17.081h-7.504l12.707 38.117h6.931l5.494-17.509c.97-3.068 2.006-6.473 3.153-10.355.928 3.27 1.973 6.743 3.114 10.355l5.568 17.509h6.931l12.707-38.117H150.786ZM206.786 18.066h-6.837v38.217h6.837V18.066ZM203.368 14.118a4.324 4.324 0 1 0 0-8.648 4.324 4.324 0 0 0 0 8.648ZM185.985 18.727v4.34c-2.895-3.105-6.912-4.744-11.583-4.744-9.583 0-16.497 8.607-16.497 19.224s6.914 19.541 16.497 19.541c4.671 0 8.688-1.694 11.583-4.867v4.059h6.837V18.727h-6.837ZM175.749 50.58c-6.735 0-10.882-5.38-10.882-13.088 0-7.11 4.46-12.664 10.882-12.664 4.204 0 8.069 1.888 10.236 5.514v14.446c-2.167 3.748-6.032 5.795-10.236 5.795v-.003ZM40.148 4a12.11 12.11 0 0 0-8.264 3.244C29.462 2.924 24.84 0 19.534 0 11.714 0 5.378 6.336 5.378 14.155c0 7.82 6.336 14.156 14.156 14.156 4.326 0 8.195-1.945 10.793-5.002a12.135 12.135 0 0 0 9.823 5.002c6.712 0 12.155-5.443 12.155-12.155S46.862 4.002 40.15 4.002L40.148 4ZM19.534 22.617a8.462 8.462 0 0 1-8.463-8.463 8.462 8.462 0 0 1 8.463-8.462 8.462 8.462 0 0 1 8.462 8.462 8.462 8.462 0 0 1-8.462 8.463Zm20.616 0a6.46 6.46 0 0 1-6.461-6.462 6.46 6.46 0 0 1 6.461-6.461 6.46 6.46 0 0 1 6.462 6.461 6.46 6.46 0 0 1-6.462 6.462Z"/><path fill="#fff" fill-rule="evenodd" d="M41.841 30.77H26.456c-4.665 0-8.616 3.054-9.965 7.273l-9.129-4.62A5.08 5.08 0 0 0-.01 37.955v14.9a5.074 5.074 0 0 0 7.352 4.537l9.169-4.596C17.88 56.977 21.814 60 26.453 60h15.385c5.779 0 10.46-4.685 10.46-10.46v-8.31c0-5.778-4.684-10.46-10.46-10.46h.003ZM7.368 51.373a1.385 1.385 0 0 1-1.99-1.244V40.76a1.386 1.386 0 0 1 2.004-1.213l8.61 4.324v3.103L7.392 51.36l-.023.012Zm39.551-1.984v.085a5.23 5.23 0 0 1-5.232 5.143H26.525a5.23 5.23 0 0 1-5.144-5.231v-8.087a5.23 5.23 0 0 1 5.232-5.144h15.163a5.23 5.23 0 0 1 5.143 5.232v8.002Z" clip-rule="evenodd"/></svg>