<svg xmlns="http://www.w3.org/2000/svg" fill="none" viewBox="0 0 29 32"><path fill="#fff" d="M21.599 2.133a6.46 6.46 0 0 0-4.407 1.73A7.549 7.549 0 0 0 3.056 7.55a7.549 7.549 0 0 0 13.305 4.883A6.483 6.483 0 1 0 21.6 2.135l-.001-.002Zm-10.994 9.93a4.513 4.513 0 1 1 0-9.027 4.513 4.513 0 0 1 0 9.027Zm10.995 0a3.445 3.445 0 1 1 0-6.891 3.445 3.445 0 0 1 0 6.89Z"/><path fill="#fff" fill-rule="evenodd" d="M22.502 16.41h-8.205a5.582 5.582 0 0 0-5.315 3.88l-4.868-2.464a2.709 2.709 0 0 0-3.932 2.417v7.947a2.706 2.706 0 0 0 3.921 2.42l4.89-2.452A5.582 5.582 0 0 0 14.295 32h8.206a5.58 5.58 0 0 0 5.579-5.579V21.99a5.58 5.58 0 0 0-5.58-5.58h.002ZM4.117 27.4a.739.739 0 0 1-1.062-.664V21.74a.74.74 0 0 1 1.07-.646l4.591 2.305v1.655l-4.587 2.34-.012.006Zm21.093-1.013a2.79 2.79 0 0 1-2.79 2.743h-8.087a2.79 2.79 0 0 1-2.743-2.79v-4.313a2.79 2.79 0 0 1 2.79-2.743h8.087a2.79 2.79 0 0 1 2.744 2.79v4.313Z" clip-rule="evenodd"/></svg>