<svg xmlns="http://www.w3.org/2000/svg" fill="none" viewBox="0 0 193 32"><path fill="#fff" d="M.038 22.714a31.143 31.143 0 0 1-.036-1.296c0-.036.036-.414.036-.45 0-.018-.036-.468-.036-.54 0-.072.072-.558.072-.612v-.018c0-.09-.036-.306-.036-.63 0-.09.036-.198.036-.288 0-.036-.036-.342-.036-.396 0-.018.036-.162.036-.18 0 0-.036-.018-.036-.144 0-.72.036-1.26.036-1.89 0-.144-.036-.288-.036-.432 0-.162.036-.306.036-.468 0-.036-.036-.198-.036-.324 0-.018.036-.216.036-.252 0-.99-.072-2.016-.072-3.042 0-.756-.072-.864.756-.864.54 0 1.08.054 1.62.054.252 0 .612-.036.666-.036.036 0 .27.054.288.054.036 0 .144-.054.288-.054.612 0 1.044.126 1.602.324.108.198.468.18.612.342.738.846.864 1.8.864 2.916 0 3.15-2.106 2.97-3.87 3.042-.234.018-.198.486-.198.882v4.59c-.216.018-1.206.072-1.404.072 0 0-.108.018-.27.018-.324 0-.846-.054-.918-.378Zm2.934-7.254.036.054c.162-.036.36-.072.522-.072.018 0 .036.018.054.036 0-.126.09-.09.18-.18.27-.216.396-.63.396-.972 0-1.17-.72-1.242-.972-1.242-.018 0-.54.036-.54.072v.576c-.054.054-.036.108-.036.144 0 .09-.036.864-.036.954 0 .216.09.414.108.63h.288Zm3.096-.774H6.05s-.018.036-.036.036c0 .018.018.018.018.018.018-.018.054-.018.054-.054h-.018ZM7.436 23.308c-.036-.018-.108-.036-.108-.09 0-.018.036-.108.036-.162 0-.252-.036-.576-.036-.756 0-.702.072-1.386.072-2.07 0-.072-.036-.144-.036-.198 0-.108.108-.036.108-.108 0-.072-.108-.09-.108-.18 0-.072.054-.09.054-.162h-.072c0-.126.18-.108.18-.252h-.09s-.036-.144-.036-.216c0-.072.144-.072.144-.18v-.432c-.018 0-.09-.072-.108-.108 0-.09.144-.162.144-.288 0-.054-.09-.144-.108-.162a.377.377 0 0 0 .072-.108c0-.054-.036-.126-.036-.126 0-.018.018-.054.072-.054-.018-.018-.018-.072-.018-.108 0-.072.018-.126.09-.144-.072 0-.072-.036-.072-.09s0-.09.036-.126a.264.264 0 0 0-.036-.072h-.018c0-.036.018-.072.09-.108 0-.072-.036-.09-.036-.144 0-.162.09-.306.09-.468h-.054c0-.162.18-.162.18-.324 0-.108-.108-.072-.108-.18 0-.252.162-.612.216-.882 0-.36.126-.198.126-.324h-.108c0-.036.054-.09.054-.108 0-.018-.054-.036-.054-.054l.018-.018v.018c.054 0 .432-1.26.648-1.71.18-.378.684-1.548 1.044-1.548.108 0 .18.09.252.09.018 0 .09-.072.09-.072.018 0 .108.036.108.036a.264.264 0 0 0 .072-.036h.504l.072.036c.054 0 .234-.018.414-.018.18 0 .342.018.414.018.522 0 1.17 1.998 1.17 1.962.036.108.144.198.18.324l.54 1.89c.396 2.304.396 3.024.396 4.374 0 .792.036 1.638.036 3.366-.036.108-.216.108-.288.108h-2.034c-.09 0-.252-.036-.252-.072 0-.414 0-.792-.072-1.224.018-.09.126-.108.216-.144-.198-.036-.216-.198-.216-.342v-.216c0-.054 0-.09-.036-.108l-.036.036c-.162 0-.72.036-1.188.036l-.036.036c0 .252.288 1.962-.432 1.962h-.324s-.054.036-.072.036c-.648 0-1.08-.036-1.71-.036Zm.288-.468a.039.039 0 0 0-.036.036c0 .018.018.036.036.036s.018-.018.018-.036 0-.036-.018-.036Zm4.482-.468a.039.039 0 0 0-.036.036c0 .018.018.036.036.036s.018-.018.018-.036 0-.036-.018-.036ZM8.804 22.3a.039.039 0 0 0-.036.036c0 .018.018.036.036.036s.018-.018.018-.036 0-.036-.018-.036Zm-.864-.18a.039.039 0 0 0-.036.036c0 .018.018.036.036.036s.018-.018.018-.036 0-.036-.018-.036Zm5.724-.072a.039.039 0 0 0-.036.036c0 .018.018.036.036.036s.018-.018.018-.036 0-.036-.018-.036Zm-1.962-.072a.039.039 0 0 0-.036.036c0 .018.018.036.036.036s.018-.018.018-.036 0-.036-.018-.036Zm-.288-.216a.039.039 0 0 0-.036.036c0 .018.018.036.036.036s.018-.018.018-.036 0-.036-.018-.036Zm.072-.198a.039.039 0 0 0-.036.036c0 .018.018.036.036.036s.018-.018.018-.036 0-.036-.018-.036Zm.846-.072a.039.039 0 0 0-.036.036c0 .018.018.036.036.036s.018-.018.018-.036 0-.036-.018-.036Zm-.09 0c0-.018-.018-.018-.036-.018v.036c.018 0 .018 0 .036-.018Zm-3.474-.144a.039.039 0 0 0-.036.036c0 .018.018.036.036.036s.018-.018.018-.036 0-.036-.018-.036Zm-1.26-.504a.039.039 0 0 0-.036.036c0 .018.018.036.036.036s.018-.018.018-.036 0-.036-.018-.036Zm.756-.036a.039.039 0 0 0-.036.036c0 .018.018.036.036.036s.018-.018.018-.036 0-.036-.018-.036Zm.99-.036a.039.039 0 0 0-.036.036c0 .018.018.036.036.036s.018-.018.018-.036 0-.036-.018-.036Zm-1.314-.18-.018-.018c-.018 0-.018.018-.018.018 0 .018 0 .018.018.018 0 0 .018 0 .018-.018Zm4.356 0s0-.018-.018-.018v.036c.018 0 .018 0 .018-.018Zm-.414-.072a.039.039 0 0 0-.036.036c0 .018.018.036.036.036s.018-.018.018-.036 0-.036-.018-.036Zm.81-.072c-.018 0-.018.018-.018.018 0 .018 0 .018.018.018s.018 0 .018-.018c0 0 0-.018-.018-.018Zm-.18-.036a.039.039 0 0 0-.036.036c0 .018.018.036.036.036s.018-.018.018-.036 0-.036-.018-.036Zm-2.898-.108a.039.039 0 0 0-.036.036c0 .018.018.036.036.036s.018-.018.018-.036 0-.036-.018-.036Zm-1.674-.108a.039.039 0 0 0-.036.036c0 .018.018.036.036.036s.018-.018.018-.036 0-.036-.018-.036Zm-.252-.036a.039.039 0 0 0-.036.036c0 .018.018.036.036.036s.018-.018.018-.036 0-.036-.018-.036Zm-.252-.072.036.036v-.036h-.036Zm.18-.036a.039.039 0 0 0-.036.036c0 .018.018.036.036.036s.018-.018.018-.036 0-.036-.018-.036Zm4.014-.072c-.018 0-.018.018-.018.018 0 .018 0 .018.018.018 0 0 .018 0 .018-.018l-.018-.018Zm-3.438-.036a.039.039 0 0 0-.036.036c0 .018.018.036.036.036s.018-.018.018-.036 0-.036-.018-.036Zm3.582 0c-.018 0-.036.018-.036.018 0 .018.018.018.036.018 0 0 .018 0 .018-.018l-.018-.018Zm-2.772-.108c-.018 0-.018.018-.018.036s0 .036.018.036.018-.018.018-.036 0-.036-.018-.036Zm.324-.252a.039.039 0 0 0-.036.036c0 .018.018.036.036.036s.018-.018.018-.036 0-.036-.018-.036Zm-1.278-.18a.039.039 0 0 0-.036.036c0 .018.018.036.036.036s.018-.018.018-.036 0-.036-.018-.036Zm-.396 0-.018-.018c-.018 0-.018.018-.018.018 0 .018 0 .018.018.018 0 0 .018 0 .018-.018Zm3.978-.036a.039.039 0 0 0-.036.036c0 .018.018.036.036.036s.018-.018.018-.036 0-.036-.018-.036Zm-1.26-.342v.324c.144 0 .036-.306.144-.306h.576c.126 0 .144-.36.144-.45 0-.594-.108-1.206-.108-1.818 0-.234.036-.27.036-.378 0-.198-.072-.972-.216-1.116l-.108-.63c-.072-.108-.126-.684-.234-.684-.09.036-.162.216-.162.288l-.18.72c-.018 0-.072.054-.072.072l.036.054c0 .558-.18 1.116-.18 1.638 0 .072.036.108.036.198 0 .162-.108.306-.108.468 0 .09.072.198.072.306 0 .36-.036.756-.036 1.098v.162l.036.054h.324Zm1.296.018a.039.039 0 0 0-.036.036c0 .018.018.036.036.036s.018-.018.018-.036 0-.036-.018-.036Zm-.252-.072a.039.039 0 0 0-.036.036c0 .018.018.036.036.036s.018-.018.018-.036 0-.036-.018-.036Zm.504-.18a.039.039 0 0 0-.036.036c0 .018.018.036.036.036s.018-.018.018-.036 0-.036-.018-.036Zm-3.942-.252a.039.039 0 0 0-.036.036c0 .018.018.036.036.036s.018-.018.018-.036 0-.036-.018-.036Zm4.014-.27a.039.039 0 0 0-.036.036c0 .018.018.036.036.036s.018-.018.018-.036 0-.036-.018-.036Zm.702-.27c0 .054.054.198.126.198.036 0 .054-.036.054-.036-.072-.072-.09-.162-.18-.216v.054Zm-4.752.126a.039.039 0 0 0-.036.036c0 .018.018.036.036.036s.018-.018.018-.036 0-.036-.018-.036Zm4.356-.072v.072c.036-.018.054-.054.054-.072h-.054Zm-4.356-.18a.039.039 0 0 0-.036.036c0 .018.018.036.036.036s.018-.018.018-.036 0-.036-.018-.036Zm.648.036c0-.018-.036-.018-.054-.018-.018 0-.018 0-.018.018 0 0 0 .018.018.018s.036 0 .054-.018Zm-.756-.072c0-.018-.018-.018-.054-.018-.036 0-.054 0-.054.018s.036.018.054.018c.018 0 .036 0 .054-.018Zm4.878-.252c-.108 0-.126.198-.126.252 0 0 .144-.162.144-.252h-.018Zm-4.014.18a.039.039 0 0 0-.036.036c0 .018.018.036.036.036s.018-.018.018-.036 0-.036-.018-.036Zm-.99-.144c-.018 0-.054.018-.054.036l.072-.036h-.018Zm.09-.036c-.018 0-.018 0-.018.018s0 .018.018.018l.018-.018-.018-.018Zm-.072-.144a.039.039 0 0 0-.036.036c0 .018.018.036.036.036s.018-.018.018-.036 0-.036-.018-.036Zm3.942 0s-.018-.018-.036-.018v.036c.018 0 .018 0 .036-.018Zm-3.798-.18-.072.072h.054c.018 0 .036 0 .054-.036l-.036-.036Zm3.834.036a.039.039 0 0 0-.036.036c0 .018.018.036.036.036s.018-.018.018-.036 0-.036-.018-.036Zm.216-.036a.039.039 0 0 0-.036.036c0 .018.018.036.036.036s.018-.018.018-.036 0-.036-.018-.036Zm.738-.036a.039.039 0 0 0-.036.036c0 .018.018.036.036.036s.018-.018.018-.036 0-.036-.018-.036Zm-.45-.324a.039.039 0 0 0-.036.036c0 .018.018.036.036.036s.018-.018.018-.036 0-.036-.018-.036Zm-2.538-.036H9.65c-.018 0-.036.036-.072.036h.054c.018 0 .054 0 .054-.036h-.018Zm-1.836-.468c.036 0 .09.036.126.036h.018c0-.036-.018-.072-.072-.072a.264.264 0 0 0-.072.036Zm.576-.108a.039.039 0 0 0-.036.036c0 .018.018.036.036.036s.018-.018.018-.036 0-.036-.018-.036Zm4.788-.036a.039.039 0 0 0-.036.036c0 .018.018.036.036.036s.018-.018.018-.036 0-.036-.018-.036Zm-.252-.36a.039.039 0 0 0-.036.036c0 .018.018.036.036.036s.018-.018.018-.036 0-.036-.018-.036Zm-5.112-.108c-.018 0-.018.018-.018.036h.036c0-.018-.018-.018-.018-.036Zm1.386-.216c.018.036.054.054.072.054v-.054h-.072Zm-1.242-.036-.018-.018c-.018 0-.018.018-.018.018 0 .018 0 .036.018.036 0 0 .018-.018.018-.036Zm-.108-.108a.039.039 0 0 0-.036.036c0 .018.018.036.036.036s.018-.018.018-.036 0-.036-.018-.036Zm.198-.036c-.018 0-.09.036-.09.036s.018.018.036.018.036-.018.072-.054h-.018Zm3.672 0a.039.039 0 0 0-.036.036c0 .018.018.036.036.036s.018-.018.018-.036 0-.036-.018-.036Zm-3.762-.072c-.054.018-.09.036-.09.09.054 0 .072-.036.09-.09Zm1.278-.036a.039.039 0 0 0-.036.036c0 .018.018.036.036.036s.018-.018.018-.036 0-.036-.018-.036Zm2.268-.036a.039.039 0 0 0-.036.036c0 .018.018.036.036.036s.018-.018.018-.036 0-.036-.018-.036Zm-2.484-.234c0-.018-.018-.018-.054-.018-.018 0-.036 0-.036.018s.018.018.036.018c.036 0 .054 0 .054-.018Zm.18-.036a.039.039 0 0 0-.036.036c0 .018.018.036.036.036s.018-.018.018-.036 0-.036-.018-.036Zm.936-.072a.039.039 0 0 0-.036.036c0 .018.018.036.036.036s.018-.018.018-.036 0-.036-.018-.036Zm2.052-.18c0-.018-.018-.018-.036-.018v.036c.018 0 .018 0 .036-.018Zm-3.294-.468c.396 0 .18.396.378.396.036 0 .072-.018.072-.054 0-.216-.306-.378-.414-.378a.039.039 0 0 0-.036.036Zm2.862.324a.039.039 0 0 0-.036.036c0 .018.018.036.036.036s.018-.018.018-.036 0-.036-.018-.036Zm-3.186-.108.144.036c-.054-.036-.144-.036-.144-.036Zm-.072-.036a.039.039 0 0 0-.036.036c0 .018.018.036.036.036s.018-.018.018-.036 0-.036-.018-.036Zm1.026 0a.039.039 0 0 0-.036.036c0 .018.018.036.036.036s.018-.018.018-.036 0-.036-.018-.036Zm2.124.036c0-.018-.018-.018-.036-.018v.036c.018 0 .018 0 .036-.018Zm.306-.036c-.036 0-.054 0-.054.036l.072-.036h-.018Zm.09 0s.018.036.072.036l-.036-.072-.036.036Zm.216 0a.039.039 0 0 0-.036.036c0 .018.018.036.036.036 0 0 .018-.018.018-.036s-.018-.036-.018-.036Zm-2.916-.108a.039.039 0 0 0-.036.036c0 .018.018.036.036.036s.018-.018.018-.036 0-.036-.018-.036Zm.504-.108s0-.018-.018-.018-.018.018-.018.018c0 .018.018.018.018.018s.018 0 .018-.018Zm.324-.09c0 .018.036.054.072.054v-.018c0-.018-.036-.054-.072-.054v.018Zm1.728.018a.039.039 0 0 0-.036.036c0 .018.018.036.036.036s.018-.018.018-.036 0-.036-.018-.036Zm-2.16 0s0-.018-.018-.018-.018.018-.018.018c0 .018.018.018.018.018s.018 0 .018-.018Zm.108 0s0-.018-.018-.018-.018.018-.018.018c0 .018.018.018.018.018s.018 0 .018-.018Zm2.016-.036a.039.039 0 0 0-.036.036c0 .018.018.036.036.036s.018-.018.018-.036 0-.036-.018-.036Zm-3.024-.054c.018 0 .018.054.054.054 0-.036-.036-.072-.036-.072l-.018.018Zm.252.018c.09.036.126.036.198.036.144 0 .378-.486.378-.612a.377.377 0 0 0 .072-.108c-.018 0-.036-.108-.072-.108-.018 0-.27.09-.324.18v-.072h-.054c0 .09-.072.144-.072.252h-.162c.036.036.036.09.072.108 0 .018-.036.072-.036.09 0 .072.054.126.054.18-.018 0-.018.054-.054.054Zm-.486 0s-.018-.018-.036-.018v.036c.018 0 .018 0 .036-.018Zm.378-.036c-.018 0-.018.018-.018.036s0 .036.018.036.018-.018.018-.036 0-.036-.018-.036Zm.756 0a.039.039 0 0 0-.036.036c0 .018.018.036.036.036s.018-.018.018-.036 0-.036-.018-.036Zm-.954-.036c-.018 0-.036.018-.036.018 0 .018.018.018.036.018 0 0 .018 0 .018-.018l-.018-.018Zm.216 0c-.018 0-.036 0-.036.036l.054-.036H9.02Zm.954 0-.072.036h.018c.018 0 .054-.018.054-.036Zm-.108-.144c-.018.036-.036.072-.036.108.036 0 .108 0 .108-.054 0-.018-.036-.054-.072-.054Zm1.188 0a.039.039 0 0 0-.036.036c0 .018.018.036.036.036s.018-.018.018-.036 0-.036-.018-.036Zm-2.106 0s-.018-.018-.036-.018v.036c.018 0 .018 0 .036-.018Zm1.35-.054c0 .054.072.054.108.054.054 0 .09-.054.144-.072-.036 0-.09-.036-.09-.036s-.018.036-.162.054Zm-.468-.054.072.036v-.036H9.83Zm-.954-.072a.039.039 0 0 0-.036.036c0 .018.018.036.036.036s.018-.018.018-.036 0-.036-.018-.036Zm1.098-.036c.054.072.126.072.216.072h.216a.099.099 0 0 1-.054-.09c0-.018.018-.036.018-.054a.586.586 0 0 1-.252.072l.072-.072c-.018 0-.198.036-.216.072Zm-.144-.108c-.036-.018-.09.072-.09.108h.18c-.018 0-.036-.108-.09-.108Zm-1.134.036a.039.039 0 0 0-.036.036c0 .018.018.036.036.036s.018-.018.018-.036 0-.036-.018-.036Zm3.852 0 .072.036c-.018-.018-.018-.036-.072-.036Zm-4.068-.072a.039.039 0 0 0-.036.036c0 .018.018.036.036.036s.018-.018.018-.036 0-.036-.018-.036Zm.594 0a.039.039 0 0 0-.036.036c0 .018.018.036.036.036s.018-.018.018-.036 0-.036-.018-.036Zm.252.036c0 .018-.018.018-.018.018s-.018 0-.018-.018c0 0 0-.018.018-.018s.018.018.018.018Zm3.114-.036a.039.039 0 0 0-.036.036c0 .018.018.036.036.036s.018-.018.018-.036 0-.036-.018-.036Zm.072-.072c-.018 0-.018.018-.018.018 0 .018 0 .018.018.018s.018 0 .018-.018c0 0 0-.018-.018-.018Zm-2.25-.036a.039.039 0 0 0-.036.036c0 .018.018.036.036.036s.018-.018.018-.036 0-.036-.018-.036Zm.504-.036a.039.039 0 0 0-.036.036c0 .018.018.036.036.036s.018-.018.018-.036 0-.036-.018-.036Zm-.792-.036a.039.039 0 0 0-.036.036c0 .018.018.036.036.036s.018-.018.018-.036 0-.036-.018-.036Zm.144 0c-.036 0-.054 0-.072.036h.144c-.018-.036-.036-.036-.072-.036Zm.756 0a.039.039 0 0 0-.036.036c0 .018.018.036.036.036s.018-.018.018-.036 0-.036-.018-.036Zm-.576-.072c-.018 0-.018.018-.018.018 0 .018 0 .018.018.018 0 0 .018 0 .018-.018l-.018-.018Zm-.504-.036a.039.039 0 0 0-.036.036c0 .018.018.036.036.036s.018-.018.018-.036 0-.036-.018-.036Zm-.216-.036a.039.039 0 0 0-.036.036c0 .018.018.036.036.036s.018-.018.018-.036 0-.036-.018-.036Zm1.08-.072c-.036.018-.036.036-.036.072h.072c0-.036 0-.054-.036-.072Zm1.89-.036a.039.039 0 0 0-.036.036c0 .018.018.036.036.036s.018-.018.018-.036 0-.036-.018-.036Zm-1.278-.072a.039.039 0 0 0-.036.036c0 .018.018.036.036.036s.018-.018.018-.036 0-.036-.018-.036Zm-1.728-.108.144.036v-.036h-.144Zm1.512-.036a.039.039 0 0 0-.036.036c0 .018.018.036.036.036s.018-.018.018-.036 0-.036-.018-.036Zm.144 0-.018-.018c-.018 0-.018.018-.018.018 0 .018 0 .018.018.018 0 0 .018 0 .018-.018Zm-2.214-.072a.039.039 0 0 0-.036.036c0 .018.018.036.036.036 0 0 .018-.018.018-.036s-.018-.036-.018-.036Zm1.818-.144a.039.039 0 0 0-.036.036c0 .018.018.036.036.036s.018-.018.018-.036 0-.036-.018-.036Zm-.144-.036c.018.018.036.018.054.018.072 0 .144-.09.162-.162-.036 0-.216-.036-.252-.036-.054 0-.126.09-.144.108.054.072.108.072.18.072Zm.792 0a.039.039 0 0 0-.036.036c0 .018.018.036.036.036s.018-.018.018-.036 0-.036-.018-.036Zm-.324-.108c-.036 0-.09.054-.108.072h.144c0-.018-.018-.072-.036-.072Zm-.936 0c.036.036.126.036.126.036.036 0 .054 0 .054-.036-.018-.054-.054-.072-.108-.072-.036 0-.072.018-.072.072Zm.792.036-.018-.018c-.018 0-.018.018-.018.018 0 .018 0 .018.018.018 0 0 .018 0 .018-.018Zm.792 0s-.018-.018-.036-.018v.036c.018 0 .018 0 .036-.018Zm-1.728-.144a.039.039 0 0 0-.036.036c0 .018.018.036.036.036s.018-.018.018-.036 0-.036-.018-.036Zm1.44-.036a.039.039 0 0 0-.036.036c0 .018.018.036.036.036s.018-.018.018-.036 0-.036-.018-.036Zm-1.242-.108h-.018s-.018.036-.036.036l.072-.036h-.018Zm-.054-.144-.108.144.036.018c.072 0 .126-.09.126-.162h-.054Zm.216.108a.039.039 0 0 0-.036.036c0 .018.018.036.036.036s.018-.018.018-.036 0-.036-.018-.036Zm.108 0c-.018 0-.018.018-.018.036h.036c0-.018-.018-.018-.018-.036Zm.072-.036c0 .054.054.09.054.09l.018-.018c-.018-.018-.018-.072-.072-.072Zm.324-.036a.039.039 0 0 0-.036.036c0 .018.018.036.036.036s.018-.018.018-.036 0-.036-.018-.036Zm.756.036s-.018-.018-.036-.018v.054c.018 0 .018-.018.036-.036Zm-1.872-.108v.072h.072v-.072h-.072Zm.288 0c-.018 0-.018.036-.018.054 0 .018 0 .018.018.018 0 0 .018 0 .018-.018s-.018-.036-.018-.054Zm1.224.072-.018-.018c-.018 0-.018.018-.018.018 0 .018 0 .036.018.036 0 0 .018-.018.018-.036Zm-1.692-.072.036.036a.039.039 0 0 0 .036-.036h-.072Zm.36 0a.039.039 0 0 0-.036.036c0 .018.018.036.036.036s.018-.018.018-.036 0-.036-.018-.036Zm.72 0s-.018-.018-.036-.018-.036.018-.036.018c0 .018.018.036.036.036s.018-.018.036-.036Zm.504 0-.018-.018c-.018 0-.018.018-.018.018 0 .018 0 .036.018.036 0 0 .018-.018.018-.036Zm.144-.036a.039.039 0 0 0-.036.036c0 .018.018.036.036.036s.018-.018.018-.036 0-.036-.018-.036ZM9.83 11.95c0 .036-.072.018-.072.072l.072-.072Zm1.116.036a.039.039 0 0 0-.036.036c0 .018.018.036.036.036s.018-.018.018-.036 0-.036-.018-.036Zm-.468-.108c-.036 0-.108 0-.108.054 0 .018.054.036.072.054a.162.162 0 0 1 .108-.108h-.072Zm-1.008 0a.039.039 0 0 0-.036.036c0 .018.018.036.036.036s.018-.018.018-.036 0-.036-.018-.036Zm.252 0c-.018 0-.018.018-.018.036h.036c0-.018-.018-.018-.018-.036Zm.504 0a.039.039 0 0 0-.036.036c0 .018.018.036.036.036s.018-.018.018-.036 0-.036-.018-.036Zm.936 0a.039.039 0 0 0-.036.036c0 .018.018.036.036.036s.018-.018.018-.036 0-.036-.018-.036Zm-1.332-.072c.018.036.108.09.126.09.018 0 .054-.036.054-.09-.036-.018-.054-.036-.108-.036-.036 0-.054 0-.072.036Zm.684-.126c.09.144.252.072.324.198.072-.09.18-.108.252-.198 0-.036-.054-.036-.054-.054-.036 0-.036.054-.09.054-.108 0-.198-.054-.306-.054-.054 0-.09 0-.126.054Zm-.324.126-.018-.018c-.018 0-.018.018-.018.018 0 .018 0 .036.018.036 0 0 .018-.018.018-.036Zm.324-.054a.039.039 0 0 0-.036.036s.018.018.036.018.018-.018.018-.018c0-.018 0-.036-.018-.036Zm.324 0c0 .018-.018.018-.018.018-.018 0-.018 0-.018-.018s0-.018.018-.018c0 0 .018 0 .018.018Zm.252-.036a.039.039 0 0 0-.036.036s.018.018.036.018.018-.018.018-.018c0-.018 0-.036-.018-.036Zm-.864-.108a.039.039 0 0 0-.036.036c0 .018.018.036.036.036s.018-.018.018-.036 0-.036-.018-.036Zm.144 0c0 .036.036.036.054.036h.054c-.036-.036-.072-.036-.09-.054l-.018.018Zm.324-.036c0-.018-.018-.018-.018-.018-.018 0-.018 0-.018.018s0 .018.018.018c0 0 .018 0 .018-.018Zm.504-.036a.039.039 0 0 0-.036.036c0 .018.018.036.036.036s.018-.018.018-.036 0-.036-.018-.036Zm-1.584 0v-.018c-.018 0-.036 0-.036.018s.018.018.018.018.018 0 .018-.018Zm1.728-.036c0-.018-.018-.018-.018-.018-.036 0-.018.018-.018.036.018 0 .018 0 .036-.018Zm-1.656-.144a.039.039 0 0 0-.036.036c0 .018.018.036.036.036s.018-.018.018-.036 0-.036-.018-.036Zm.504 0a.039.039 0 0 0-.036.036c0 .018.018.036.036.036s.018-.018.018-.036 0-.036-.018-.036Zm.18 0c.018.018.018.018.036.018s.054-.018.072-.018h-.108ZM16.816 22.804c0-.018-.018-.072-.036-.072s-.144.054-.18.072h-.936c-.036 0-.036-.036-.036-.072 0-.216.072-.45.072-.648 0-.288-.072-.576-.072-.846 0-.126 0-.216.036-.324v-.72c-.036-.018-.036-.036-.036-.072 0-.288 0-.738.108-.846 0-.198-.072-.468-.072-.72 0-.054 0-.144.036-.18-.072-.216-.072-.288-.072-.486 0-.216.09-.432.09-.63 0-.162-.09-.342-.09-.504.108-.342.072-.738.072-.882 0-.216-.018-.378-.108-.864v-.036c0-.072.054-.162.054-.234 0-.126-.054-.306-.054-.414.018-.09.036-.846.036-.936 0-.198.036-.396-.342-.396h-.288c-.45 0-.972-.018-.972-.288 0-.558.072-1.08.072-1.638 0-.018-.036-.036-.036-.144 0-.108.072-.144.18-.144.684 0 1.152.036 1.746.036.252 0 .522-.072.756-.072.108.018.54.036.54.036l.036.036a.273.273 0 0 1 .144-.072c.108 0 .396.072.486.072.504 0 .936-.054 1.494-.054.198 0 .378.036.378.144 0 .054-.036.072-.036.144 0 .036.036.126.036.162v1.116c0 .018.036.144.036.18 0 .216-.288.468-.846.468-.288 0-.684.018-.792-.018-.054 0-.09.054-.09.054 0 .018.036.054.054.054v.432a.256.256 0 0 0-.036.072c0 .162.072.378.072.558 0 .162-.018.468-.108.594v1.458c.054.252.072.342.072.558 0 .162-.036.27-.108.414l.072.036v.09c0 .162-.036.324-.036.468 0 .108.036.306.072.414l.036 2.358c0 .018-.018.144-.072.18l.072.072c-.036.252-.072.468-.072.468.108.09.108.414.108.648 0 .234.054.954-.432.954-.342 0-.648-.036-1.008-.036Zm-.432-.972a.039.039 0 0 0-.036.036c0 .018.018.036.036.036s.018-.018.018-.036 0-.036-.018-.036Zm-.036-.954a.039.039 0 0 0-.036.036c0 .018.018.036.036.036s.018-.018.018-.036 0-.036-.018-.036Zm1.728-1.62a.039.039 0 0 0-.036.036c0 .018.018.036.036.036s.018-.018.018-.036 0-.036-.018-.036Zm-.324-.324c0 .036.036.036.072.036-.018-.018-.036-.036-.072-.036Zm-1.62-.144a.039.039 0 0 0-.036.036c0 .018.018.036.036.036s.018-.018.018-.036 0-.036-.018-.036Zm-.324-.108a.039.039 0 0 0-.036.036c0 .018.018.036.036.036s.018-.018.018-.036 0-.036-.018-.036Zm1.332-.558c0-.018-.018-.018-.018-.018-.018 0-.018 0-.018.018s0 .018.018.018c0 0 .018 0 .018-.018Zm-.252-.108a.039.039 0 0 0-.036.036c0 .018.018.036.036.036s.018-.018.018-.036 0-.036-.018-.036Zm-.072-.108a.039.039 0 0 0-.036.036c0 .018.018.036.036.036s.018-.018.018-.036 0-.036-.018-.036Zm.612-.144a.039.039 0 0 0-.036.036c0 .018.018.036.036.036s.018-.018.018-.036 0-.036-.018-.036Zm.612-.792a.039.039 0 0 0-.036.036c0 .018.018.036.036.036s.018-.018.018-.036 0-.036-.018-.036Zm.036-.432a.039.039 0 0 0-.036.036c0 .018.018.036.036.036s.018-.018.018-.036 0-.036-.018-.036Zm-1.044-.108c-.018 0-.018.018-.018.018 0 .018 0 .018.018.018 0 0 .018 0 .018-.018l-.018-.018Zm.288 0-.018-.018c-.018 0-.018.018-.018.018 0 .018 0 .018.018.018 0 0 .018 0 .018-.018Zm-.792-.072a.039.039 0 0 0-.036.036c0 .018.018.036.036.036s.018-.018.018-.036 0-.036-.018-.036Zm.432-.18c-.036 0-.054 0-.072.036.018 0 .072 0 .108-.036h-.036Zm.936 0a.039.039 0 0 0-.036.036h.054c0-.018-.018-.018-.018-.036Zm-.792-.036c0 .036.036.036.054.036.09 0 .144 0 .234-.036-.054-.036-.072-.036-.126-.036-.072 0-.09 0-.162.036Zm.756 0c0-.018-.018-.018-.054-.018-.036 0-.054 0-.054.018s.036.018.054.018c.018 0 .036 0 .054-.018Zm-1.26-.216.036.036v-.036H16.6Zm.72-.144a.039.039 0 0 0-.036.036c0 .018.018.036.036.036s.018-.018.018-.036 0-.036-.018-.036Zm-.036-.036a.039.039 0 0 0-.036.036c0 .018.018.036.036.036s.018-.018.018-.036 0-.036-.018-.036Zm.54-.18a.039.039 0 0 0-.036.036c0 .018.018.036.036.036s.018-.018.018-.036 0-.036-.018-.036Zm-.756-.306a.039.039 0 0 0-.036.036c0 .018.018.036.036.036s.018-.018.018-.036 0-.036-.018-.036Zm-.252-.9a.039.039 0 0 0-.036.036c0 .018.018.036.036.036s.018-.018.018-.036 0-.036-.018-.036Zm.144-.324a.039.039 0 0 0-.036.036c0 .018.018.036.036.036s.018-.018.018-.036 0-.036-.018-.036Zm1.008-.324s-.018-.018-.036-.018v.036c.018 0 .018 0 .036-.018Zm-.216-.576a.039.039 0 0 0-.036.036c0 .018.018.036.036.036s.018-.018.018-.036 0-.036-.018-.036Zm-2.322-.324s-.018-.018-.036-.018v.054c.018 0 .018-.018.036-.036Zm3.024-.036.036.036v-.036h-.036Zm-3.348-.216a.039.039 0 0 0-.036.036c0 .018.018.036.036.036s.018-.018.018-.036 0-.036-.018-.036Zm.234-.162c0 .018.018.054.054.072a.136.136 0 0 0 .036-.072h-.09Zm3.096 0 .054.072c.054-.054.018-.09.054-.09 0-.018-.018-.018-.018-.018l-.09.036Zm-3.33-.072a.039.039 0 0 0-.036.036c0 .018.018.036.036.036s.018-.018.018-.036 0-.036-.018-.036Zm.414 0c-.018 0-.018.018-.018.036s0 .036.018.036.018-.018.018-.036 0-.036-.018-.036Zm-.018-.036a.039.039 0 0 0-.036.036c0 .018.018.036.036.036 0 0 .018-.018.018-.036s-.018-.036-.018-.036Zm.09-.036v.072h.054c0-.036-.018-.072-.054-.072Zm2.7-.018c-.054 0-.09.036-.09.09.054 0 .09-.036.09-.09Zm.072.09.09-.072c-.108.072-.09.09-.09.09v-.018Zm-2.934-.072a.039.039 0 0 0-.036.036c0 .018.018.036.036.036s.018-.018.018-.036 0-.036-.018-.036Zm3.006-.108c-.018 0-.054.018-.054.018 0 .018 0 .018.018.018a.039.039 0 0 0 .036-.036Zm-2.97 0c0-.018-.018-.018-.036-.018v.036c.018 0 .018 0 .036-.018Zm-.504-.18c0 .018.018.144.09.144.126 0 .126-.126.126-.234-.036 0-.216.018-.216.09Zm3.708 0c0 .072.108.108.144.144a.215.215 0 0 0 .09-.162l-.018-.018-.18-.072c-.018.036-.036.054-.036.108Zm-3.312.072a.039.039 0 0 0-.036.036c0 .018.018.036.036.036s.018-.018.018-.036 0-.036-.018-.036Zm3.168 0a.039.039 0 0 0-.036.036c0 .018.018.036.036.036s.018-.018.018-.036 0-.036-.018-.036Zm-.486-.072v.072h.036v-.072h-.036Zm.108 0a.039.039 0 0 0-.036.036c0 .018.018.036.036.036s.018-.018.018-.036 0-.036-.018-.036Zm-.504-.036a.039.039 0 0 0-.036.036c0 .018.018.036.036.036s.018-.018.018-.036 0-.036-.018-.036Zm-2.142-.216a.039.039 0 0 0-.036.036c0 .018.018.036.036.036 0 0 .018-.018.018-.036s-.018-.036-.018-.036Zm2.43-.036.036.072.072-.072h-.108Zm-.396 0a.039.039 0 0 0-.036.036c0 .018.018.036.036.036s.018-.018.018-.036 0-.036-.018-.036Zm-2.97 0-.018-.018c-.018 0-.018.018-.018.018 0 .018 0 .018.018.018 0 0 .018 0 .018-.018Zm4.752-.036a.039.039 0 0 0-.036.036c0 .018.018.036.036.036s.018-.018.018-.036 0-.036-.018-.036Zm-4.824-.18a.039.039 0 0 0-.036.036c0 .018.018.036.036.036s.018-.018.018-.036 0-.036-.018-.036Zm4.428-.036a.039.039 0 0 0-.036.036c0 .018.018.036.036.036s.018-.018.018-.036 0-.036-.018-.036Zm-1.206-.036.036.036v-.036h-.036Zm.54-.072c-.018 0-.036.018-.036.018 0 .018.018.018.036.018 0 0 .018 0 .018-.018l-.018-.018Zm-3.078-.252a.039.039 0 0 0-.036.036c0 .018.018.036.036.036s.018-.018.018-.036 0-.036-.018-.036Zm.378 0a.039.039 0 0 0-.036.036c0 .018.018.036.036.036s.018-.018.018-.036 0-.036-.018-.036Zm2.772 0a.039.039 0 0 0-.036.036c0 .018.018.036.036.036s.018-.018.018-.036 0-.036-.018-.036Zm-.036-.036a.039.039 0 0 0-.036.036c0 .018.018.036.036.036s.018-.018.018-.036 0-.036-.018-.036ZM20.675 22.588c0-.738-.036-1.872-.036-2.106 0-.054.072-.504.072-.576v-.09c0-.198-.036-.378-.036-.558 0 0 .036-.126.036-.162 0-.054-.054-.45-.054-.468 0-.036.054-.108.054-.252a.256.256 0 0 0-.036-.108v-1.602a.792.792 0 0 0 .036-.18c0-.036-.036-.324-.036-.36 0-.324.036-1.278.036-1.566 0-1.026-.126-2.052-.126-3.078 0-.234.054-.414.342-.504.666 0 1.35.072 2.016.072.234 0 .468-.072.702-.072.018 0 .252.036.288.036 0 0 .234 0 .27-.036 1.512 0 3.15.594 3.15 3.168 0 .774-.18 2.016-.324 2.304 0 .108-.63.72-.612.756.018 0 .216.81.216.882l.252 2.07c.144.522.306 1.746.432 2.718 0 .036.018.18-.036.18h-2.538l-.036-.108c-.036-.27-.216-1.494-.252-1.746-.126-.774.018-1.386-.288-2.358-.162-1.044-.018-1.188-.666-1.188-.198 0-.234.522-.234 1.08 0 .27.018.558.018.792 0 .144.018.504-.036.666l.072.648v2.142l-.036.036c-.108.108-.702.108-1.224.108-.342 0-1.386.162-1.386-.54Zm2.502-7.074c.054.126.378.18.522.18.144 0 .27-.054.432-.072.018.036.054.054.072.054v-.126c.45-.072.54-.666.54-1.026a.34.34 0 0 0-.036-.144s-.108-1.242-.576-1.26v-.108a.136.136 0 0 0-.072.036c-.108 0-.27-.072-.378-.072-.63 0-.576.756-.576.828v1.26c.036.144.054.306.072.45ZM28.46 20.05c-.071-.108-.071-.18-.071-.27 0-.684.108-1.368.108-2.052 0-.018-.036-.09-.036-.144 0-.036.036-.198.036-.234 0-.27-.072-.54-.072-.81 0-.198.072-.432.072-.63 0 0-.018-.054-.036-.072 0-.432.036-.738.036-1.062 0-.018-.036-.198-.036-.216 0-.9.018-1.044.252-1.71.072-.198.072-.468.216-.648.648-.792 1.494-1.26 2.538-1.26.828 0 1.692.162 2.43.612.594.378.666.738.918 1.332.036.072.108.108.108.216 0 0-.036.054-.036.072 0 .018.108.162.108.198.054.27.054.54.108.792v1.278c0 .036.036.162.036.18 0 .144-.036.252-.036.36 0 .162 0 .252.036.432v1.566c0 .054-.09.108-.09.126 0 .018.09.126.09.162v1.548c0 2.43-1.386 3.528-3.456 3.528-2.088 0-3.222-1.242-3.222-3.294Zm5.779 2.088c-.018 0-.018 0-.018.018s0 .018.018.018.018-.018.018-.018 0-.018-.018-.018Zm-.846-.216a.039.039 0 0 0-.036.036c0 .018.018.036.036.036s.018-.018.018-.036 0-.036-.018-.036Zm-2.286-3.006v.666c0 .378.054 1.44.576 1.44.936 0 .594-1.17.774-1.71 0-.162-.036-.324-.036-.504 0-.198-.018-.342.072-.54V16.81l-.036-.072c0-.63-.108-1.692-.108-2.502 0-.072.072-1.008-.594-1.008-.756 0-.792.864-.792 1.548 0 .504.072 1.062.072 1.602 0 .234-.036.702-.036.684.054.27.108.522.108.774 0 .144-.036.306-.036.324 0 .162.036.288.036.432 0 .072-.036.126-.036.198 0 0 0 .108.036.126Zm3.672 1.566a.039.039 0 0 0-.036.036c0 .018.018.036.036.036s.018-.018.018-.036 0-.036-.018-.036Zm-4.428-.774a.039.039 0 0 0-.036.036c0 .018.018.036.036.036s.018-.018.018-.036 0-.036-.018-.036Zm-.72-1.548a.039.039 0 0 0-.036.036c0 .018.018.036.036.036s.018-.018.018-.036 0-.036-.018-.036Zm-.198-1.314a.039.039 0 0 0-.036.036c0 .018.018.036.036.036s.018-.018.018-.036 0-.036-.018-.036Zm.486 0a.039.039 0 0 0-.036.036c0 .018.018.036.036.036s.018-.018.018-.036 0-.036-.018-.036Zm-.108-.072a.039.039 0 0 0-.036.036c0 .018.018.036.036.036s.018-.018.018-.036 0-.036-.018-.036Zm-.342-.396.054.036c0-.036-.054-.036-.054-.036Zm.342-.324a.039.039 0 0 0-.036.036c0 .018.018.036.036.036s.018-.018.018-.036 0-.036-.018-.036Zm-.558-2.466a.039.039 0 0 0-.036.036c0 .018.018.036.036.036s.018-.018.018-.036 0-.036-.018-.036Zm.306-.252a.039.039 0 0 0-.036.036c0 .018.018.036.036.036s.018-.018.018-.036 0-.036-.018-.036Zm3.51-.144a.039.039 0 0 0-.036.036c0 .018.018.036.036.036s.018-.018.018-.036 0-.036-.018-.036Zm-.756-.81a.039.039 0 0 0-.036.036c0 .018.018.036.036.036s.018-.018.018-.036 0-.036-.018-.036Zm-1.134-.072a.039.039 0 0 0-.036.036c0 .018.018.036.036.036s.018-.018.018-.036 0-.036-.018-.036Zm2.178-.216c-.036 0-.09.036-.09.072h.09v-.072ZM36.319 19.69c0-.126-.018-.414.036-.594l-.036-.036c0-.27-.036-.666-.036-.756v.018s.036-.342.036-.468h.036c0-.18-.036-.306-.036-.468v-1.944c-.036-.036-.036-.108-.036-.18 0-.504.036-.954.036-1.458l.036-.072c-.018-.09-.018-.162-.018-.234 0-1.17.918-2.286 2.052-2.556.108-.036.306-.054.432-.108h1.116c.27.09.576.072.864.144.846.216 1.62.774 1.926 1.638.162.504.108.882.216 1.224v1.242c-.018.108-.036.468-.216.504l-.396.108h-1.746c-.036 0-.162-.126-.18-.18-.036-.018-.072-.774-.072-1.746-.018-.144-.27-.72-.468-.72a.039.039 0 0 0-.036.036h-.432c-.306 0-.432.54-.504.72v1.494c-.072.342-.072.774-.072 1.116 0 .324.072.63.072.954 0 .324-.036.378-.036.558 0 0 .036.054.036.072 0 .288-.036.576-.036.864 0 .09 0 .18.036.234 0 .738-.036.81-.036 1.044 0 .108.108.144.108.36.072.468.45.468.738.468.576 0 .666-.792.666-1.206 0-.432-.036-.864-.036-1.296 0-.486.036-.72.342-.72.504 0 1.458-.036 1.512-.036.666 0 .774.072.774.738 0 .252-.018.594-.018 1.044 0 .594-.216 1.152-.216 1.818 0 .918-1.494 1.836-2.286 1.836h-1.548c-.342-.108-.702-.144-1.026-.288-.414-.162-1.278-.99-1.332-1.458-.072-.63-.216-1.08-.216-1.71Zm2.322 3.096a.039.039 0 0 0-.036.036c0 .018.018.036.036.036s.018-.018.018-.036 0-.036-.018-.036Zm1.08-.072a.039.039 0 0 0-.036.036c0 .018.018.036.036.036s.018-.018.018-.036 0-.036-.018-.036Zm-1.368-.036c-.018 0-.018.018-.018.018 0 .018 0 .018.018.018s.018 0 .018-.018c0 0 0-.018-.018-.018Zm-.288-.252a.039.039 0 0 0-.036.036c0 .018.018.036.036.036s.018-.018.018-.036 0-.036-.018-.036Zm-.414-.036a.039.039 0 0 0-.036.036h.054c0-.018-.018-.018-.018-.036Zm1.098 0a.039.039 0 0 0-.036.036c0 .018.018.036.036.036s.018-.018.018-.036 0-.036-.018-.036Zm.144-.198c0 .054.018.144.072.162 0-.108.054-.108.054-.216-.054 0-.126 0-.126.054Zm.288.09v.072l.072-.072h-.072Zm-.396-.072v.108c.054-.018.054-.072.054-.108h-.054Zm.072.072a.039.039 0 0 0-.036.036c0 .018.018.036.036.036s.018-.018.018-.036 0-.036-.018-.036Zm.18-.018v.018c0 .018.018.036.036.036l.072-.108c-.072.018-.108.036-.108.054Zm1.044-.018a.039.039 0 0 0-.036.036c0 .018.018.036.036.036s.018-.018.018-.036 0-.036-.018-.036Zm.792 0-.072.036h.072v-.036Zm-1.224-.036-.072.036h.018c.036 0 .054 0 .054-.036Zm1.044 0a.039.039 0 0 0-.036.036c0 .018.018.036.036.036s.018-.018.018-.036 0-.036-.018-.036Zm-2.664-.036a.039.039 0 0 0-.036.036c0 .018.018.036.036.036s.018-.018.018-.036 0-.036-.018-.036Zm-.198-.036a.039.039 0 0 0-.036.036h.054c0-.018-.018-.018-.018-.036Zm.846 0a.039.039 0 0 0-.036.036c0 .018.018.036.036.036s.018-.018.018-.036 0-.036-.018-.036Zm.9 0a.039.039 0 0 0-.036.036c0 .018.018.036.036.036s.018-.018.018-.036 0-.036-.018-.036Zm-.216-.036a.039.039 0 0 0-.036.036c0 .018.018.036.036.036s.018-.018.018-.036 0-.036-.018-.036Zm-.684-.072a.039.039 0 0 0-.036.036c0 .018.018.036.036.036s.018-.018.018-.036 0-.036-.018-.036Zm2.196 0a.039.039 0 0 0-.036.036c0 .018.018.036.036.036s.018-.018.018-.036 0-.036-.018-.036Zm-2.268-.036c-.018 0-.018.018-.018.036h.036c0-.018-.018-.018-.018-.036Zm-.072-.036a.039.039 0 0 0-.036.036c0 .018.018.036.036.036s.018-.018.018-.036 0-.036-.018-.036Zm.612-.036.036.072v-.072h-.036Zm.18.036-.018-.018c-.018 0-.018.018-.018.018 0 .018 0 .036.018.036 0 0 .018-.018.018-.036Zm.396-.072a.039.039 0 0 0-.036.036c0 .018.018.036.036.036s.018-.018.018-.036 0-.036-.018-.036Zm.18-.108a.039.039 0 0 0-.036.036c0 .018.018.036.036.036s.018-.018.018-.036 0-.036-.018-.036Zm-2.538-.036c0 .018.054.036.072.036 0 0 .036-.018.036-.072l-.108.036Zm2.142-.036v.072h.036v-.072h-.036Zm-1.008 0a.039.039 0 0 0-.036.036c0 .018.018.036.036.036s.018-.018.018-.036 0-.036-.018-.036Zm.144 0c-.018 0-.018.018-.018.036h.036c0-.018-.018-.018-.018-.036Zm-.54-.036a.039.039 0 0 0-.036.036c0 .018.018.036.036.036s.018-.018.018-.036 0-.036-.018-.036Zm-.198-.036a.039.039 0 0 0-.036.036c0 .018.018.036.036.036s.018-.018.018-.036 0-.036-.018-.036Zm.162 0a.039.039 0 0 0-.036.036c0 .018.018.036.036.036s.018-.018.018-.036 0-.036-.018-.036Zm.216.036s0-.018-.018-.018-.018.018-.018.018c0 .018.018.036.018.036s.018-.018.018-.036Zm.396-.036h.072l-.036-.036-.036.036Zm.828-.072a.039.039 0 0 0-.036.036c0 .018.018.036.036.036s.018-.018.018-.036 0-.036-.018-.036Zm1.44-.036a.039.039 0 0 0-.036.036c0 .018.018.036.036.036s.018-.018.018-.036 0-.036-.018-.036Zm-.756-.036a.039.039 0 0 0-.036.036c0 .018.018.036.036.036s.018-.018.018-.036 0-.036-.018-.036Zm.108 0a.039.039 0 0 0-.036.036c0 .018.018.036.036.036s.018-.018.018-.036 0-.036-.018-.036Zm-.468 0-.018-.018c-.018 0-.018.018-.018.018 0 .018 0 .036.018.036 0 0 .018-.018.018-.036Zm.18-.018a.039.039 0 0 0-.036.036s.018.018.036.018.018-.018.018-.018c0-.018 0-.036-.018-.036Zm.252 0a.039.039 0 0 0-.036.036s.018.018.036.018.018-.018.018-.018c0-.018 0-.036-.018-.036Zm1.746 0a.039.039 0 0 0-.036.036s.018.018.036.018.018-.018.018-.018c0-.018 0-.036-.018-.036Zm-4.644-.036c-.018 0-.036 0-.036.018s.018.018.036.018l.018-.018-.018-.018Zm2.214 0a.039.039 0 0 0-.036.036s.018.018.036.018.018-.018.018-.018c0-.018 0-.036-.018-.036Zm-1.512-.036a.039.039 0 0 0-.036.036c0 .018.018.036.036.036s.018-.018.018-.036 0-.036-.018-.036Zm1.116 0a.039.039 0 0 0-.036.036c0 .018.018.036.036.036s.018-.018.018-.036 0-.036-.018-.036Zm.144.036c0-.018-.018-.018-.018-.018-.018 0-.018 0-.018.018s0 .018.018.018c0 0 .018 0 .018-.018Zm-1.188-.072a.039.039 0 0 0-.036.036c0 .018.018.036.036.036s.018-.018.018-.036 0-.036-.018-.036Zm3.834-.072a.039.039 0 0 0-.036.036c0 .018.018.036.036.036s.018-.018.018-.036 0-.036-.018-.036Zm-4.14 0c0-.018-.018-.018-.036-.018v.036c.018 0 .018 0 .036-.018Zm1.818 0c0-.018-.018-.018-.018-.018-.018 0-.018 0-.018.018s0 .018.018.018c0 0 .018 0 .018-.018Zm1.89-.036a.039.039 0 0 0-.036.036c0 .018.018.036.036.036s.018-.018.018-.036 0-.036-.018-.036Zm-4.32-.072a.039.039 0 0 0-.036.036c0 .018.018.036.036.036s.018-.018.018-.036 0-.036-.018-.036Zm2.034-.108a.039.039 0 0 0-.036.036c0 .018.018.036.036.036s.018-.018.018-.036 0-.036-.018-.036Zm.108-.036c-.018 0-.018 0-.018.018s0 .018.018.018l.018-.018-.018-.018Zm.108 0a.039.039 0 0 0-.036.036c0 .018.018.036.036.036s.018-.018.018-.036 0-.036-.018-.036Zm.144 0a.039.039 0 0 0-.036.036c0 .018.018.036.036.036s.018-.018.018-.036 0-.036-.018-.036Zm.216-.036a.039.039 0 0 0-.036.036c0 .018.018.036.036.036s.018-.018.018-.036 0-.036-.018-.036Zm.18-.036a.039.039 0 0 0-.036.036c0 .018.018.036.036.036s.018-.018.018-.036 0-.036-.018-.036Zm1.746 0a.039.039 0 0 0-.036.036c0 .018.018.036.036.036s.018-.018.018-.036 0-.036-.018-.036Zm.396-.144a.039.039 0 0 0-.036.036c0 .018.018.036.036.036s.018-.018.018-.036 0-.036-.018-.036Zm.252 0a.039.039 0 0 0-.036.036c0 .018.018.036.036.036s.018-.018.018-.036 0-.036-.018-.036Zm-1.782-.036a.039.039 0 0 0-.036.036c0 .018.018.036.036.036s.018-.018.018-.036 0-.036-.018-.036Zm.468 0a.039.039 0 0 0-.036.036c0 .018.018.036.036.036s.018-.018.018-.036 0-.036-.018-.036Zm.378 0s-.018-.018-.036-.018-.036.018-.036.018c0 .018.018.018.036.018s.036 0 .036-.018Zm-3.294-.072s0-.018-.018-.018-.018.018-.018.018c0 .018.018.018.018.018s.018 0 .018-.018Zm-1.638-.108c-.018 0-.018 0-.018.018s0 .018.018.018l.018-.018-.018-.018Zm4.23 0c-.018 0-.036 0-.036.018s.018.018.036.018l.018-.018-.018-.018Zm1.584-.054c0 .054.054.072.09.09 0-.072-.054-.09-.09-.09Zm-4.626-.018s-.018-.018-.036-.018v.036c.018 0 .018 0 .036-.018Zm.774-.108a.039.039 0 0 0-.036.036c0 .018.018.036.036.036s.018-.018.018-.036 0-.036-.018-.036Zm3.042-.036c.036 0 .018.036.072.036 0-.036-.036-.036-.072-.036Zm-2.826-.036a.039.039 0 0 0-.036.036c0 .018.018.036.036.036s.018-.018.018-.036 0-.036-.018-.036Zm2.592 0a.039.039 0 0 0-.036.036c0 .018.018.036.036.036 0 0 .018-.018.018-.036s-.018-.036-.018-.036Zm.054 0a.039.039 0 0 0-.036.036c0 .018.018.036.036.036s.018-.018.018-.036 0-.036-.018-.036Zm.072-.072a.039.039 0 0 0-.036.036c0 .018.018.036.036.036s.018-.018.018-.036 0-.036-.018-.036Zm-.342-.252a.039.039 0 0 0-.036.036c0 .018.018.036.036.036s.018-.018.018-.036 0-.036-.018-.036Zm-2.772-.072a.039.039 0 0 0-.036.036c0 .018.018.036.036.036s.018-.018.018-.036 0-.036-.018-.036Zm4.338-.036s-.018-.018-.036-.018-.036.018-.036.018c0 .018.018.018.036.018s.018 0 .036-.018Zm-4.086-.072a.039.039 0 0 0-.036.036c0 .018.018.036.036.036s.018-.018.018-.036 0-.036-.018-.036Zm-2.034-.072a.039.039 0 0 0-.036.036c0 .018.018.036.036.036s.018-.018.018-.036 0-.036-.018-.036Zm1.962-.072c0 .036-.036.072-.036.108.036-.036.036-.072.036-.108Zm-.108 0a.039.039 0 0 0-.036.036c0 .018.018.036.036.036s.018-.018.018-.036 0-.036-.018-.036Zm.072-.072a.039.039 0 0 0-.036.036c0 .018.018.036.036.036s.018-.018.018-.036 0-.036-.018-.036Zm-2.034-.072c-.018 0-.018.018-.018.018 0 .018 0 .018.018.018 0 0 .018 0 .018-.018l-.018-.018Zm1.224.036s-.018-.018-.036-.018v.036c.018 0 .018 0 .036-.018Zm.252 0s-.018-.018-.036-.018v.036c.018 0 .018 0 .036-.018Zm-.72-.108c-.018 0-.018.018-.018.036s0 .036.018.036c0 0 .018-.018.018-.036s-.018-.018-.018-.036Zm3.51.036a.039.039 0 0 0-.036.036c0 .018.018.036.036.036s.018-.018.018-.036 0-.036-.018-.036Zm-3.042-.036a.039.039 0 0 0-.036.036c0 .018.018.036.036.036s.018-.018.018-.036 0-.036-.018-.036Zm3.996 0a.039.039 0 0 0-.036.036c0 .018.018.036.036.036s.018-.018.018-.036 0-.036-.018-.036Zm-4.032-.108a.039.039 0 0 0-.036.036c0 .018.018.036.036.036s.018-.018.018-.036 0-.036-.018-.036Zm.774-.072a.039.039 0 0 0-.036.036c0 .018.018.036.036.036s.018-.018.018-.036 0-.036-.018-.036Zm-.432-.036c-.018 0-.018.018-.018.036s0 .036.018.036.018-.018.018-.036 0-.036-.018-.036Zm2.736-.108a.039.039 0 0 0-.036.036c0 .018.018.036.036.036s.018-.018.018-.036 0-.036-.018-.036Zm-3.726 0-.018-.018c-.018 0-.018.018-.018.018v.018c.018 0 .018 0 .036-.018Zm4.68-.036c-.018 0-.018.018-.018.018 0 .018 0 .018.018.018s.018 0 .018-.018c0 0 0-.018-.018-.018Zm-.918-.036a.039.039 0 0 0-.036.036c0 .018.018.036.036.036s.018-.018.018-.036 0-.036-.018-.036Zm.576 0s-.018-.018-.036-.018v.036c.018 0 .018 0 .036-.018Zm.162-.036a.039.039 0 0 0-.036.036c0 .018.018.036.036.036s.018-.018.018-.036 0-.036-.018-.036Zm.792 0a.039.039 0 0 0-.036.036c0 .018.018.036.036.036s.018-.018.018-.036 0-.036-.018-.036Zm-4.356-.036a.039.039 0 0 0-.036.036h.054c0-.018-.018-.018-.018-.036Zm2.718-.072a.039.039 0 0 0-.036.036c0 .018.018.036.036.036s.018-.018.018-.036 0-.036-.018-.036Zm1.674-.036a.039.039 0 0 0-.036.036c0 .018.018.036.036.036s.018-.018.018-.036 0-.036-.018-.036Zm-4.608-.036a.039.039 0 0 0-.036.036h.054c0-.018-.018-.018-.018-.036Zm-.972-.036a.039.039 0 0 0-.036.036c0 .018.018.036.036.036s.018-.018.018-.036 0-.036-.018-.036Zm.864 0a.039.039 0 0 0-.036.036c0 .018.018.036.036.036s.018-.018.018-.036 0-.036-.018-.036Zm4.104-.072a.039.039 0 0 0-.036.036c0 .018.018.036.036.036s.018-.018.018-.036 0-.036-.018-.036Zm.72-.036a.039.039 0 0 0-.036.036c0 .018.018.036.036.036s.018-.018.018-.036 0-.036-.018-.036Zm-1.098-.036a.039.039 0 0 0-.036.036h.054c0-.018-.018-.018-.018-.036Zm.522-.036a.039.039 0 0 0-.036.036c0 .018.018.036.036.036s.018-.018.018-.036 0-.036-.018-.036Zm-4.032-.072v.072h.072c0-.018-.036-.09-.036-.144l-.108.108.072-.036Zm.738.072s0-.018-.018-.018-.018.018-.018.018c0 .018.018.036.018.036s.018-.018.018-.036Zm.252-.036a.039.039 0 0 0-.036.036c0 .018.018.036.036.036s.018-.018.018-.036 0-.036-.018-.036Zm2.898 0a.039.039 0 0 0-.036.036c0 .018.018.036.036.036s.018-.018.018-.036 0-.036-.018-.036Zm-3.33-.036a.039.039 0 0 0-.036.036c0 .018.018.036.036.036s.018-.018.018-.036 0-.036-.018-.036Zm2.448 0a.039.039 0 0 0-.036.036c0 .018.018.036.036.036s.018-.018.018-.036 0-.036-.018-.036Zm-3.474-.036a.039.039 0 0 0-.036.036c0 .018.018.036.036.036s.018-.018.018-.036 0-.036-.018-.036Zm.738.036s0-.018-.018-.018-.018.018-.018.018c0 .018.018.036.018.036s.018-.018.018-.036Zm-.162-.072a.039.039 0 0 0-.036.036c0 .018.018.036.036.036s.018-.018.018-.036 0-.036-.018-.036Zm4.248-.036.036.036c.018 0 .036-.036.036-.072s-.018-.072-.072-.072c0 .054.036.054.036.108h-.036Zm.144 0a.039.039 0 0 0-.036.036c0 .018.018.036.036.036s.018-.018.018-.036 0-.036-.018-.036Zm-.612 0s-.018-.018-.036-.018-.036.018-.036.018c0 .018.018.036.036.036a.039.039 0 0 0 .036-.036Zm.252-.036a.039.039 0 0 0-.036.036c0 .018.018.036.036.036s.018-.018.018-.036 0-.036-.018-.036Zm-.576-.036a.039.039 0 0 0-.036.036c0 .018.018.036.036.036s.018-.018.018-.036 0-.036-.018-.036Zm1.224 0a.039.039 0 0 0-.036.036c0 .018.018.036.036.036s.018-.018.018-.036 0-.036-.018-.036Zm-3.798 0s0-.018-.018-.018-.018.018-.018.018c0 .018.018.036.018.036s.018-.018.018-.036Zm2.124-.036a.039.039 0 0 0-.036.036c0 .018.018.036.036.036s.018-.018.018-.036 0-.036-.018-.036ZM38.1 18.34a.039.039 0 0 0-.036.036c0 .018.018.036.036.036s.018-.018.018-.036 0-.036-.018-.036Zm3.834 0a.039.039 0 0 0-.036.036c0 .018.018.036.036.036s.018-.018.018-.036 0-.036-.018-.036Zm-4.788 0s-.018-.018-.036-.018v.054c.018 0 .018-.018.036-.036Zm3.618-.18a.039.039 0 0 0-.036.036c0 .018.018.036.036.036s.018-.018.018-.036 0-.036-.018-.036Zm-4.158 0-.018-.018c-.018 0-.018.018-.018.018 0 .018 0 .036.018.036 0 0 .018-.018.018-.036Zm.252-.036a.039.039 0 0 0-.036.036c0 .018.018.036.036.036s.018-.018.018-.036 0-.036-.018-.036Zm4.536 0a.039.039 0 0 0-.036.036l.018.018c.018 0 .018-.036.018-.054Zm-2.538-.018h-.018c-.018.018.036.018.036.018 0-.018-.018-.018-.018-.018Zm2.43-.018c-.018 0-.054.036-.054.036 0 .018 0 .018.018.018 0 0 0-.036.054-.036l-.018-.018Zm.216.018a.039.039 0 0 0-.036.036s.018.018.036.018.018-.018.018-.018c0-.018 0-.036-.018-.036Zm-4.356-.072a.039.039 0 0 0-.036.036c0 .018.018.036.036.036s.018-.018.018-.036 0-.036-.018-.036Zm4.086-.072.036.036v-.036h-.036Zm.666-.072c-.036 0-.108.018-.144.072.054 0 .126-.018.144-.072Zm-4.968 0a.039.039 0 0 0-.036.036c0 .018.018.036.036.036s.018-.018.018-.036 0-.036-.018-.036Zm1.602-.072a.039.039 0 0 0-.036.036c0 .018.018.036.036.036s.018-.018.018-.036 0-.036-.018-.036Zm-1.386-.216a.039.039 0 0 0-.036.036c0 .018.018.036.036.036s.018-.018.018-.036 0-.036-.018-.036Zm.882-.216a.039.039 0 0 0-.036.036c0 .018.018.036.036.036s.018-.018.018-.036 0-.036-.018-.036Zm-.558-.036a.039.039 0 0 0-.036.036c0 .018.018.036.036.036s.018-.018.018-.036 0-.036-.018-.036Zm-.432-.324s-.018-.018-.036-.018v.036c.018 0 .018 0 .036-.018Zm1.746-.108a.039.039 0 0 0-.036.036c0 .018.018.036.036.036s.018-.018.018-.036 0-.036-.018-.036Zm-1.206-.072a.039.039 0 0 0-.036.036c0 .018.018.036.036.036s.018-.018.018-.036 0-.036-.018-.036Zm-.576-.036a.039.039 0 0 0-.036.036c0 .018.018.036.036.036s.018-.018.018-.036 0-.036-.018-.036Zm.828-.108a.039.039 0 0 0-.036.036c0 .018.018.036.036.036s.018-.018.018-.036 0-.036-.018-.036Zm-.36-.072a.039.039 0 0 0-.036.036c0 .018.018.036.036.036s.018-.018.018-.036 0-.036-.018-.036Zm-.468-.036c-.018 0-.018.018-.018.018 0 .018 0 .018.018.018 0 0 .018 0 .018-.018l-.018-.018Zm1.746-.072a.039.039 0 0 0-.036.036c0 .018.018.036.036.036s.018-.018.018-.036 0-.036-.018-.036Zm-.648-.036.036.036v-.036H38.1Zm-1.458-.252c.018.036.036.054.072.054v-.054h-.072Zm1.926-.36a.039.039 0 0 0-.036.036c-.018 0 .054 0 .036-.036Zm-1.782-.072-.018-.018c-.018 0-.018.018-.018.018 0 .018 0 .018.018.018 0 0 .018 0 .018-.018Zm.396-.036a.039.039 0 0 0-.036.036c0 .018.018.036.036.036s.018-.018.018-.036 0-.036-.018-.036Zm.54-.072.036.036v-.036h-.036Zm.774-.216a.039.039 0 0 0-.036.036c0 .018.018.036.036.036s.018-.018.018-.036 0-.036-.018-.036Zm-.63-.072a.039.039 0 0 0-.036.036c0 .018.018.036.036.036s.018-.018.018-.036 0-.036-.018-.036Zm.198-.27c0 .036.036.054.036.054s.018 0 .018-.018l-.054-.054v.018Zm.324-.018a.039.039 0 0 0-.036.036c0 .018.018.036.036.036s.018-.018.018-.036 0-.036-.018-.036Zm2.304 0a.039.039 0 0 0-.036.036c0 .018.018.036.036.036s.018-.018.018-.036 0-.036-.018-.036Zm.36-.036a.039.039 0 0 0-.036.036c0 .018.018.036.036.036s.018-.018.018-.036 0-.036-.018-.036Zm-2.916-.108a.039.039 0 0 0-.036.036c0 .018.018.036.036.036s.018-.018.018-.036 0-.036-.018-.036Zm2.88 0a.039.039 0 0 0-.036.036c0 .018.018.036.036.036s.018-.018.018-.036 0-.036-.018-.036Zm.738 0a.039.039 0 0 0-.036.036c0 .018.018.036.036.036s.018-.018.018-.036 0-.036-.018-.036Zm-4.122-.072c0 .054.036.09.09.09 0 0 .018-.018.036-.018-.036-.036-.072-.072-.126-.072Zm4.518 0c0 .054.054.09.054.09.018-.018.054-.018.054-.054-.018-.036-.054-.036-.108-.036Zm-.108-.108c0 .036-.018.144.036.144l.072-.108-.072.036v-.072h-.036Zm-.648-.018a.039.039 0 0 0-.036.036s.018.018.036.018.018-.018.018-.018c0-.018 0-.036-.018-.036Zm-.774-.036a.039.039 0 0 0-.036.036s.018.018.036.018.018-.018.018-.018c0-.018 0-.036-.018-.036Zm.36 0a.039.039 0 0 0-.036.036s.018.018.036.018.018-.018.018-.018c0-.018 0-.036-.018-.036Zm-3.222-.072c-.018 0-.036 0-.036.018s.018.018.036.018l.018-.018-.018-.018Zm3.078.036c0-.018-.036-.018-.054-.018-.018 0-.018 0-.018.018 0 0 0 .018.018.018s.036 0 .054-.018Zm.522-.054s.018.054.072.054l-.072-.072v.018Zm.792.018a.039.039 0 0 0-.036.036c0 .018.018.036.036.036s.018-.018.018-.036 0-.036-.018-.036Zm-1.422-.036a.039.039 0 0 0-.036.036c0 .018.018.036.036.036s.018-.018.018-.036 0-.036-.018-.036Zm.774 0a.039.039 0 0 0-.036.036c0 .018.018.036.036.036s.018-.018.018-.036 0-.036-.018-.036Zm.576 0a.039.039 0 0 0-.036.036c0 .018.018.036.036.036s.018-.018.018-.036 0-.036-.018-.036Zm-5.688-.036.036.036v-.036h-.036Zm4.302 0a.039.039 0 0 0-.036.036c0 .018.018.036.036.036s.018-.018.018-.036 0-.036-.018-.036Zm1.602 0s0-.018-.018-.018c0 0-.018.036-.018.054.054 0 .036-.054.036-.036ZM38.1 14.56a.039.039 0 0 0-.036.036c0 .018.018.036.036.036s.018-.018.018-.036 0-.036-.018-.036Zm2.7 0a.039.039 0 0 0-.036.036c0 .018.018.036.036.036s.018-.018.018-.036 0-.036-.018-.036Zm1.35 0a.039.039 0 0 0-.036.036c0 .018.018.036.036.036s.018-.018.018-.036 0-.036-.018-.036Zm-5.4 0c0-.018-.036-.018-.054-.018-.018 0-.018 0-.018.018 0 0 0 .018.018.018s.036 0 .054-.018Zm.468-.036a.039.039 0 0 0-.036.036c0 .018.018.036.036.036s.018-.018.018-.036 0-.036-.018-.036Zm.738 0c-.018 0-.018.018-.018.036s0 .036.018.036.018-.018.018-.036 0-.036-.018-.036Zm3.24 0a.039.039 0 0 0-.036.036c0 .018.018.036.036.036s.018-.018.018-.036 0-.036-.018-.036Zm.918-.108c-.018.018-.072.054-.072.108.072 0 .09-.036.09-.072 0-.018-.018-.036-.018-.036Zm.396.036a.039.039 0 0 0-.036.036c0 .018.018.036.036.036s.018-.018.018-.036 0-.036-.018-.036Zm-5.832-.036a.039.039 0 0 0-.036.036c0 .018.018.036.036.036s.018-.018.018-.036 0-.036-.018-.036Zm1.188-.036c0-.018-.036-.018-.054-.018-.018 0-.018 0-.018.018 0 0 0 .018.018.018s.036 0 .054-.018Zm3.6-.036a.039.039 0 0 0-.036.036c0 .018.018.036.036.036s.018-.018.018-.036 0-.036-.018-.036Zm.54 0a.039.039 0 0 0-.036.036c0 .018.018.036.036.036s.018-.018.018-.036 0-.036-.018-.036Zm-4.464-.036a.039.039 0 0 0-.036.036c0 .018.018.036.036.036s.018-.018.018-.036 0-.036-.018-.036Zm.558 0a.039.039 0 0 0-.036.036c0 .018.018.036.036.036s.018-.018.018-.036 0-.036-.018-.036Zm-.81 0c0-.018-.018-.018-.036-.018v.036c.018 0 .018 0 .036-.018Zm4.356-.036a.039.039 0 0 0-.036.036c0 .018.018.036.036.036s.018-.018.018-.036 0-.036-.018-.036Zm-.18-.036a.039.039 0 0 0-.036.036c0 .018.018.036.036.036s.018-.018.018-.036 0-.036-.018-.036Zm-4.824-.036a.039.039 0 0 0-.036.036c0 .018.018.036.036.036s.018-.018.018-.036 0-.036-.018-.036Zm1.602-.108c0 .018.036.108.036.144v-.144h-.036Zm-.45.072a.039.039 0 0 0-.036.036c0 .018.018.036.036.036s.018-.018.018-.036 0-.036-.018-.036Zm4.374-.036s-.054 0-.054.036l.072-.036h-.018Zm-.846-.072c-.018 0-.018.018-.018.036s0 .036.018.036.018-.018.018-.036 0-.036-.018-.036Zm-.252-.054s.036.054.09.054l.036-.036-.108-.036c-.018 0-.018.018-.018.018Zm-2.646-.018a.039.039 0 0 0-.036.036c0 .018.018.036.036.036s.018-.018.018-.036 0-.036-.018-.036Zm-.216-.036.036.036v-.036h-.036Zm2.556-.036a.039.039 0 0 0-.036.036c0 .018.018.036.036.036s.018-.018.018-.036 0-.036-.018-.036Zm.396 0a.039.039 0 0 0-.036.036c0 .018.018.036.036.036s.018-.018.018-.036 0-.036-.018-.036Zm-4.77-.036a.039.039 0 0 0-.036.036c0 .018.018.036.036.036s.018-.018.018-.036 0-.036-.018-.036Zm4.266.036s-.018-.018-.036-.018v.036c.018 0 .018 0 .036-.018Zm.882-.036c-.018 0-.018 0-.018.018s0 .018.018.018.018-.018.018-.018 0-.018-.018-.018Zm.432 0a.039.039 0 0 0-.036.036c0 .018.018.036.036.036s.018-.018.018-.036 0-.036-.018-.036Zm-1.386-.036a.039.039 0 0 0-.036.036c0 .018.018.036.036.036s.018-.018.018-.036 0-.036-.018-.036Zm-2.97-.036a.039.039 0 0 0-.036.036c0 .018.018.036.036.036s.018-.018.018-.036 0-.036-.018-.036Zm-.072-.036c-.018 0-.054.018-.054.018 0 .018 0 .018.018.018a.039.039 0 0 0 .036-.036Zm3.078 0c-.018 0-.018.018-.018.018 0 .018 0 .018.018.018l.018-.018-.018-.018Zm.18.036s-.018-.018-.036-.018v.036c.018 0 .018 0 .036-.018Zm.396-.108a.039.039 0 0 0-.036.036c0 .018.018.036.036.036s.018-.018.018-.036 0-.036-.018-.036Zm.666-.036.072.036v-.036h-.072Zm-3.996-.18a.039.039 0 0 0-.036.036c0 .018.018.036.036.036s.018-.018.018-.036 0-.036-.018-.036Zm4.248 0a.039.039 0 0 0-.036.036c0 .018.018.036.036.036s.018-.018.018-.036 0-.036-.018-.036Zm-1.386-.036a.039.039 0 0 0-.036.036c0 .018.018.036.036.036s.018-.018.018-.036 0-.036-.018-.036Zm-2.412-.036a.039.039 0 0 0-.036.036c0 .018.018.036.036.036s.018-.018.018-.036 0-.036-.018-.036Zm-.36-.036c-.018 0-.018.018-.018.036s0 .036.018.036.018-.018.018-.036 0-.036-.018-.036Zm4.446-.108a.039.039 0 0 0-.036.036c0 .018.018.036.036.036s.018-.018.018-.036 0-.036-.018-.036Zm-5.436-.072c-.018 0-.018.018-.018.018 0 .018 0 .018.018.018 0 0 .018 0 .018-.018l-.018-.018Zm.108 0 .036.036v-.036h-.036Zm.108 0a.039.039 0 0 0-.036.036c0 .018.018.036.036.036s.018-.018.018-.036 0-.036-.018-.036Zm4.086 0a.039.039 0 0 0-.036.036c0 .018.018.036.036.036s.018-.018.018-.036 0-.036-.018-.036Zm.918 0a.039.039 0 0 0-.036.036c0 .018.018.036.036.036s.018-.018.018-.036 0-.036-.018-.036Zm-1.314-.036a.039.039 0 0 0-.036.036c0 .018.018.036.036.036s.018-.018.018-.036 0-.036-.018-.036Zm-2.916 0s0-.018-.018-.018v.036c.018 0 .018 0 .018-.018Zm2.664-.036a.039.039 0 0 0-.036.036c0 .018.018.036.036.036s.018-.018.018-.036 0-.036-.018-.036Zm-2.016-.036a.039.039 0 0 0-.036.036c0 .018.018.036.036.036s.018-.018.018-.036 0-.036-.018-.036Zm-1.638-.072a.039.039 0 0 0-.036.036c0 .018.018.036.036.036s.018-.018.018-.036 0-.036-.018-.036Zm2.178 0a.039.039 0 0 0-.036.036c0 .018.018.036.036.036s.018-.018.018-.036 0-.036-.018-.036Zm.072-.144a.161.161 0 0 0-.162.162c.09 0 .108-.108.18-.108.018 0 .036.018.054.018 0-.072-.018-.072-.072-.072Zm-.612.072a.039.039 0 0 0-.036.036c0 .018.018.036.036.036s.018-.018.018-.036 0-.036-.018-.036Zm.396.036-.018-.018c-.018 0-.018.018-.018.018 0 .018 0 .018.018.018 0 0 .018 0 .018-.018Zm1.26-.036c.018.036.036.054.072.054 0-.036 0-.072-.036-.09l-.036.036Zm.216-.036-.036.072c.036-.018.036-.036.036-.072Zm1.368 0c-.018 0-.054.054-.09.072 0 0 .108 0 .108-.072h-.018Zm-2.484-.036a.039.039 0 0 0-.036.036c0 .018.018.036.036.036s.018-.018.018-.036 0-.036-.018-.036Zm.396 0c-.018 0-.018.018-.018.018 0 .018 0 .018.018.018 0 0 .018 0 .018-.018l-.018-.018Zm1.962-.072c0 .036.018.09-.036.108h.09c0-.036 0-.09-.054-.108Zm-2.07.036a.039.039 0 0 0-.036.036c0 .018.018.036.036.036s.018-.018.018-.036 0-.036-.018-.036Zm-2.898-.036.036.036v-.036h-.036Zm4.824 0c-.018 0-.018.018-.018.018 0 .018 0 .018.018.018s.018 0 .018-.018c0 0 0-.018-.018-.018Zm-1.746-.036a.039.039 0 0 0-.036.036c0 .018.018.036.036.036s.018-.018.018-.036 0-.036-.018-.036Zm.72-.036c-.018 0-.018.036-.018.054 0 .018 0 .018.018.018 0 0 .018-.018.018-.036s-.018-.018-.018-.036Zm-3.474-.018c0 .054.036.072.09.072 0-.054-.054-.09-.09-.09v.018Zm.99.018a.039.039 0 0 0-.036.036c0 .018.018.036.036.036s.018-.018.018-.036 0-.036-.018-.036Zm.72.036s0-.018-.018-.018-.018.018-.018.018c0 .018.018.018.018.018s.018 0 .018-.018Zm1.008-.036a.039.039 0 0 0-.036.036c0 .018.018.036.036.036s.018-.018.018-.036 0-.036-.018-.036Zm.18-.018v.018c0 .018.036.036.072.036 0 0 0-.072-.072-.072v.018Zm-2.934-.09c-.036.036-.036.072-.036.108a.193.193 0 0 0 .036-.108Zm.72.072a.039.039 0 0 0-.036.036c0 .018.018.036.036.036s.018-.018.018-.036 0-.036-.018-.036Zm1.782 0 .036.036v-.036h-.036Zm.18 0c.018.018-.036-.018-.036.036-.018 0 .054 0 .036-.036Zm1.26 0a.039.039 0 0 0-.036.036c0 .018.018.036.036.036s.018-.018.018-.036 0-.036-.018-.036Zm-1.8-.036a.039.039 0 0 0-.036.036c0 .018.018.036.036.036s.018-.018.018-.036 0-.036-.018-.036Zm.072 0a.039.039 0 0 0-.036.036c0 .018.018.036.036.036s.018-.018.018-.036 0-.036-.018-.036Zm.9.036-.018-.018c-.018 0-.018.018-.018.018 0 .018 0 .018.018.018 0 0 .018 0 .018-.018Zm.18-.036c-.018 0-.018.018-.018.018 0 .018 0 .018.018.018 0 0 .018 0 .018-.018l-.018-.018Zm.288 0a.039.039 0 0 0-.036.036c0 .018.018.036.036.036s.018-.018.018-.036 0-.036-.018-.036ZM39 12.616a.039.039 0 0 0-.036.036c0 .018.018.036.036.036s.018-.018.018-.036 0-.036-.018-.036Zm.468-.036a.039.039 0 0 0-.036.036c0 .018.018.036.036.036s.018-.018.018-.036 0-.036-.018-.036Zm1.476-.072c0 .036.054.054.072.054 0-.036 0-.108-.036-.126a.136.136 0 0 0-.036.072Zm.558 0a.039.039 0 0 0-.036.036c0 .018.018.036.036.036s.018-.018.018-.036 0-.036-.018-.036Zm-3.564-.072c-.018 0-.036.036-.036.036-.018 0-.018.018-.018.018s0 .018.018.018c0 0 .036-.036.036-.072Zm3.636.036.036.036v-.036h-.036Zm-4.428-.036a.039.039 0 0 0-.036.036c0 .018.018.036.036.036s.018-.018.018-.036 0-.036-.018-.036Zm3.222-.036v.072l.036-.072h-.036Zm1.998.072-.018-.018c-.018 0-.018.018-.018.018 0 .018 0 .018.018.018 0 0 .018 0 .018-.018Zm-5.4-.072a.039.039 0 0 0-.036.036c0 .018.018.036.036.036s.018-.018.018-.036 0-.036-.018-.036Zm3.078 0c-.018 0-.018.018-.018.018 0 .018 0 .018.036.018 0-.018-.018-.018-.018-.036Zm.54 0a.039.039 0 0 0-.036.036c0 .018.018.036.036.036s.018-.018.018-.036 0-.036-.018-.036Zm.954 0a.039.039 0 0 0-.036.036c0 .018.018.036.036.036s.018-.018.018-.036 0-.036-.018-.036Zm-3.33-.036a.039.039 0 0 0-.036.036c0 .018.018.036.036.036s.018-.018.018-.036 0-.036-.018-.036Zm.252 0c-.018 0-.018.018-.018.036h.036c0-.018 0-.018-.018-.036Zm1.332 0a.039.039 0 0 0-.036.036c0 .018.018.036.036.036s.018-.018.018-.036 0-.036-.018-.036Zm.36.036-.018-.018c-.018 0-.018.018-.018.018 0 .018 0 .018.018.018 0 0 .018 0 .018-.018Zm1.314-.036a.039.039 0 0 0-.036.036c0 .018.018.036.036.036s.018-.018.018-.036 0-.036-.018-.036Zm-.666 0s-.018-.018-.036-.018v.036c.018 0 .018 0 .036-.018Zm-1.836-.072a.039.039 0 0 0-.036.036c0 .018.018.036.036.036s.018-.018.018-.036 0-.036-.018-.036Zm-.18-.036a.039.039 0 0 0-.036.036c0 .018.018.036.036.036s.018-.018.018-.036 0-.036-.018-.036Zm-1.458-.036a.039.039 0 0 0-.036.036c0 .018.018.036.036.036s.018-.018.018-.036 0-.036-.018-.036Zm1.89 0a.039.039 0 0 0-.036.036c0 .018.018.036.036.036s.018-.018.018-.036 0-.036-.018-.036Zm1.08-.036a.039.039 0 0 0-.036.036c0 .018.018.036.036.036s.018-.018.018-.036 0-.036-.018-.036Zm-.216-.036a.039.039 0 0 0-.036.036c0 .018.018.036.036.036s.018-.018.018-.036 0-.036-.018-.036Zm.108 0a.039.039 0 0 0-.036.036c0 .018.018.036.036.036s.018-.018.018-.036 0-.036-.018-.036Zm.648.036s-.018-.018-.036-.018v.036c.018 0 .018 0 .036-.018Zm.954-.036a.039.039 0 0 0-.036.036c0 .018.018.036.036.036s.018-.018.018-.036 0-.036-.018-.036Zm.108 0c-.018 0-.018.018-.018.036h.036c0-.018 0-.018-.018-.036Zm-1.206-.216.036.036v-.036h-.036Zm-.072-.216s-.018-.018-.036-.018v.054c.018 0 .018-.018.036-.036Zm.108-.036a.039.039 0 0 0-.036.036h.054c0-.018-.018-.018-.018-.036Zm-1.26-.072a.039.039 0 0 0-.036.036c0 .018.018.036.036.036s.018-.018.018-.036 0-.036-.018-.036Zm.252 0c-.018 0-.018.018-.018.036h.036c0-.018-.018-.018-.018-.036Zm-.468-.144s-.018-.018-.036-.018-.036.018-.036.018c0 .018.018.036.036.036a.039.039 0 0 0 .036-.036Zm-1.782-.054a.039.039 0 0 0-.036.036s.018.018.036.018.018-.018.018-.018c0-.018 0-.036-.018-.036Zm1.818-.108s.054.108.072.108a.264.264 0 0 0 .072-.036c-.036-.072-.054-.09-.108-.09 0 0-.036 0-.036.018Zm.18.072a.039.039 0 0 0-.036.036s.018.018.036.018.018-.018.018-.018c0-.018 0-.036-.018-.036Zm-.9-.144a.039.039 0 0 0-.036.036c0 .018.018.036.036.036s.018-.018.018-.036 0-.036-.018-.036Zm1.008-.108c-.036 0-.036.036-.036.072h.036v-.072Zm.252 0a.039.039 0 0 0-.036.036c0 .018.018.036.036.036s.018-.018.018-.036 0-.036-.018-.036ZM44.054 21.148v-8.064c-.09-.432-.054-1.008-.054-1.278 0-.378.072-.504.576-.504.09 0 .198.018.216.072l.072-.072c.27 0 .576-.018.864-.018.468 0 .846.054.846.378 0 .09.018.234-.108.252 0 0 .108.036.108.072l.036 5.454c0 .054-.036.252-.036.288h-.018c0 .018.054.144.054.252v5.04c0 .108-.18.252-.288.252-.288 0-1.656-.036-1.944-.036-.486 0-.252-1.764-.324-2.088Zm.774 1.944s0-.018-.018-.018-.018.018-.018.018c0 .018.018.018.018.018s.018 0 .018-.018Zm1.152-.324a.039.039 0 0 0-.036.036c0 .018.018.036.036.036 0 0 .018-.018.018-.036s-.018-.036-.018-.036Zm-1.638-.072a.039.039 0 0 0-.036.036c0 .018.018.036.036.036s.018-.018.018-.036 0-.036-.018-.036Zm.702-.126s0-.018-.018-.018c0 0-.018.036-.018.054.054 0 .036-.054.036-.036Zm.324 0a.039.039 0 0 0-.036.036s.018.018.036.018.018-.018.018-.018c0-.018 0-.036-.018-.036Zm-.468-.216a.039.039 0 0 0-.036.036c0 .018.018.036.036.036s.018-.018.018-.036 0-.036-.018-.036Zm1.044 0a.039.039 0 0 0-.036.036c0 .018.018.036.036.036s.018-.018.018-.036 0-.036-.018-.036Zm-.144-.036s-.018-.018-.036-.018v.036c.018 0 .018 0 .036-.018Zm-1.422-.108a.039.039 0 0 0-.036.036c0 .018.018.036.036.036s.018-.018.018-.036 0-.036-.018-.036Zm.288-.144a.039.039 0 0 0-.036.036c0 .018.018.036.036.036 0 0 .018-.018.018-.036s-.018-.036-.018-.036Zm1.656-.144a.039.039 0 0 0-.036.036c0 .018.018.036.036.036s.018-.018.018-.036 0-.036-.018-.036Zm-1.386-.072a.039.039 0 0 0-.036.036c0 .018.018.036.036.036s.018-.018.018-.036 0-.036-.018-.036Zm.396-.108a.039.039 0 0 0-.036.036c0 .018.018.036.036.036s.018-.018.018-.036 0-.036-.018-.036Zm-.576-.036a.039.039 0 0 0-.036.036c0 .018.018.036.036.036s.018-.018.018-.036 0-.036-.018-.036Zm.576 0s-.018-.018-.036-.018-.036.018-.036.018c0 .018.018.018.036.018s.018 0 .036-.018Zm.468-.072a.039.039 0 0 0-.036.036c0 .018.018.036.036.036s.018-.018.018-.036 0-.036-.018-.036Zm-.108-.072a.039.039 0 0 0-.036.036c0 .018.018.036.036.036s.018-.018.018-.036 0-.036-.018-.036Zm-.108 0s-.036-.018-.054-.018c-.018 0-.018.018-.018.018s0 .018.018.018.036 0 .054-.018Zm-.918-.738a.039.039 0 0 0-.036.036c0 .018.018.036.036.036 0 0 .018-.018.018-.036s-.018-.036-.018-.036Zm.846-.072a.039.039 0 0 0-.036.036c0 .018.018.036.036.036s.018-.018.018-.036 0-.036-.018-.036Zm-.828-.576c-.036 0-.072.036-.072.09.018 0 .234.018.288-.054-.018.018-.054.018-.09.018-.108 0-.09-.054-.126-.054Zm1.296.036a.039.039 0 0 0-.036.036c0 .018.018.036.036.036 0 0 .018-.018.018-.036s-.018-.036-.018-.036Zm-1.566-.036a.039.039 0 0 0-.036.036c0 .018.018.036.036.036s.018-.018.018-.036 0-.036-.018-.036Zm1.134 0a.039.039 0 0 0-.036.036c0 .018.018.036.036.036s.018-.018.018-.036 0-.036-.018-.036Zm-.576-.108c-.018 0-.018.018-.018.036h.036c0-.018-.018-.018-.018-.036Zm.936-.072a.039.039 0 0 0-.036.036c0 .018.018.036.036.036s.018-.018.018-.036 0-.036-.018-.036Zm-.036-.018c-.018 0-.036 0-.036.018h.054c0-.018-.018-.018-.018-.018Zm-.576-.144a.039.039 0 0 0-.036.036c0 .018.018.036.036.036s.018-.018.018-.036 0-.036-.018-.036Zm-.918-.036c0-.018-.018-.018-.036-.018v.036c.018 0 .018 0 .036-.018Zm.882 0c0-.018-.018-.018-.018-.018-.018 0-.018 0-.018.018s0 .018.018.018c0 0 .018 0 .018-.018Zm.036-.18a.039.039 0 0 0-.036.036c0 .018.018.036.036.036s.018-.018.018-.036 0-.036-.018-.036Zm0-.108a.039.039 0 0 0-.036.036c0 .018.018.036.036.036s.018-.018.018-.036 0-.036-.018-.036Zm-.36-.072a.039.039 0 0 0-.036.036c0 .018.018.036.036.036s.018-.018.018-.036 0-.036-.018-.036Zm.432-.072a.039.039 0 0 0-.036.036c0 .018.018.036.036.036s.018-.018.018-.036 0-.036-.018-.036Zm-.108-.252c-.018 0-.018.018-.018.018 0 .018 0 .018.018.018 0 0 .018 0 .018-.018l-.018-.018Zm-.468-.036a.039.039 0 0 0-.036.036c0 .018.018.036.036.036s.018-.018.018-.036 0-.036-.018-.036Zm.576 0a.039.039 0 0 0-.036.036c0 .018.018.036.036.036s.018-.018.018-.036 0-.036-.018-.036Zm-1.062-.774a.039.039 0 0 0-.036.036c0 .018.018.036.036.036s.018-.018.018-.036 0-.036-.018-.036Zm1.062-.18a.256.256 0 0 0-.036.108c0-.036.036-.072.036-.108Zm.072.072a.039.039 0 0 0-.036.036c0 .018.018.036.036.036s.018-.018.018-.036 0-.036-.018-.036Zm-.882-.036a.039.039 0 0 0-.036.036c0 .018.018.036.036.036s.018-.018.018-.036 0-.036-.018-.036Zm.108-.072-.036.072s0 .018.018.018.036-.018.036-.054l-.018-.036Zm.198.072s0-.018-.018-.018-.018.018-.018.018c0 .018.018.018.018.018s.018 0 .018-.018Zm.108-.108c-.036.018-.036.036-.036.072.036 0 .036-.054.036-.072Zm-.45 0a.039.039 0 0 0-.036.036c0 .018.018.036.036.036s.018-.018.018-.036 0-.036-.018-.036Zm.63 0a.039.039 0 0 0-.036.036c0 .018.018.036.036.036s.018-.018.018-.036 0-.036-.018-.036Zm-.288 0s0-.018-.018-.018-.018.018-.018.018c0 .018.018.018.018.018s.018 0 .018-.018Zm.54 0-.018-.018c-.018 0-.018.018-.018.018 0 .018 0 .018.018.018 0 0 .018 0 .018-.018Zm-.81-.072a.039.039 0 0 0-.036.036c0 .018.018.036.036.036s.018-.018.018-.036 0-.036-.018-.036Zm.414-.036c0 .018.018.072.036.072s.126-.018.126-.072h-.162Zm.252.036a.039.039 0 0 0-.036.036c0 .018.018.036.036.036s.018-.018.018-.036 0-.036-.018-.036Zm-.576-.036c-.018 0-.018.018-.018.036s0 .036.018.036.018-.018.018-.036 0-.036-.018-.036Zm.72-.108c-.054.054-.072.054-.072.108.072 0 .072-.054.072-.108Zm-.486.036H44.9c-.018 0-.036.036-.072.036h.054c.018 0 .054 0 .054-.036h-.018Zm-.684-.072a.039.039 0 0 0-.036.036c0 .018.018.036.036.036s.018-.018.018-.036 0-.036-.018-.036Zm.288-.252c0 .036.018.054.018.072 0 .108-.108.072-.108.198.144 0 .09-.09.198-.162l-.108-.108Zm-.216.18a.039.039 0 0 0-.036.036c0 .018.018.036.036.036s.018-.018.018-.036 0-.036-.018-.036Zm.378-.036s0-.018-.018-.018v.036c.018 0 .018 0 .018-.018Zm0-.144c-.018 0-.018.018-.018.036s0 .036.018.036.018-.018.018-.036 0-.036-.018-.036Zm-.018-.036a.039.039 0 0 0-.036.036c0 .018.018.036.036.036 0 0 .018-.018.018-.036s-.018-.036-.018-.036Zm1.206 0c0 .036.036.036.072.036-.036 0-.018-.036-.072-.036Zm-.972-.162a.039.039 0 0 0-.036.036s.018.018.036.018.018-.018.018-.018c0-.018 0-.036-.018-.036Zm-.414-.036.072.036c0-.036-.036-.072-.036-.072l-.036.036Zm.81-.072a.136.136 0 0 0-.072.036h.108a.039.039 0 0 0-.036-.036Zm-.81-.036a.039.039 0 0 0-.036.036c0 .018.018.036.036.036s.018-.018.018-.036 0-.036-.018-.036Zm1.8 0a.039.039 0 0 0-.036.036c0 .018.018.036.036.036s.018-.018.018-.036 0-.036-.018-.036Zm-1.728-.108a.039.039 0 0 0-.036.036c0 .018.018.036.036.036s.018-.018.018-.036 0-.036-.018-.036Zm1.35-.036a.039.039 0 0 0-.036.036c0 .018.018.036.036.036s.018-.018.018-.036 0-.036-.018-.036Zm-1.116-.072a.039.039 0 0 0-.036.036c0 .018.018.036.036.036s.018-.018.018-.036 0-.036-.018-.036Zm-.288-.234c0 .054-.018.144.054.162 0-.018.036-.09.036-.108 0-.036-.072-.054-.09-.054Zm.612.09-.018-.018c-.018 0-.018.018-.018.018 0 .018 0 .018.018.018 0 0 .018 0 .018-.018Zm-.918-.144a.039.039 0 0 0-.036.036c0 .018.018.036.036.036s.018-.018.018-.036 0-.036-.018-.036Zm.882 0a.039.039 0 0 0-.036.036c0 .018.018.036.036.036s.018-.018.018-.036 0-.036-.018-.036Zm-.45-.36v.09c.072 0 .198 0 .27-.054-.018 0-.18-.036-.216-.036h-.054Zm1.026.036a.039.039 0 0 0-.036.036c0 .018.018.036.036.036s.018-.018.018-.036 0-.036-.018-.036Zm-1.242-.036a.039.039 0 0 0-.036.036c0 .018.018.036.036.036s.018-.018.018-.036 0-.036-.018-.036Zm1.134 0a.039.039 0 0 0-.036.036c0 .018.018.036.036.036s.018-.018.018-.036 0-.036-.018-.036Zm-.576-.144a.039.039 0 0 0-.036.036c0 .018.018.036.036.036s.018-.018.018-.036 0-.036-.018-.036Zm.072-.036a.039.039 0 0 0-.036.036c0 .018.018.036.036.036s.018-.018.018-.036 0-.036-.018-.036Zm.828-.036a.039.039 0 0 0-.036.036h.054c0-.018-.018-.018-.018-.036Zm-1.494-.198-.018-.018c-.036 0-.018.054-.018.054a.039.039 0 0 0 .036-.036Zm.558.036v-.018c-.018 0-.036 0-.036.018s.018.018.018.018.018 0 .018-.018Zm.324 0c0-.018-.018-.018-.018-.018-.018 0-.018 0-.018.018s0 .018.018.018c0 0 .018 0 .018-.018Zm.036-.144c0-.018-.018-.018-.018-.018-.018 0-.018 0-.018.018s0 .018.018.018c0 0 .018 0 .018-.018Zm.36-.072c.018.018.036.036.072.036v-.036h-.072Zm-.36-.072a.039.039 0 0 0-.036.036c0 .018.018.036.036.036s.018-.018.018-.036 0-.036-.018-.036Zm-.36-.108a.039.039 0 0 0-.036.036c0 .018.018.036.036.036s.018-.018.018-.036 0-.036-.018-.036Zm.432-.036c-.018 0-.018.018-.018.018 0 .018 0 .018.018.018 0 0 .018 0 .018-.018l-.018-.018Zm.612-.036c0 .018.018.036.018.036.036 0 .054-.018.072-.036h-.09Zm-.36-.036c-.018 0-.018.018-.018.018 0 .018 0 .018.018.018 0 0 .018 0 .018-.018l-.018-.018Zm-.792-.036a.039.039 0 0 0-.036.036c0 .018.018.036.036.036s.018-.018.018-.036 0-.036-.018-.036Zm.432-.144c-.018 0-.018.018-.018.018 0 .018 0 .018.018.018 0 0 .018 0 .018-.018l-.018-.018Zm.108-.036a.039.039 0 0 0-.036.036c0 .018.018.036.036.036s.018-.018.018-.036 0-.036-.018-.036Zm.504-.396a.039.039 0 0 0-.036.036c0 .018.018.036.036.036s.018-.018.018-.036 0-.036-.018-.036Zm-1.566-.378a.039.039 0 0 0-.036.036c0 .018.018.036.036.036s.018-.018.018-.036 0-.036-.018-.036Zm.36-.108a.039.039 0 0 0-.036.036c0 .018.018.036.036.036 0 0 .018-.018.018-.036s-.018-.036-.018-.036Zm-.108-.036a.039.039 0 0 0-.036.036c0 .018.018.036.036.036s.018-.018.018-.036 0-.036-.018-.036Zm.774 0a.039.039 0 0 0-.036.036c0 .018.018.036.036.036s.018-.018.018-.036 0-.036-.018-.036Zm-.504-.036a.039.039 0 0 0-.036.036c0 .018.018.036.036.036s.018-.018.018-.036 0-.036-.018-.036Zm-.162-.072v.072h.018l-.018-.072Zm.306 0c-.036 0-.036.036-.036.072.036 0 .036-.054.036-.072Zm.396.036a.039.039 0 0 0-.036.036c0 .018.018.036.036.036s.018-.018.018-.036 0-.036-.018-.036Zm-.846-.036a.039.039 0 0 0-.036.036c0 .018.018.036.036.036s.018-.018.018-.036 0-.036-.018-.036Zm.306-.036a.039.039 0 0 0-.036.036c0 .018.018.036.036.036s.018-.018.018-.036 0-.036-.018-.036Zm.576.036-.018-.018c-.018 0-.018.018-.018.018 0 .018 0 .018.018.018 0 0 .018 0 .018-.018Zm.36-.036a.039.039 0 0 0-.036.036c0 .018.018.036.036.036s.018-.018.018-.036 0-.036-.018-.036Zm-1.134 0s-.018-.018-.036-.018v.036c.018 0 .018 0 .036-.018Zm.378-.072c0 .054.036.072.072.072.054 0 .09-.018.09-.072l-.018-.036-.144.036Zm.252.036c-.018 0-.018.018-.018.018 0 .018 0 .018.018.018 0 0 .018 0 .018-.018l-.018-.018Zm.144-.144c-.054.054-.072.054-.072.108.072 0 .072-.054.072-.108Zm.846.036a.039.039 0 0 0-.036.036c0 .018.018.036.036.036s.018-.018.018-.036 0-.036-.018-.036Zm-2.016-.072a.039.039 0 0 0-.036.036c0 .018.018.036.036.036s.018-.018.018-.036 0-.036-.018-.036Zm.288-.252c0 .144-.09.162-.09.27.144 0 .108-.144.234-.144l-.144-.126Zm-.216.18a.039.039 0 0 0-.036.036c0 .018.018.036.036.036s.018-.018.018-.036 0-.036-.018-.036Zm2.016-.144a.039.039 0 0 0-.036.036c0 .018.018.036.036.036s.018-.018.018-.036 0-.036-.018-.036Zm-1.638-.036c-.018 0-.018.018-.018.036s0 .036.018.036.018-.018.018-.036 0-.036-.018-.036Zm1.602 0a.039.039 0 0 0-.036.036c0 .018.018.036.036.036s.018-.018.018-.036 0-.036-.018-.036Zm-1.62-.036a.039.039 0 0 0-.036.036c0 .018.018.036.036.036 0 0 .018-.018.018-.036s-.018-.036-.018-.036Zm1.584 0a.039.039 0 0 0-.036.036c0 .018.018.036.036.036s.018-.018.018-.036 0-.036-.018-.036Zm-.27-.072a.039.039 0 0 0-.036.036h.054c0-.018-.018-.018-.018-.036Zm-.432-.036a.039.039 0 0 0-.036.036c0 .018.018.036.036.036s.018-.018.018-.036 0-.036-.018-.036Zm.216-.072-.036.072.108-.036-.072-.036Zm-1.278-.036.072.036c0-.018-.036-.036-.036-.072l-.036.036Zm1.494.036s-.018-.018-.036-.018v.054c.018 0 .018-.018.036-.036Zm.378-.072a.039.039 0 0 0-.036.036c0 .018.018.036.036.036s.018-.018.018-.036 0-.036-.018-.036Zm-1.026-.036c-.036 0-.09 0-.108.036h.108v-.036Zm.99.018a.039.039 0 0 0-.036.036s.018.018.036.018.018-.018.018-.018c0-.018 0-.036-.018-.036Zm-1.836-.036a.039.039 0 0 0-.036.036s.018.018.036.018.018-.018.018-.018c0-.018 0-.036-.018-.036Zm1.764 0a.039.039 0 0 0-.036.036s.018.018.036.018.018-.018.018-.018c0-.018 0-.036-.018-.036Zm-1.692-.108a.039.039 0 0 0-.036.036c0 .018.018.036.036.036s.018-.018.018-.036 0-.036-.018-.036Zm.234-.108a.039.039 0 0 0-.036.036c0 .018.018.036.036.036s.018-.018.018-.036 0-.036-.018-.036Zm1.674.036c0-.018-.018-.018-.018-.018-.018 0-.018 0-.018.018s0 .018.018.018c0 0 .018 0 .018-.018Zm-1.944-.252v.126c.036 0 .072-.054.072-.09-.018-.036-.054-.036-.072-.036Zm.558.036a.039.039 0 0 0-.036.036c0 .018.018.036.036.036s.018-.018.018-.036 0-.036-.018-.036Zm.036-.072-.018-.018c-.018 0-.018.018-.018.018 0 .018 0 .018.018.018 0 0 .018 0 .018-.018Zm.108-.108a.039.039 0 0 0-.036.036c0 .018.018.036.036.036s.018-.018.018-.036 0-.036-.018-.036Zm-.702 0 .036-.072c0 .036-.018.054-.036.072Zm.522-.036a.039.039 0 0 0-.036.036c0 .018.018.036.036.036s.018-.018.018-.036 0-.036-.018-.036Zm-.846-.216a.039.039 0 0 0-.036.036c0 .018.018.036.036.036s.018-.018.018-.036 0-.036-.018-.036Zm1.89-.036h-.018s0 .036-.036.036c.036 0 .072 0 .072-.036h-.018Zm-.792-.108a.039.039 0 0 0-.036.036c0 .018.018.036.036.036s.018-.018.018-.036 0-.036-.018-.036Zm.738-.108a.039.039 0 0 0-.036.036c0 .018.018.036.036.036s.018-.018.018-.036 0-.036-.018-.036Zm-1.242-.036a.039.039 0 0 0-.036.036c0 .018.018.036.036.036s.018-.018.018-.036 0-.036-.018-.036Zm.792-.144a.039.039 0 0 0-.036.036c0 .018.018.036.036.036s.018-.018.018-.036 0-.036-.018-.036Zm-1.17 0s-.018-.018-.036-.018v.054c.018 0 .018-.018.036-.036Zm1.422-.126c-.018 0-.036 0-.036.018s.018.018.036.018l.018-.018-.018-.018Zm.108-.036c0-.018-.018-.018-.036-.018v.036c.018 0 .018 0 .036-.018Zm.126-.036a.039.039 0 0 0-.036.036c0 .018.018.036.036.036s.018-.018.018-.036 0-.036-.018-.036Zm-1.836-.036a.039.039 0 0 0-.036.036c0 .018.018.036.036.036s.018-.018.018-.036 0-.036-.018-.036Zm.252-.288a.039.039 0 0 0-.036.036c0 .018.018.036.036.036s.018-.018.018-.036 0-.036-.018-.036Zm1.386-.036s-.018-.018-.036-.018v.036c.018 0 .018 0 .036-.018Zm-1.548-1.224c0-.018.054-.09.072-.108.216-.558.342-1.242.522-1.476.468-.09 1.062-.09 1.53-.09.126 0 .252 0 .252.18-.288.576-.63 1.152-.99 1.674-.18 0-.972.036-1.134.036h-.036c-.126 0-.216-.072-.216-.216ZM51.796 23.02c-.378-.108-.432-.468-.432-.882 0-.18.018-.378.018-.558.162 0 .288.054.486.054.09 0 .198 0 .216-.09l-.072-.036-.612-.018c0-1.818-.036-3.564-.036-5.634 0-.468.036-1.206-.36-1.566-.846 0-.9.27-.9.792 0 2.016.054 4.032.054 6.03 0 .468-.018 1.692-.018 1.728l-.072.144c-.486 0-1.584.054-2.286-.036-.108 0-.09-1.368-.108-1.566l.036-.072h.648l.072-.036-.036-.036-.684-.072c-.072-2.592-.072-5.4-.072-8.046 0-.576.036-.666.432-.666.036 0 1.998-.036 2.016.108v.432c.522-.486 1.08-.648 1.782-.648 2.178 0 1.962 2.862 1.962 4.626 0 .162 0 .306-.036.504 0 1.998.036 3.456.036 5.202 0 .234-.036.396-.36.396-.648 0-1.08-.054-1.674-.054Zm.702-1.476c.054.198.342.162.45.162.054 0 .486.036.486-.108-.378-.054-.486-.054-.936-.054Zm1.116.036a.039.039 0 0 0-.036.036c0 .018.018.036.036.036s.018-.018.018-.036 0-.036-.018-.036Zm-4.536-.234c.018.054.108.108.162.108h.684l.036-.036c-.09-.072-.252-.09-.414-.09-.18 0-.288.018-.468.018Zm4.428-3.24c0 .054.018.126.09.126 0-.036-.036-.162-.09-.18v.054Zm-1.206-.558c.018.018-.036-.018-.036.036 0 .018.018.036.036.036 0 0 .018-.018.018-.036s-.018-.036-.018-.036Zm0-.108a.039.039 0 0 0-.036.036c0 .018.018.036.036.036 0 0 .018-.018.018-.036s-.018-.036-.018-.036ZM55.093 21.148v-8.064c-.09-.432-.054-1.008-.054-1.278 0-.378.072-.504.576-.504.09 0 .198.018.216.072l.072-.072c.27 0 .576-.018.864-.018.468 0 .846.054.846.378 0 .09.018.234-.108.252 0 0 .108.036.108.072l.036 5.454c0 .054-.036.252-.036.288h-.018c0 .018.054.144.054.252v5.04c0 .108-.18.252-.288.252-.288 0-1.656-.036-1.944-.036-.486 0-.252-1.764-.324-2.088Zm.774 1.944s0-.018-.018-.018-.018.018-.018.018c0 .018.018.018.018.018s.018 0 .018-.018Zm1.152-.324a.039.039 0 0 0-.036.036c0 .018.018.036.036.036 0 0 .018-.018.018-.036s-.018-.036-.018-.036Zm-1.638-.072a.039.039 0 0 0-.036.036c0 .018.018.036.036.036s.018-.018.018-.036 0-.036-.018-.036Zm.702-.126s0-.018-.018-.018c0 0-.018.036-.018.054.054 0 .036-.054.036-.036Zm.324 0a.039.039 0 0 0-.036.036s.018.018.036.018.018-.018.018-.018c0-.018 0-.036-.018-.036Zm-.468-.216a.039.039 0 0 0-.036.036c0 .018.018.036.036.036s.018-.018.018-.036 0-.036-.018-.036Zm1.044 0a.039.039 0 0 0-.036.036c0 .018.018.036.036.036s.018-.018.018-.036 0-.036-.018-.036Zm-.144-.036s-.018-.018-.036-.018v.036c.018 0 .018 0 .036-.018Zm-1.422-.108a.039.039 0 0 0-.036.036c0 .018.018.036.036.036s.018-.018.018-.036 0-.036-.018-.036Zm.288-.144a.039.039 0 0 0-.036.036c0 .018.018.036.036.036 0 0 .018-.018.018-.036s-.018-.036-.018-.036Zm1.656-.144a.039.039 0 0 0-.036.036c0 .018.018.036.036.036s.018-.018.018-.036 0-.036-.018-.036Zm-1.386-.072a.039.039 0 0 0-.036.036c0 .018.018.036.036.036s.018-.018.018-.036 0-.036-.018-.036Zm.396-.108a.039.039 0 0 0-.036.036c0 .018.018.036.036.036s.018-.018.018-.036 0-.036-.018-.036Zm-.576-.036a.039.039 0 0 0-.036.036c0 .018.018.036.036.036s.018-.018.018-.036 0-.036-.018-.036Zm.576 0s-.018-.018-.036-.018-.036.018-.036.018c0 .018.018.018.036.018s.018 0 .036-.018Zm.468-.072a.039.039 0 0 0-.036.036c0 .018.018.036.036.036s.018-.018.018-.036 0-.036-.018-.036Zm-.108-.072a.039.039 0 0 0-.036.036c0 .018.018.036.036.036s.018-.018.018-.036 0-.036-.018-.036Zm-.108 0s-.036-.018-.054-.018c-.018 0-.018.018-.018.018s0 .018.018.018.036 0 .054-.018Zm-.918-.738a.039.039 0 0 0-.036.036c0 .018.018.036.036.036 0 0 .018-.018.018-.036s-.018-.036-.018-.036Zm.846-.072a.039.039 0 0 0-.036.036c0 .018.018.036.036.036s.018-.018.018-.036 0-.036-.018-.036Zm-.828-.576c-.036 0-.072.036-.072.09.018 0 .234.018.288-.054-.018.018-.054.018-.09.018-.108 0-.09-.054-.126-.054Zm1.296.036a.039.039 0 0 0-.036.036c0 .018.018.036.036.036 0 0 .018-.018.018-.036s-.018-.036-.018-.036Zm-1.566-.036a.039.039 0 0 0-.036.036c0 .018.018.036.036.036s.018-.018.018-.036 0-.036-.018-.036Zm1.134 0a.039.039 0 0 0-.036.036c0 .018.018.036.036.036s.018-.018.018-.036 0-.036-.018-.036Zm-.576-.108c-.018 0-.018.018-.018.036h.036c0-.018-.018-.018-.018-.036Zm.936-.072a.039.039 0 0 0-.036.036c0 .018.018.036.036.036s.018-.018.018-.036 0-.036-.018-.036Zm-.036-.018c-.018 0-.036 0-.036.018h.054c0-.018-.018-.018-.018-.018Zm-.576-.144a.039.039 0 0 0-.036.036c0 .018.018.036.036.036s.018-.018.018-.036 0-.036-.018-.036Zm-.918-.036c0-.018-.018-.018-.036-.018v.036c.018 0 .018 0 .036-.018Zm.882 0c0-.018-.018-.018-.018-.018-.018 0-.018 0-.018.018s0 .018.018.018c0 0 .018 0 .018-.018Zm.036-.18a.039.039 0 0 0-.036.036c0 .018.018.036.036.036s.018-.018.018-.036 0-.036-.018-.036Zm0-.108a.039.039 0 0 0-.036.036c0 .018.018.036.036.036s.018-.018.018-.036 0-.036-.018-.036Zm-.36-.072a.039.039 0 0 0-.036.036c0 .018.018.036.036.036s.018-.018.018-.036 0-.036-.018-.036Zm.432-.072a.039.039 0 0 0-.036.036c0 .018.018.036.036.036s.018-.018.018-.036 0-.036-.018-.036Zm-.108-.252c-.018 0-.018.018-.018.018 0 .018 0 .018.018.018 0 0 .018 0 .018-.018l-.018-.018Zm-.468-.036a.039.039 0 0 0-.036.036c0 .018.018.036.036.036s.018-.018.018-.036 0-.036-.018-.036Zm.576 0a.039.039 0 0 0-.036.036c0 .018.018.036.036.036s.018-.018.018-.036 0-.036-.018-.036Zm-1.062-.774a.039.039 0 0 0-.036.036c0 .018.018.036.036.036s.018-.018.018-.036 0-.036-.018-.036Zm1.062-.18a.256.256 0 0 0-.036.108c0-.036.036-.072.036-.108Zm.072.072a.039.039 0 0 0-.036.036c0 .018.018.036.036.036s.018-.018.018-.036 0-.036-.018-.036Zm-.882-.036a.039.039 0 0 0-.036.036c0 .018.018.036.036.036s.018-.018.018-.036 0-.036-.018-.036Zm.108-.072-.036.072s0 .018.018.018.036-.018.036-.054l-.018-.036Zm.198.072s0-.018-.018-.018-.018.018-.018.018c0 .018.018.018.018.018s.018 0 .018-.018Zm.108-.108c-.036.018-.036.036-.036.072.036 0 .036-.054.036-.072Zm-.45 0a.039.039 0 0 0-.036.036c0 .018.018.036.036.036s.018-.018.018-.036 0-.036-.018-.036Zm.63 0a.039.039 0 0 0-.036.036c0 .018.018.036.036.036s.018-.018.018-.036 0-.036-.018-.036Zm-.288 0s0-.018-.018-.018-.018.018-.018.018c0 .018.018.018.018.018s.018 0 .018-.018Zm.54 0-.018-.018c-.018 0-.018.018-.018.018 0 .018 0 .018.018.018 0 0 .018 0 .018-.018Zm-.81-.072a.039.039 0 0 0-.036.036c0 .018.018.036.036.036s.018-.018.018-.036 0-.036-.018-.036Zm.414-.036c0 .018.018.072.036.072s.126-.018.126-.072h-.162Zm.252.036a.039.039 0 0 0-.036.036c0 .018.018.036.036.036s.018-.018.018-.036 0-.036-.018-.036Zm-.576-.036c-.018 0-.018.018-.018.036s0 .036.018.036.018-.018.018-.036 0-.036-.018-.036Zm.72-.108c-.054.054-.072.054-.072.108.072 0 .072-.054.072-.108Zm-.486.036h-.018c-.018 0-.036.036-.072.036h.054c.018 0 .054 0 .054-.036h-.018Zm-.684-.072a.039.039 0 0 0-.036.036c0 .018.018.036.036.036s.018-.018.018-.036 0-.036-.018-.036Zm.288-.252c0 .036.018.054.018.072 0 .108-.108.072-.108.198.144 0 .09-.09.198-.162l-.108-.108Zm-.216.18a.039.039 0 0 0-.036.036c0 .018.018.036.036.036s.018-.018.018-.036 0-.036-.018-.036Zm.378-.036s0-.018-.018-.018v.036c.018 0 .018 0 .018-.018Zm0-.144c-.018 0-.018.018-.018.036s0 .036.018.036.018-.018.018-.036 0-.036-.018-.036Zm-.018-.036a.039.039 0 0 0-.036.036c0 .018.018.036.036.036 0 0 .018-.018.018-.036s-.018-.036-.018-.036Zm1.206 0c0 .036.036.036.072.036-.036 0-.018-.036-.072-.036Zm-.972-.162a.039.039 0 0 0-.036.036s.018.018.036.018.018-.018.018-.018c0-.018 0-.036-.018-.036Zm-.414-.036.072.036c0-.036-.036-.072-.036-.072l-.036.036Zm.81-.072a.136.136 0 0 0-.072.036h.108a.039.039 0 0 0-.036-.036Zm-.81-.036a.039.039 0 0 0-.036.036c0 .018.018.036.036.036s.018-.018.018-.036 0-.036-.018-.036Zm1.8 0a.039.039 0 0 0-.036.036c0 .018.018.036.036.036s.018-.018.018-.036 0-.036-.018-.036Zm-1.728-.108a.039.039 0 0 0-.036.036c0 .018.018.036.036.036s.018-.018.018-.036 0-.036-.018-.036Zm1.35-.036a.039.039 0 0 0-.036.036c0 .018.018.036.036.036s.018-.018.018-.036 0-.036-.018-.036Zm-1.116-.072a.039.039 0 0 0-.036.036c0 .018.018.036.036.036s.018-.018.018-.036 0-.036-.018-.036Zm-.288-.234c0 .054-.018.144.054.162 0-.018.036-.09.036-.108 0-.036-.072-.054-.09-.054Zm.612.09-.018-.018c-.018 0-.018.018-.018.018 0 .018 0 .018.018.018 0 0 .018 0 .018-.018Zm-.918-.144a.039.039 0 0 0-.036.036c0 .018.018.036.036.036s.018-.018.018-.036 0-.036-.018-.036Zm.882 0a.039.039 0 0 0-.036.036c0 .018.018.036.036.036s.018-.018.018-.036 0-.036-.018-.036Zm-.45-.36v.09c.072 0 .198 0 .27-.054-.018 0-.18-.036-.216-.036h-.054Zm1.026.036a.039.039 0 0 0-.036.036c0 .018.018.036.036.036s.018-.018.018-.036 0-.036-.018-.036Zm-1.242-.036a.039.039 0 0 0-.036.036c0 .018.018.036.036.036s.018-.018.018-.036 0-.036-.018-.036Zm1.134 0a.039.039 0 0 0-.036.036c0 .018.018.036.036.036s.018-.018.018-.036 0-.036-.018-.036Zm-.576-.144a.039.039 0 0 0-.036.036c0 .018.018.036.036.036s.018-.018.018-.036 0-.036-.018-.036Zm.072-.036a.039.039 0 0 0-.036.036c0 .018.018.036.036.036s.018-.018.018-.036 0-.036-.018-.036Zm.828-.036a.039.039 0 0 0-.036.036h.054c0-.018-.018-.018-.018-.036Zm-1.494-.198-.018-.018c-.036 0-.018.054-.018.054a.039.039 0 0 0 .036-.036Zm.558.036v-.018c-.018 0-.036 0-.036.018s.018.018.018.018.018 0 .018-.018Zm.324 0c0-.018-.018-.018-.018-.018-.018 0-.018 0-.018.018s0 .018.018.018c0 0 .018 0 .018-.018Zm.036-.144c0-.018-.018-.018-.018-.018-.018 0-.018 0-.018.018s0 .018.018.018c0 0 .018 0 .018-.018Zm.36-.072c.018.018.036.036.072.036v-.036h-.072Zm-.36-.072a.039.039 0 0 0-.036.036c0 .018.018.036.036.036s.018-.018.018-.036 0-.036-.018-.036Zm-.36-.108a.039.039 0 0 0-.036.036c0 .018.018.036.036.036s.018-.018.018-.036 0-.036-.018-.036Zm.432-.036c-.018 0-.018.018-.018.018 0 .018 0 .018.018.018 0 0 .018 0 .018-.018l-.018-.018Zm.612-.036c0 .018.018.036.018.036.036 0 .054-.018.072-.036h-.09Zm-.36-.036c-.018 0-.018.018-.018.018 0 .018 0 .018.018.018 0 0 .018 0 .018-.018l-.018-.018Zm-.792-.036a.039.039 0 0 0-.036.036c0 .018.018.036.036.036s.018-.018.018-.036 0-.036-.018-.036Zm.432-.144c-.018 0-.018.018-.018.018 0 .018 0 .018.018.018 0 0 .018 0 .018-.018l-.018-.018Zm.108-.036a.039.039 0 0 0-.036.036c0 .018.018.036.036.036s.018-.018.018-.036 0-.036-.018-.036Zm.504-.396a.039.039 0 0 0-.036.036c0 .018.018.036.036.036s.018-.018.018-.036 0-.036-.018-.036Zm-1.566-.378a.039.039 0 0 0-.036.036c0 .018.018.036.036.036s.018-.018.018-.036 0-.036-.018-.036Zm.36-.108a.039.039 0 0 0-.036.036c0 .018.018.036.036.036 0 0 .018-.018.018-.036s-.018-.036-.018-.036Zm-.108-.036a.039.039 0 0 0-.036.036c0 .018.018.036.036.036s.018-.018.018-.036 0-.036-.018-.036Zm.774 0a.039.039 0 0 0-.036.036c0 .018.018.036.036.036s.018-.018.018-.036 0-.036-.018-.036Zm-.504-.036a.039.039 0 0 0-.036.036c0 .018.018.036.036.036s.018-.018.018-.036 0-.036-.018-.036Zm-.162-.072v.072h.018l-.018-.072Zm.306 0c-.036 0-.036.036-.036.072.036 0 .036-.054.036-.072Zm.396.036a.039.039 0 0 0-.036.036c0 .018.018.036.036.036s.018-.018.018-.036 0-.036-.018-.036Zm-.846-.036a.039.039 0 0 0-.036.036c0 .018.018.036.036.036s.018-.018.018-.036 0-.036-.018-.036Zm.306-.036a.039.039 0 0 0-.036.036c0 .018.018.036.036.036s.018-.018.018-.036 0-.036-.018-.036Zm.576.036-.018-.018c-.018 0-.018.018-.018.018 0 .018 0 .018.018.018 0 0 .018 0 .018-.018Zm.36-.036a.039.039 0 0 0-.036.036c0 .018.018.036.036.036s.018-.018.018-.036 0-.036-.018-.036Zm-1.134 0s-.018-.018-.036-.018v.036c.018 0 .018 0 .036-.018Zm.378-.072c0 .054.036.072.072.072.054 0 .09-.018.09-.072l-.018-.036-.144.036Zm.252.036c-.018 0-.018.018-.018.018 0 .018 0 .018.018.018 0 0 .018 0 .018-.018l-.018-.018Zm.144-.144c-.054.054-.072.054-.072.108.072 0 .072-.054.072-.108Zm.846.036a.039.039 0 0 0-.036.036c0 .018.018.036.036.036s.018-.018.018-.036 0-.036-.018-.036Zm-2.016-.072a.039.039 0 0 0-.036.036c0 .018.018.036.036.036s.018-.018.018-.036 0-.036-.018-.036Zm.288-.252c0 .144-.09.162-.09.27.144 0 .108-.144.234-.144l-.144-.126Zm-.216.18a.039.039 0 0 0-.036.036c0 .018.018.036.036.036s.018-.018.018-.036 0-.036-.018-.036Zm2.016-.144a.039.039 0 0 0-.036.036c0 .018.018.036.036.036s.018-.018.018-.036 0-.036-.018-.036Zm-1.638-.036c-.018 0-.018.018-.018.036s0 .036.018.036.018-.018.018-.036 0-.036-.018-.036Zm1.602 0a.039.039 0 0 0-.036.036c0 .018.018.036.036.036s.018-.018.018-.036 0-.036-.018-.036Zm-1.62-.036a.039.039 0 0 0-.036.036c0 .018.018.036.036.036 0 0 .018-.018.018-.036s-.018-.036-.018-.036Zm1.584 0a.039.039 0 0 0-.036.036c0 .018.018.036.036.036s.018-.018.018-.036 0-.036-.018-.036Zm-.27-.072a.039.039 0 0 0-.036.036h.054c0-.018-.018-.018-.018-.036Zm-.432-.036a.039.039 0 0 0-.036.036c0 .018.018.036.036.036s.018-.018.018-.036 0-.036-.018-.036Zm.216-.072-.036.072.108-.036-.072-.036Zm-1.278-.036.072.036c0-.018-.036-.036-.036-.072l-.036.036Zm1.494.036s-.018-.018-.036-.018v.054c.018 0 .018-.018.036-.036Zm.378-.072a.039.039 0 0 0-.036.036c0 .018.018.036.036.036s.018-.018.018-.036 0-.036-.018-.036Zm-1.026-.036c-.036 0-.09 0-.108.036h.108v-.036Zm.99.018a.039.039 0 0 0-.036.036s.018.018.036.018.018-.018.018-.018c0-.018 0-.036-.018-.036Zm-1.836-.036a.039.039 0 0 0-.036.036s.018.018.036.018.018-.018.018-.018c0-.018 0-.036-.018-.036Zm1.764 0a.039.039 0 0 0-.036.036s.018.018.036.018.018-.018.018-.018c0-.018 0-.036-.018-.036Zm-1.692-.108a.039.039 0 0 0-.036.036c0 .018.018.036.036.036s.018-.018.018-.036 0-.036-.018-.036Zm.234-.108a.039.039 0 0 0-.036.036c0 .018.018.036.036.036s.018-.018.018-.036 0-.036-.018-.036Zm1.674.036c0-.018-.018-.018-.018-.018-.018 0-.018 0-.018.018s0 .018.018.018c0 0 .018 0 .018-.018Zm-1.944-.252v.126c.036 0 .072-.054.072-.09-.018-.036-.054-.036-.072-.036Zm.558.036a.039.039 0 0 0-.036.036c0 .018.018.036.036.036s.018-.018.018-.036 0-.036-.018-.036Zm.036-.072-.018-.018c-.018 0-.018.018-.018.018 0 .018 0 .018.018.018 0 0 .018 0 .018-.018Zm.108-.108a.039.039 0 0 0-.036.036c0 .018.018.036.036.036s.018-.018.018-.036 0-.036-.018-.036Zm-.702 0 .036-.072c0 .036-.018.054-.036.072Zm.522-.036a.039.039 0 0 0-.036.036c0 .018.018.036.036.036s.018-.018.018-.036 0-.036-.018-.036Zm-.846-.216a.039.039 0 0 0-.036.036c0 .018.018.036.036.036s.018-.018.018-.036 0-.036-.018-.036Zm1.89-.036h-.018s0 .036-.036.036c.036 0 .072 0 .072-.036h-.018Zm-.792-.108a.039.039 0 0 0-.036.036c0 .018.018.036.036.036s.018-.018.018-.036 0-.036-.018-.036Zm.738-.108a.039.039 0 0 0-.036.036c0 .018.018.036.036.036s.018-.018.018-.036 0-.036-.018-.036Zm-1.242-.036a.039.039 0 0 0-.036.036c0 .018.018.036.036.036s.018-.018.018-.036 0-.036-.018-.036Zm.792-.144a.039.039 0 0 0-.036.036c0 .018.018.036.036.036s.018-.018.018-.036 0-.036-.018-.036Zm-1.17 0s-.018-.018-.036-.018v.054c.018 0 .018-.018.036-.036Zm1.422-.126c-.018 0-.036 0-.036.018s.018.018.036.018l.018-.018-.018-.018Zm.108-.036c0-.018-.018-.018-.036-.018v.036c.018 0 .018 0 .036-.018Zm.126-.036a.039.039 0 0 0-.036.036c0 .018.018.036.036.036s.018-.018.018-.036 0-.036-.018-.036Zm-1.836-.036a.039.039 0 0 0-.036.036c0 .018.018.036.036.036s.018-.018.018-.036 0-.036-.018-.036Zm.252-.288a.039.039 0 0 0-.036.036c0 .018.018.036.036.036s.018-.018.018-.036 0-.036-.018-.036Zm1.386-.036s-.018-.018-.036-.018v.036c.018 0 .018 0 .036-.018ZM58.695 20.05c-.072-.108-.072-.18-.072-.27 0-.684.108-1.368.108-2.052 0-.018-.036-.09-.036-.144 0-.036.036-.198.036-.234 0-.27-.072-.54-.072-.81 0-.198.072-.432.072-.63 0 0-.018-.054-.036-.072 0-.432.036-.738.036-1.062 0-.018-.036-.198-.036-.216 0-.9.018-1.044.252-1.71.072-.198.072-.468.216-.648.648-.792 1.494-1.26 2.538-1.26.828 0 1.692.162 2.43.612.594.378.666.738.918 1.332.036.072.108.108.108.216 0 0-.036.054-.036.072 0 .018.108.162.108.198.054.27.054.54.108.792v1.278c0 .036.036.162.036.18 0 .144-.036.252-.036.36 0 .162 0 .252.036.432v1.566c0 .054-.09.108-.09.126 0 .018.09.126.09.162v1.548c0 2.43-1.386 3.528-3.456 3.528-2.088 0-3.222-1.242-3.222-3.294Zm5.778 2.088c-.018 0-.018 0-.018.018s0 .018.018.018.018-.018.018-.018 0-.018-.018-.018Zm-.846-.216a.039.039 0 0 0-.036.036c0 .018.018.036.036.036s.018-.018.018-.036 0-.036-.018-.036Zm-2.286-3.006v.666c0 .378.054 1.44.576 1.44.936 0 .594-1.17.774-1.71 0-.162-.036-.324-.036-.504 0-.198-.018-.342.072-.54V16.81l-.036-.072c0-.63-.108-1.692-.108-2.502 0-.072.072-1.008-.594-1.008-.756 0-.792.864-.792 1.548 0 .504.072 1.062.072 1.602 0 .234-.036.702-.036.684.054.27.108.522.108.774 0 .144-.036.306-.036.324 0 .162.036.288.036.432 0 .072-.036.126-.036.198 0 0 0 .108.036.126Zm3.672 1.566a.039.039 0 0 0-.036.036c0 .018.018.036.036.036s.018-.018.018-.036 0-.036-.018-.036Zm-4.428-.774a.039.039 0 0 0-.036.036c0 .018.018.036.036.036s.018-.018.018-.036 0-.036-.018-.036Zm-.72-1.548a.039.039 0 0 0-.036.036c0 .018.018.036.036.036s.018-.018.018-.036 0-.036-.018-.036Zm-.198-1.314a.039.039 0 0 0-.036.036c0 .018.018.036.036.036s.018-.018.018-.036 0-.036-.018-.036Zm.486 0a.039.039 0 0 0-.036.036c0 .018.018.036.036.036s.018-.018.018-.036 0-.036-.018-.036Zm-.108-.072a.039.039 0 0 0-.036.036c0 .018.018.036.036.036s.018-.018.018-.036 0-.036-.018-.036Zm-.342-.396.054.036c0-.036-.054-.036-.054-.036Zm.342-.324a.039.039 0 0 0-.036.036c0 .018.018.036.036.036s.018-.018.018-.036 0-.036-.018-.036Zm-.558-2.466a.039.039 0 0 0-.036.036c0 .018.018.036.036.036s.018-.018.018-.036 0-.036-.018-.036Zm.306-.252a.039.039 0 0 0-.036.036c0 .018.018.036.036.036s.018-.018.018-.036 0-.036-.018-.036Zm3.51-.144a.039.039 0 0 0-.036.036c0 .018.018.036.036.036s.018-.018.018-.036 0-.036-.018-.036Zm-.756-.81a.039.039 0 0 0-.036.036c0 .018.018.036.036.036s.018-.018.018-.036 0-.036-.018-.036Zm-1.134-.072a.039.039 0 0 0-.036.036c0 .018.018.036.036.036s.018-.018.018-.036 0-.036-.018-.036Zm2.178-.216c-.036 0-.09.036-.09.072h.09v-.072ZM68.857 23.164c-.576 0-1.152.036-1.746.036-.234 0-.486-.018-.486-.198 0-.72-.036-1.368-.036-2.088 0-.198.036-.306.252-.378.81 0 .972.036 1.17.036.018 0 .198-.036.216-.036.864 0 .954.036.954.486 0 .252-.036.846-.036 1.08 0 .162.036.216.036.558 0 .162.018.612-.162.612-.054 0-.09-.09-.162-.108Zm-.918-1.638.036.036v-.036h-.036Zm-.144-6.138h-.18l-.072.036c-.9 0-.99.036-.99-1.026 0-.018.018-.09.036-.108 0-.144-.018-.306-.018-.45 0-.288.054-.558.054-.828 0-.252.324-.288.612-.288h.306c.09 0 .27-.018.486-.018.468 0 1.08.09 1.08.612v1.314c0 .054.036.216.036.252 0 .648-.378.432-.738.576-.234-.072-.378-.072-.612-.072ZM128.2 17.147l7.88-7.478h-5.034l-8.617 8.326V2.92h-3.731v27.079h3.731v-7.465l3.09-2.889 6.503 10.354h4.356L128.2 17.147ZM162.606 9.669l-2.856 9.113-.006.02c-.593 1.938-1.205 3.931-1.767 5.913-.587-1.992-1.201-3.991-1.796-5.935l-2.816-9.111h-3.704l-2.814 9.108c-.617 1.94-1.2 3.91-1.775 5.988-.619-2.15-1.181-4.05-1.796-5.986l-2.854-9.11h-4.002l6.777 20.329h3.697l2.93-9.338c.517-1.637 1.07-3.452 1.682-5.523a198.637 198.637 0 0 0 1.66 5.523l2.97 9.338h3.696l6.777-20.33h-4.003ZM192.473 9.635h-3.646v20.382h3.646V9.635ZM190.65 7.53a2.306 2.306 0 1 0 0-4.613 2.306 2.306 0 0 0 0 4.613ZM181.379 9.988v2.315c-1.544-1.657-3.686-2.531-6.177-2.531-5.112 0-8.799 4.59-8.799 10.253s3.687 10.422 8.799 10.422c2.491 0 4.633-.903 6.177-2.596v2.165h3.646V9.988h-3.646Zm-5.459 16.989c-3.592 0-5.804-2.87-5.804-6.98 0-3.793 2.379-6.755 5.804-6.755 2.242 0 4.303 1.007 5.459 2.94v7.705c-1.156 2-3.217 3.091-5.459 3.091v-.001ZM103.599 2.133a6.46 6.46 0 0 0-4.407 1.73A7.549 7.549 0 0 0 85.056 7.55a7.549 7.549 0 0 0 13.305 4.883 6.483 6.483 0 1 0 5.24-10.297l-.002-.002Zm-10.994 9.93a4.513 4.513 0 1 1 0-9.027 4.513 4.513 0 0 1 0 9.027Zm10.996 0a3.446 3.446 0 1 1-.002-6.892 3.446 3.446 0 0 1 .002 6.892Z"/><path fill="#fff" fill-rule="evenodd" d="M104.502 16.41h-8.205a5.582 5.582 0 0 0-5.315 3.88l-4.868-2.464a2.709 2.709 0 0 0-3.932 2.417v7.947a2.706 2.706 0 0 0 3.921 2.42l4.89-2.452A5.582 5.582 0 0 0 96.295 32h8.206a5.58 5.58 0 0 0 5.579-5.579V21.99a5.58 5.58 0 0 0-5.579-5.58h.001ZM86.117 27.4a.738.738 0 0 1-1.062-.664V21.74a.74.74 0 0 1 1.07-.646l4.591 2.305v1.655l-4.587 2.34-.012.006Zm21.094-1.013a2.79 2.79 0 0 1-2.791 2.743h-8.087a2.79 2.79 0 0 1-2.743-2.79v-4.313a2.79 2.79 0 0 1 2.79-2.743h8.087a2.79 2.79 0 0 1 2.744 2.79v4.313Z" clip-rule="evenodd"/></svg>