<svg xmlns="http://www.w3.org/2000/svg" viewBox="0 0 211.36 247.09"><defs><style>.cls-1{fill:#fff}</style></defs><g id="Layer_2" data-name="Layer 2"><g id="OBJECT"><path class="cls-1" d="M27.23 186.76a8.72 8.72 0 0 0 4.38 1.24c2.5 0 4-1.32 4-3.23S34.56 182 32 181c-3.08-1.1-5-2.7-5-5.37 0-2.95 2.45-5.14 6.13-5.14a8.53 8.53 0 0 1 4.18.93l-.67 2a7.65 7.65 0 0 0-3.6-.89c-2.58 0-3.56 1.54-3.56 2.83 0 1.77 1.15 2.64 3.76 3.66 3.2 1.23 4.83 2.78 4.83 5.56S35.91 190 31.44 190a9.84 9.84 0 0 1-4.83-1.21ZM43.86 170.8V182c0 4.24 1.88 6 4.41 6 2.81 0 4.61-1.85 4.61-6v-11.2h2.47v11c0 5.82-3.06 8.2-7.17 8.2-3.87 0-6.79-2.21-6.79-8.09V170.8ZM61.69 183.78l-2 6H57.2l6.43-18.94h2.95l6.42 18.9h-2.57l-2-6Zm6.21-1.91-1.85-5.45c-.42-1.24-.71-2.36-1-3.45-.28 1.12-.59 2.27-1 3.42l-1.85 5.48ZM97.73 181.42c-.14-2.64-.31-5.81-.28-8.17h-.08c-.65 2.22-1.44 4.57-2.39 7.19l-3.35 9.18h-1.85l-3.06-9c-.9-2.67-1.66-5.12-2.19-7.36h-.06c0 2.36-.19 5.53-.36 8.37l-.51 8.12h-2.33l1.32-18.94h3.12l3.23 9.19c.78 2.33 1.43 4.41 1.91 6.38h.08c.48-1.91 1.15-4 2-6.38l3.37-9.16h3.12l1.18 18.94h-2.39ZM106.8 170.8V182c0 4.24 1.88 6 4.41 6 2.81 0 4.61-1.85 4.61-6v-11.2h2.47v11c0 5.82-3.06 8.2-7.16 8.2-3.88 0-6.8-2.21-6.8-8.09V170.8Zm8.71-4.3-3.6 3.29h-2l2.58-3.29ZM122.19 186.76a8.72 8.72 0 0 0 4.38 1.23c2.51 0 4-1.32 4-3.23s-1-2.78-3.57-3.76c-3.09-1.1-5-2.7-5-5.37 0-2.95 2.44-5.14 6.12-5.14a8.61 8.61 0 0 1 4.19.93l-.68 2a7.6 7.6 0 0 0-3.59-.89c-2.59 0-3.57 1.54-3.57 2.83 0 1.77 1.15 2.64 3.76 3.66 3.21 1.23 4.84 2.78 4.84 5.56s-2.17 5.45-6.63 5.45a9.88 9.88 0 0 1-4.84-1.21ZM138.82 170.8v18.94h-2.44V170.8ZM156.32 189.12a12.13 12.13 0 0 1-5 .9c-5.34 0-9.35-3.37-9.35-9.58 0-5.93 4-9.95 9.88-9.95a10.12 10.12 0 0 1 4.5.85l-.59 2a8.91 8.91 0 0 0-3.82-.79c-4.44 0-7.39 2.84-7.39 7.81 0 4.64 2.67 7.62 7.28 7.62a9.77 9.77 0 0 0 4-.79ZM162.55 183.78l-2 6h-2.53l6.43-18.94h2.95l6.46 18.94h-2.61l-2-6Zm6.21-1.91-1.85-5.45c-.42-1.24-.7-2.36-1-3.45h-.06c-.28 1.12-.59 2.27-1 3.42l-1.85 5.48ZM85 246.92v-.8l1-1c2.48-2.36 3.6-3.61 3.61-5.07a1.73 1.73 0 0 0-1.93-1.9 3.33 3.33 0 0 0-2.06.82l-.42-.93a4.32 4.32 0 0 1 2.75-1 2.74 2.74 0 0 1 3 2.82c0 1.79-1.3 3.24-3.35 5.21l-.78.72h4.36v1.09ZM99.13 242c0 3.3-1.23 5.13-3.38 5.13-1.89 0-3.18-1.78-3.21-5s1.41-5 3.38-5 3.21 1.74 3.21 4.87Zm-5.27.15c0 2.53.77 4 2 4s2-1.57 2-4-.61-4-2-4c-1.17-.09-2 1.32-2 3.96ZM100.33 246.92v-.8l1-1c2.47-2.36 3.59-3.61 3.61-5.07a1.73 1.73 0 0 0-1.93-1.9 3.33 3.33 0 0 0-2.01.85l-.42-.93a4.32 4.32 0 0 1 2.75-1 2.73 2.73 0 0 1 3 2.82c0 1.79-1.29 3.24-3.34 5.21l-.78.72h4.36v1.09ZM108 246.92v-.8l1-1c2.47-2.36 3.59-3.61 3.61-5.07a1.73 1.73 0 0 0-1.93-1.9 3.33 3.33 0 0 0-2.06.82l-.42-.93a4.32 4.32 0 0 1 2.75-1 2.74 2.74 0 0 1 3 2.82c0 1.79-1.3 3.24-3.35 5.21l-.78.72h4.36v1.09ZM32.16 240.51h35.05v2.01H32.16zM132.11 240.51h35.05v2.01h-35.05zM69.19 149a11 11 0 0 1 1.86-.15 3.11 3.11 0 0 1 2.11.63 2 2 0 0 1 .65 1.57 2.19 2.19 0 0 1-.58 1.6 3.73 3.73 0 0 1-3.07.76v3h-1Zm1 3.62a3 3 0 0 0 .8.08c1.17 0 1.88-.57 1.88-1.61s-.7-1.47-1.77-1.47a4.33 4.33 0 0 0-.91.08ZM80.68 149a10.15 10.15 0 0 1 1.86-.16 3.06 3.06 0 0 1 2.18.62 1.84 1.84 0 0 1 .59 1.42 2 2 0 0 1-1.42 1.92 1.89 1.89 0 0 1 1.11 1.54 12.55 12.55 0 0 0 .57 2.06h-1a9.82 9.82 0 0 1-.5-1.8c-.22-1-.62-1.42-1.5-1.46h-.92v3.26h-1Zm1 3.42h1c1 0 1.69-.57 1.69-1.43s-.7-1.39-1.73-1.4a4.27 4.27 0 0 0-1 .09ZM96.13 152.88h-2.92v2.7h3.26v.82h-4.22v-7.51h4v.81h-3.04v2.38h2.92Zm-1.5-5.66 1.17 1.27H95l-.71-.77-.7.77h-.8l1.14-1.27ZM109.62 153.1c-.05-1-.12-2.3-.11-3.24-.26.88-.57 1.82-1 2.85l-1.33 3.64h-.73l-1.22-3.57c-.35-1.06-.65-2-.86-2.92 0 .94-.07 2.19-.14 3.32l-.2 3.22h-.93l.53-7.51h1.23l1.28 3.63c.32.93.57 1.75.76 2.53.19-.76.45-1.58.79-2.53l1.33-3.63h1.24l.47 7.51h-1ZM118.79 148.89v7.51h-1v-7.51ZM132.47 152.57c0 2.58-1.57 4-3.49 4s-3.38-1.54-3.38-3.81 1.49-3.94 3.49-3.94 3.38 1.52 3.38 3.75Zm-5.83.12c0 1.6.87 3 2.4 3s2.4-1.42 2.4-3.12c0-1.49-.78-3.05-2.39-3.05s-2.41 1.48-2.41 3.17ZM76.3 2.94A3.44 3.44 0 0 0 72.42 0L70.2.35a3.43 3.43 0 0 0-2.91 3.87l-.11 10.25a4.61 4.61 0 0 0 5.2 3.9l3-.43a4.58 4.58 0 0 0 3.9-5.19ZM112.74 15.9a3.43 3.43 0 0 0-.68-4.8l-1.8-1.35a3.42 3.42 0 0 0-4.79.69l-7.32 7.16a4.59 4.59 0 0 0 .92 6.4l2.4 1.81a4.59 4.59 0 0 0 6.43-.92ZM59.61 89.22a4.58 4.58 0 0 0-.91-6.43L56.3 81a4.61 4.61 0 0 0-6.44.91l-4.83 9a3.42 3.42 0 0 0 .68 4.79l1.79 1.35a3.43 3.43 0 0 0 4.8-.68ZM39.93 65.11a4.58 4.58 0 0 0 3.9-5.19l-.42-3A4.59 4.59 0 0 0 38.22 53l-9.81 3a3.43 3.43 0 0 0-2.91 3.87l.32 2.22A3.42 3.42 0 0 0 29.69 65ZM43.07 34.14a4.58 4.58 0 0 0 6.43-.91l1.81-2.4a4.59 4.59 0 0 0-.92-6.43l-9-4.85a3.43 3.43 0 0 0-4.8.69L35.22 22a3.43 3.43 0 0 0 .69 4.8ZM93.55 43.38c2.58-3.06 5.08-5.81 7.47-8.26A28.71 28.71 0 1 0 70.81 81V69.25a17.78 17.78 0 1 1 22.74-25.87ZM68.22 102.33a12.1 12.1 0 0 0-1.79.14c-4.59.72-8.05 4-7.55 7.28a5.19 5.19 0 0 0 2.84 3.64 10.48 10.48 0 0 0 6.56 1c4.23-.66 7.49-3.45 7.6-6.5a1.63 1.63 0 0 1 0-.31v-3.88a2.84 2.84 0 0 1-2.71-.1 9.83 9.83 0 0 0-4.95-1.27ZM124.13 89.32a12.23 12.23 0 0 0-1.8.14c-4.6.72-8.06 4.05-7.56 7.28s4.81 5.36 9.4 4.65 8-4 7.57-7.2v-.08a2.94 2.94 0 0 1-.07-.65v-4.85a2.84 2.84 0 0 1-3.67 1.44 10.37 10.37 0 0 0-3.87-.73Z"/><path class="cls-1" d="M78.74 66.18a2.85 2.85 0 0 1 1.94.77 43.37 43.37 0 0 1 5.44 6.36c6.49-9.58 24-33.27 42-39.29a2.82 2.82 0 0 1 2.56.39 2.85 2.85 0 0 1 .92 1.12V21.89c-6.16 2.06-21.4 9.66-41.54 37.36a2.85 2.85 0 0 1-4.49.13 80.84 80.84 0 0 0-8.14-8.6v15.7a.84.84 0 0 1 .14-.06 2.75 2.75 0 0 1 1.17-.24Z"/><path class="cls-1" d="M134.53 93.67a1.6 1.6 0 0 0-.05-.21V18.32s-18.83 1-46.67 39.26c0 0-9.19-11.18-13.16-11.93v55.51A13.14 13.14 0 0 0 66 99.67c-6.23 1-10.67 5.67-9.92 10.52s6.41 8 12.64 7c5.66-.88 9.84-4.85 10-9.2V69s5.36 5 7.18 9.8c0 0 21.53-34.91 43.15-42.11v50.74a13.61 13.61 0 0 0-7.18-.77c-6.23 1-10.67 5.67-9.92 10.52s6.41 8 12.64 7 10.67-5.67 9.92-10.52M96.45 126.56a19.5 19.5 0 0 1-9.93-2.71 3.49 3.49 0 0 1 3.55-6 12.67 12.67 0 0 0 17.32-4.48 3.49 3.49 0 0 1 6 3.55 19.65 19.65 0 0 1-17 9.65M156.63 45.67l-18.62 8.23v7.14l18.62-8.24v-7.13zM156.63 30.67l-18.62 8.23v7.14l18.62-8.24v-7.13z"/><path class="cls-1" d="m112.46 73.53 12.49-6.72v-7.14l-12.49 6.72v7.14zM124.95 44.67l-12.49 6.72v7.14l12.49-6.72v-7.14zM14.83 198.78c12 0 15.09 4.94 15.09 9.89v.84c0 4.75-2.62 10.2-15.06 10.17H0v-20.9Zm-.92 15.37c6.93 0 7.72-3.07 7.72-4.89v-.17c0-1.83-.76-4.83-7.72-4.83H8v9.89ZM54.77 198.78v5.11H39.52v2.62h14.94v5.08H39.52v2.87H55v5.22H31.65v-20.9ZM80 213.36l6.6-14.58h8.29l-9.8 20.9H74.52L64 198.78h9ZM118.84 198.78v5.11h-15.25v2.62h14.94v5.08h-14.94v2.87h15.48v5.22H95.72v-20.9ZM129.18 219.68h-8v-20.9h19c6.12 0 8.79 2 8.79 5.37v.3c0 3-2.64 4.27-4.21 4.67 2.55.59 4.29 2.27 4.29 5v3.09a4.59 4.59 0 0 0 .4 2.36v.14h-8.15a1.68 1.68 0 0 1-.25-1.1v-2.44c0-2.42-1.1-3.62-4.24-3.62h-7.64Zm0-12.22h9.15c1.75 0 2.42-.79 2.42-1.8 0-1-.65-1.77-2.42-1.77h-9.15ZM171.2 216.31h-11.94l-1.6 3.37h-8.09l10.33-20.9h10.73l10.93 20.9h-8.73Zm-7.81-20.14c-.4 0-.51.31-.51.59v.81h-4.52v-2.39c0-1.15.5-2.75 3.17-2.75h.11a11.42 11.42 0 0 1 3.85.82 6 6 0 0 0 1.66.42.5.5 0 0 0 .48-.56v-.82h4.52v2.22c0 1.21-.39 2.89-3.15 2.89h-.14a11 11 0 0 1-3.79-.81 6.13 6.13 0 0 0-1.68-.42Zm5.25 14.91-3.51-7.19-3.43 7.19ZM211.36 208.75v.84c0 3.91-1.71 10.48-15.22 10.48h-1.27c-13.54 0-15.25-6.57-15.25-10.48v-.84c0-4 1.71-10.36 15.25-10.36h1.27c13.48 0 15.22 6.4 15.22 10.36Zm-23.48.2v.34c0 2.19 1.43 5.14 7.61 5.14s7.61-2.87 7.61-5.09V209c0-2.22-1.4-4.94-7.61-4.94s-7.61 2.67-7.61 4.94Z"/></g></g></svg>