<svg xmlns="http://www.w3.org/2000/svg" fill="none" viewBox="0 0 58 56"><g filter="url(#a)"><path fill="#000" d="M31.782 27.695c2.192.356 4.535-.846 6.816-2.264.798-.495 1.517-.844 2.407.054.834.841.94 1.511.423 2.57-2.182 4.459-4.412 8.895-9.186 11.146-6.016 2.838-12.251 4.088-18.535.995-4.562-2.245-9.008-4.828-11.294-9.746C-1.072 22.955-1.41 11.97 5.64 5.336c.718-.675 1.333-1.485 2.129-2.041.638-.445.984-1.87 2.123-1.04.898.653 1.7 1.453 1.338 2.859-1.168 4.513.104 8.625 2.104 12.655 3.681 7.42 9.874 10.219 18.448 9.924v.002ZM7.556 8.24c-1.536 2.213-3.377 4.233-3.844 6.852-1.357 7.62.547 14.244 6.478 19.498 3.601 3.19 7.658 5.249 12.592 4.494 4.908-.75 9.271-2.755 12.696-6.485.745-.813 2.276-1.662 1.703-2.665-.593-1.035-2.042-.034-3.03.283C24.097 33.43 11.89 25.782 9.533 16.18c-.638-2.608-1.195-5.244-1.98-7.939l.002-.002Z"/><path fill="#000" d="M28.077 19.017c.793-2.274-.32-3.389-2.579-3.761-.515-.085-.994-.373-1.504-.491-.992-.233-1.306-.833-1.258-1.817.043-.88.048-1.654 1.16-1.87.589-.113 1.133-.469 1.72-.56 2.2-.344 2.676-1.662 2.535-3.709-.089-1.291-.868-3.134 1.551-3.56.902-.16 1.446-.044 1.891.708.155.262.33.508.504.758 1.425 2.05 3.318 2.705 5.679 1.964.955-.298 1.853-.949 2.83.258.987 1.217.399 2.018-.24 2.995-2.041 3.125-2.068 3.164.18 6.3.756 1.058.926 1.844.115 2.993-.892 1.267-1.712.704-2.73.365-4.48-1.49-3.084-2.01-5.82 1.838-1.103 1.55-2.617 1.904-3.672.76-.839-.91-.082-2.046-.36-3.171h-.002Zm3.24-2.051c1.242-1.444 2.669-2.025 5.02-1.224-1.894-1.952-1.452-3.553-.339-5.44-2.097.793-3.51.368-4.818-1.604.09 2.42-.985 3.505-2.985 4.306 2.477.588 3.241 1.882 3.123 3.962Z"/><path fill="#016FF5" d="M7.556 8.239c.786 2.697 1.34 5.333 1.98 7.938 2.357 9.603 14.564 17.25 24.617 14.036.989-.317 2.438-1.318 3.03-.283.574 1.002-.958 1.853-1.703 2.666-3.425 3.73-7.788 5.732-12.696 6.485-4.936.754-8.99-1.302-12.592-4.495-5.933-5.253-7.837-11.878-6.48-19.497.467-2.617 2.308-4.64 3.844-6.853v.003Z"/><path fill="#F4B102" d="M31.315 16.968c.119-2.08-.646-3.374-3.122-3.962 2-.8 3.076-1.884 2.984-4.305 1.311 1.971 2.721 2.397 4.819 1.603-1.113 1.887-1.556 3.488.338 5.44-2.35-.8-3.778-.22-5.019 1.224Z"/></g><defs><filter id="a" width="57.743" height="56" x="0" y="0" color-interpolation-filters="sRGB" filterUnits="userSpaceOnUse"><feFlood flood-opacity="0" result="BackgroundImageFix"/><feColorMatrix in="SourceAlpha" result="hardAlpha" values="0 0 0 0 0 0 0 0 0 0 0 0 0 0 0 0 0 0 127 0"/><feOffset dx="8" dy="6"/><feGaussianBlur stdDeviation="4"/><feComposite in2="hardAlpha" operator="out"/><feColorMatrix values="0 0 0 0 0 0 0 0 0 0 0 0 0 0 0 0 0 0 0.25 0"/><feBlend in2="BackgroundImageFix" result="effect1_dropShadow_303_82"/><feBlend in="SourceGraphic" in2="effect1_dropShadow_303_82" result="shape"/></filter></defs></svg>