<svg xmlns="http://www.w3.org/2000/svg" fill="none" viewBox="0 0 78 107"><path fill="#fff" d="M77.872 74.323V.158s-18.607.991-46.118 38.765c0 0-9.087-11.032-13.015-11.772v54.797c-2.293-1.369-5.34-1.97-8.541-1.48-6.151.963-10.555 5.6-9.8 10.375.741 4.776 6.333 7.876 12.484 6.926 5.592-.865 9.716-4.775 9.87-9.076l.027.041V50.207s5.298 4.957 7.088 9.677c0 0 21.276-34.45 42.637-41.558v50.062c-2.055-.838-4.53-1.159-7.088-.754-6.15.964-10.554 5.6-9.813 10.376.74 4.776 6.332 7.876 12.497 6.926 6.151-.963 10.54-5.6 9.8-10.376 0-.07-.028-.14-.056-.223l.028-.014ZM55.827 92.756a3.457 3.457 0 0 0-4.725 1.215c-3.51 5.935-11.184 7.918-17.111 4.413a3.46 3.46 0 0 0-4.725 1.215c-.965 1.634-.42 3.742 1.216 4.72A19.32 19.32 0 0 0 40.295 107c6.64 0 13.127-3.407 16.748-9.524a3.453 3.453 0 0 0-1.216-4.72Z"/></svg>